<?xml version="1.0" standalone="no"?>
<!DOCTYPE svg PUBLIC "-//W3C//DTD SVG 1.1//EN" "http://www.w3.org/Graphics/SVG/1.1/DTD/svg11.dtd" >
<svg xmlns="http://www.w3.org/2000/svg" xmlns:xlink="http://www.w3.org/1999/xlink" version="1.1">
<metadata>
Created by FontForge 20190801 at Thu Mar 14 19:01:03 2019
 By www-data
Copyright 2019 Black Foundry
</metadata>
<defs>
<font id="poster" horiz-adv-x="501" >
  <font-face 
    font-family="poster"
    font-weight="1000"
    font-style="italic"
    font-stretch="normal"
    units-per-em="1000"
    panose-1="2 0 0 0 0 0 0 0 0 0"
    ascent="720"
    descent="-280"
    x-height="362"
    cap-height="570"
    bbox="-130 -280 1003 868"
    underline-thickness="27"
    underline-position="-112"
    slope="-360"
    unicode-range="U+000D-FB06"
  />
<missing-glyph horiz-adv-x="600" 
d="M503 0h-406v780h406v-780zM132 748v-716h336v716h-336zM338 391l69 -69l-36 -36l-69 69l-69 -69l-35 36l69 69l-69 68l35 36l69 -69l69 69l36 -36z" />
    <glyph glyph-name="ff" unicode="ff" horiz-adv-x="553" 
d="M223 12v-12h-203v12h36q6 0 9.5 3.5t3.5 9.5v280h-54v8l54 38v36q0 137 58.5 210t163.5 73q32 0 62.5 -8t56.5 -23q24 20 55 30.5t67 10.5q40 0 70.5 -12t30.5 -30q0 -6 -7 -16.5t-28 -37.5q-57 54 -75.5 66.5t-34.5 12.5q-26 0 -39.5 -38.5t-13.5 -114.5v-148h115v-57
h-115v-280q0 -6 3.5 -9.5t9.5 -3.5h56v-12h-223v12h36q6 0 9.5 3.5t3.5 9.5v280h-156v-280q0 -6 3.5 -9.5t9.5 -3.5h36zM244 653q-31 0 -50.5 -42t-19.5 -111v-138h156v35q0 53 7 95.5t22 75.5q-37 46 -63.5 65.5t-51.5 19.5z" />
    <glyph glyph-name="fi" unicode="fi" horiz-adv-x="498" 
d="M223 12v-12h-203v12h36q6 0 9.5 3.5t3.5 9.5v280h-54v8l54 38v46q0 137 59 210t163 73q52 0 97 -15t45 -39q0 -8 -9 -22t-41 -55q-100 93 -116.5 103.5t-30.5 10.5q-27 0 -44.5 -40.5t-17.5 -112.5v-148h126q39 0 72.5 2.5t62.5 7.5l4 -3l-4 -70v-274q0 -6 3.5 -9.5
t9.5 -3.5h36v-12h-203v12h36q6 0 9.5 3.5t3.5 9.5v267q0 6 -3.5 9.5t-9.5 3.5h-143v-280q0 -6 3.5 -9.5t9.5 -3.5h36z" />
    <glyph glyph-name="fl" unicode="fl" horiz-adv-x="498" 
d="M484 12v-12h-203v12h36q6 0 9.5 3.5t3.5 9.5v280h-156v-280q0 -6 3.5 -9.5t9.5 -3.5h36v-12h-203v12h36q6 0 9.5 3.5t3.5 9.5v280h-54v8l54 38v46q0 137 58.5 210t163.5 73q25 0 45.5 -3t44.5 -11l54 14l4 -3l-4 -70v-582q0 -6 3.5 -9.5t9.5 -3.5h36zM236 663
q-27 0 -44.5 -40.5t-17.5 -112.5v-148h156v232q-43 47 -60 58t-34 11z" />
    <glyph glyph-name="ffi" unicode="ffi" horiz-adv-x="759" 
d="M223 12v-12h-203v12h36q6 0 9.5 3.5t3.5 9.5v280h-54v8l54 38v36q0 137 58.5 210t163.5 73q35 0 67.5 -9t58.5 -26q27 22 61.5 33.5t73.5 11.5q52 0 97 -15t45 -39q0 -8 -9 -22t-41 -55q-100 93 -116.5 103.5t-30.5 10.5q-27 0 -44.5 -40.5t-17.5 -112.5v-148h126
q39 0 72.5 2.5t62.5 7.5l4 -3l-4 -70v-274q0 -6 3.5 -9.5t9.5 -3.5h36v-12h-203v12h36q6 0 9.5 3.5t3.5 9.5v267q0 6 -3.5 9.5t-9.5 3.5h-143v-280q0 -6 3.5 -9.5t9.5 -3.5h36v-12h-203v12h36q6 0 9.5 3.5t3.5 9.5v280h-156v-280q0 -6 3.5 -9.5t9.5 -3.5h36zM244 653
q-31 0 -50.5 -42t-19.5 -111v-138h156v35q0 49 8 91.5t24 76.5q-38 47 -65.5 67.5t-52.5 20.5z" />
    <glyph glyph-name="f_f_l" unicode="ffl" horiz-adv-x="759" 
d="M223 12v-12h-203v12h36q6 0 9.5 3.5t3.5 9.5v280h-54v8l54 38v36q0 137 58.5 210t163.5 73q35 0 67 -9t58 -26q27 22 61.5 33.5t74.5 11.5q25 0 45.5 -3t44.5 -11l54 14l4 -3l-4 -70v-582q0 -6 3.5 -9.5t9.5 -3.5h36v-12h-203v12h36q6 0 9.5 3.5t3.5 9.5v280h-156v-280
q0 -6 3.5 -9.5t9.5 -3.5h36v-12h-203v12h36q6 0 9.5 3.5t3.5 9.5v280h-156v-280q0 -6 3.5 -9.5t9.5 -3.5h36zM497 663q-27 0 -44.5 -40.5t-17.5 -112.5v-148h156v232q-43 47 -60 58t-34 11zM244 653q-31 0 -50.5 -42t-19.5 -111v-138h156v35q0 50 8 92t24 76
q-38 47 -65.5 67.5t-52.5 20.5z" />
    <glyph glyph-name="fj" unicode="fj" horiz-adv-x="498" 
d="M223 12v-12h-203v12h36q6 0 9.5 3.5t3.5 9.5v280h-54v8l54 38v46q0 137 59 210t163 73q52 0 97 -15t45 -39q0 -8 -9 -22t-41 -55q-100 93 -116.5 103.5t-30.5 10.5q-27 0 -44.5 -40.5t-17.5 -112.5v-148h126q39 0 72.5 2.5t62.5 7.5l4 -3l-4 -70v-356q0 -40 -38.5 -78
t-118.5 -76l-4 7q32 22 44 49.5t12 77.5v369q0 6 -3.5 9.5t-9.5 3.5h-143v-280q0 -6 3.5 -9.5t9.5 -3.5h36z" />
    <glyph glyph-name="f_b" unicode="fb" horiz-adv-x="739" 
d="M714 202q0 -96 -61.5 -154t-159.5 -58q-43 0 -90 12.5t-73 30.5v272h-156v-280q0 -6 3.5 -9.5t9.5 -3.5h36v-12h-203v12h36q6 0 9.5 3.5t3.5 9.5v280h-54v8l54 38v46q0 137 58.5 210t163.5 73q25 0 45.5 -3t44.5 -11l54 14l4 -3l-4 -70v-303q34 34 67.5 51t65.5 17
q67 0 106.5 -46t39.5 -124zM236 663q-27 0 -44.5 -40.5t-17.5 -112.5v-148h156v232q-43 47 -60 58t-34 11zM435 294v-193q0 -48 18.5 -73.5t53.5 -25.5q45 0 71 41.5t26 113.5q0 74 -27.5 115t-75.5 41q-19 0 -35.5 -5t-30.5 -14z" />
    <glyph glyph-name="f_h" unicode="fh" horiz-adv-x="729" 
d="M484 12v-12h-203v12h36q6 0 9.5 3.5t3.5 9.5v280h-156v-280q0 -6 3.5 -9.5t9.5 -3.5h36v-12h-203v12h36q6 0 9.5 3.5t3.5 9.5v280h-54v8l54 38v46q0 137 58.5 210t163.5 73q25 0 45.5 -3t44.5 -11l54 14l4 -3l-4 -70v-303q31 31 65 49.5t62 18.5q53 0 81 -32t28 -92v-223
q0 -6 3.5 -9.5t9.5 -3.5h36v-12h-203v12h36q6 0 9.5 3.5t3.5 9.5v202q0 42 -17 64t-49 22q-16 0 -32 -4.5t-33 -14.5v-269q0 -6 3.5 -9.5t9.5 -3.5h36zM236 663q-27 0 -44.5 -40.5t-17.5 -112.5v-148h156v232q-43 47 -60 58t-34 11z" />
    <glyph glyph-name="f_k" unicode="fk" horiz-adv-x="744" 
d="M484 12v-12h-203v12h36q6 0 9.5 3.5t3.5 9.5v280h-156v-280q0 -6 3.5 -9.5t9.5 -3.5h36v-12h-203v12h36q6 0 9.5 3.5t3.5 9.5v280h-54v8l54 38v46q0 137 58.5 210t163.5 73q25 0 45.5 -3t44.5 -11l54 14l4 -3l-4 -70v-582q0 -6 3.5 -9.5t9.5 -3.5h36zM236 663
q-27 0 -44.5 -40.5t-17.5 -112.5v-148h156v232q-43 47 -60 58t-34 11zM727 13l15 -1v-12h-203v12l35 1q6 0 7 4.5t-5 11.5l-127 167v7l159 131q6 6 5 10.5t-10 4.5l-60 1v12h174v-12l-46 -1q-5 0 -9.5 -1.5t-10.5 -5.5l-119 -87l173 -231q4 -5 9 -7.5t13 -3.5z" />
    <glyph glyph-name="f_f_f" unicode="fff" horiz-adv-x="813" 
d="M223 12v-12h-203v12h36q6 0 9.5 3.5t3.5 9.5v280h-54v8l54 38v36q0 137 58.5 210t163.5 73q37 0 71 -10t61 -29q26 19 58.5 29t69.5 10q32 0 62.5 -8t56.5 -23q24 20 55 30.5t67 10.5q40 0 70.5 -12t30.5 -30q0 -6 -7 -16.5t-28 -37.5q-57 54 -75.5 66.5t-34.5 12.5
q-26 0 -39.5 -38.5t-13.5 -114.5v-148h115v-57h-115v-280q0 -6 3.5 -9.5t9.5 -3.5h56v-12h-223v12h36q6 0 9.5 3.5t3.5 9.5v280h-156v-280q0 -6 3.5 -9.5t9.5 -3.5h36v-12h-203v12h36q6 0 9.5 3.5t3.5 9.5v280h-155v-280q0 -6 3.5 -9.5t9.5 -3.5h36zM244 653
q-31 0 -50.5 -42t-19.5 -111v-138h155v25q0 54 9 97.5t27 77.5q-39 49 -67 70t-54 21zM504 653q-31 0 -50.5 -42t-19.5 -111v-138h156v35q0 53 7 95.5t22 75.5q-37 46 -63.5 65.5t-51.5 19.5z" />
    <glyph glyph-name="f_f_j" unicode="ffj" horiz-adv-x="759" 
d="M223 12v-12h-203v12h36q6 0 9.5 3.5t3.5 9.5v280h-54v8l54 38v36q0 137 58.5 210t163.5 73q35 0 67.5 -9t58.5 -26q27 22 61.5 33.5t73.5 11.5q52 0 97 -15t45 -39q0 -8 -9 -22t-41 -55q-100 93 -116.5 103.5t-30.5 10.5q-27 0 -44.5 -40.5t-17.5 -112.5v-148h126
q39 0 72.5 2.5t62.5 7.5l4 -3l-4 -70v-356q0 -40 -38.5 -78t-118.5 -76l-4 7q32 22 44 49.5t12 77.5v369q0 6 -3.5 9.5t-9.5 3.5h-143v-280q0 -6 3.5 -9.5t9.5 -3.5h36v-12h-203v12h36q6 0 9.5 3.5t3.5 9.5v280h-156v-280q0 -6 3.5 -9.5t9.5 -3.5h36zM244 653
q-31 0 -50.5 -42t-19.5 -111v-138h156v35q0 49 8 91.5t24 76.5q-38 47 -65.5 67.5t-52.5 20.5z" />
    <glyph glyph-name="f_f_b" unicode="ffb" horiz-adv-x="1000" 
d="M223 12v-12h-203v12h36q6 0 9.5 3.5t3.5 9.5v280h-54v8l54 38v36q0 137 58.5 210t163.5 73q35 0 67 -9t58 -26q27 22 61.5 33.5t74.5 11.5q25 0 45.5 -3t44.5 -11l54 14l4 -3l-4 -70v-303q34 34 67.5 51t65.5 17q67 0 106.5 -46t39.5 -124q0 -96 -61.5 -154t-159.5 -58
q-43 0 -90 12.5t-73 30.5v272h-156v-280q0 -6 3.5 -9.5t9.5 -3.5h36v-12h-203v12h36q6 0 9.5 3.5t3.5 9.5v280h-156v-280q0 -6 3.5 -9.5t9.5 -3.5h36zM497 663q-27 0 -44.5 -40.5t-17.5 -112.5v-148h156v232q-43 47 -60 58t-34 11zM244 653q-31 0 -50.5 -42t-19.5 -111v-138
h156v35q0 50 8 92t24 76q-38 47 -65.5 67.5t-52.5 20.5zM696 294v-193q0 -48 18.5 -73.5t53.5 -25.5q45 0 71 41.5t26 113.5q0 74 -27.5 115t-75.5 41q-19 0 -35.5 -5t-30.5 -14z" />
    <glyph glyph-name="f_f_h" unicode="ffh" horiz-adv-x="990" 
d="M223 12v-12h-203v12h36q6 0 9.5 3.5t3.5 9.5v280h-54v8l54 38v36q0 137 58.5 210t163.5 73q35 0 67 -9t58 -26q27 22 61.5 33.5t74.5 11.5q25 0 45.5 -3t44.5 -11l54 14l4 -3l-4 -70v-303q31 31 65 49.5t62 18.5q53 0 81 -32t28 -92v-223q0 -6 3.5 -9.5t9.5 -3.5h36v-12
h-203v12h36q6 0 9.5 3.5t3.5 9.5v202q0 42 -17 64t-49 22q-16 0 -32 -4.5t-33 -14.5v-269q0 -6 3.5 -9.5t9.5 -3.5h36v-12h-203v12h36q6 0 9.5 3.5t3.5 9.5v280h-156v-280q0 -6 3.5 -9.5t9.5 -3.5h36v-12h-203v12h36q6 0 9.5 3.5t3.5 9.5v280h-156v-280q0 -6 3.5 -9.5
t9.5 -3.5h36zM497 663q-27 0 -44.5 -40.5t-17.5 -112.5v-148h156v232q-43 47 -60 58t-34 11zM244 653q-31 0 -50.5 -42t-19.5 -111v-138h156v35q0 50 8 92t24 76q-38 47 -65.5 67.5t-52.5 20.5z" />
    <glyph glyph-name="f_f_k" unicode="ffk" horiz-adv-x="1067" 
d="M223 12v-12h-203v12h36q6 0 9.5 3.5t3.5 9.5v280h-54v8l54 38v36q0 137 58.5 210t163.5 73q35 0 67 -9t58 -26q27 22 61.5 33.5t74.5 11.5q25 0 45.5 -3t44.5 -11l54 14l4 -3l-4 -70v-582q0 -6 3.5 -9.5t9.5 -3.5h36v-12h-203v12h36q6 0 9.5 3.5t3.5 9.5v280h-156v-280
q0 -6 3.5 -9.5t9.5 -3.5h36v-12h-203v12h36q6 0 9.5 3.5t3.5 9.5v280h-156v-280q0 -6 3.5 -9.5t9.5 -3.5h36zM497 663q-27 0 -44.5 -40.5t-17.5 -112.5v-148h156v232q-43 47 -60 58t-34 11zM244 653q-31 0 -50.5 -42t-19.5 -111v-138h156v35q0 50 8 92t24 76
q-38 47 -65.5 67.5t-52.5 20.5zM988 13l15 -1v-12h-203v12l35 1q6 0 7 4.5t-5 11.5l-127 167v7l159 131q6 6 5 10.5t-10 4.5l-60 1v12h174v-12l-46 -1q-5 0 -9.5 -1.5t-10.5 -5.5l-119 -87l173 -231q4 -5 9 -7.5t13 -3.5z" />
    <glyph glyph-name=".notdef" horiz-adv-x="600" 
d="M503 0h-406v780h406v-780zM132 748v-716h336v716h-336zM338 391l69 -69l-36 -36l-69 69l-69 -69l-35 36l69 69l-69 68l35 36l69 -69l69 69l36 -36z" />
    <glyph glyph-name=".null" horiz-adv-x="0" 
 />
    <glyph glyph-name=".null" horiz-adv-x="0" 
 />
    <glyph glyph-name="nonmarkingreturn" horiz-adv-x="333" 
 />
    <glyph glyph-name="CR" unicode="&#xd;" horiz-adv-x="0" 
 />
    <glyph glyph-name="space" unicode=" " horiz-adv-x="215" 
 />
    <glyph glyph-name="exclam" unicode="!" horiz-adv-x="285" 
d="M202 450l-56 -272h-8l-55 272q-2 11 -4 27t-2 25q0 36 17 57t48 21t48.5 -21t17.5 -57q0 -9 -2 -25t-4 -27zM142 124q29 0 48.5 -19.5t19.5 -48.5q0 -28 -19.5 -47t-48.5 -19q-28 0 -47 19t-19 47q0 29 19 48.5t47 19.5z" />
    <glyph glyph-name="quotedbl" unicode="&#x22;" horiz-adv-x="314" 
d="M102 424h-13l-21 151q-3 20 4.5 32.5t22.5 12.5t22 -12.5t5 -32.5zM227 424h-13l-21 151q-3 20 4.5 32.5t22.5 12.5t22 -12.5t5 -32.5z" />
    <glyph glyph-name="numbersign" unicode="#" horiz-adv-x="495" 
d="M149 160l-31 -160h-28l31 160h-96l5 25h96l38 200h-95l5 25h95l31 160h28l-31 -160h149l31 160h28l-31 -160h96l-5 -25h-96l-38 -200h95l-5 -25h-95l-31 -160h-28l31 160h-149zM192 385l-38 -200h149l38 200h-149z" />
    <glyph glyph-name="dollar" unicode="$" horiz-adv-x="473" 
d="M210 -10q-39 0 -78 9.5t-81 28.5l-10 181h8l14 -53q20 -77 60.5 -115t102.5 -38q48 0 77.5 28t29.5 75q0 42 -23.5 73.5t-101.5 72.5q-84 44 -110 80.5t-26 85.5q0 65 44.5 108.5t117.5 51.5v92h20v-90h8q38 0 73 -8t63 -23l8 -146h-8l-10 42q-15 63 -46.5 93t-83.5 30
q-42 0 -69.5 -26t-27.5 -65q0 -36 22.5 -64t97.5 -67q46 -24 67 -38.5t36 -30.5q23 -23 34 -51t11 -62q0 -70 -47.5 -115t-128.5 -56v-93h-20v91q-4 -1 -9 -1h-14z" />
    <glyph glyph-name="percent" unicode="%" horiz-adv-x="615" 
d="M263 429q0 -65 -35.5 -107.5t-90.5 -42.5q-52 0 -87 44t-35 107q0 64 34 104.5t89 40.5q53 0 89 -42.5t36 -103.5zM91 429q0 -69 11.5 -103t34.5 -34q25 0 37.5 34t12.5 103q0 67 -12 100.5t-36 33.5q-25 0 -36.5 -32.5t-11.5 -101.5zM481 555l-323 -555l-28 15l326 555z
M600 144q0 -65 -35.5 -107.5t-90.5 -42.5q-52 0 -87 44t-35 107q0 64 34 104.5t89 40.5q53 0 89 -42.5t36 -103.5zM428 144q0 -69 11.5 -103t34.5 -34q25 0 37.5 34t12.5 103q0 67 -12 100.5t-36 33.5q-25 0 -36.5 -32.5t-11.5 -101.5z" />
    <glyph glyph-name="ampersand" unicode="&#x26;" horiz-adv-x="711" 
d="M418 102q-50 -59 -99.5 -85.5t-106.5 -26.5q-77 0 -127 42t-50 109q0 52 36.5 95t120.5 85q-36 31 -53 61t-17 61q0 59 47.5 98t116.5 39q67 0 107 -27.5t40 -73.5q0 -34 -27.5 -59t-92.5 -47q58 -44 100.5 -85t77.5 -86l101 124q8 10 4.5 15.5t-18.5 6.5l-44 2v12h157
v-12l-35 -1q-10 0 -16.5 -3.5t-15.5 -13.5l-127 -138q6 -8 13.5 -19l22.5 -33q29 -47 54 -66.5t55 -19.5q13 0 27.5 6.5t37.5 22.5l4 -5q-45 -55 -73.5 -72.5t-65.5 -17.5q-44 0 -79 23t-64 71q-2 3 -5.5 9t-5.5 9zM271 567q-27 0 -44 -19.5t-17 -49.5q0 -19 8 -36t25 -34
q6 -6 14.5 -13t47.5 -36q15 16 22.5 40t7.5 58q0 40 -18 65t-46 25zM199 314q-27 -25 -40.5 -56t-13.5 -70q0 -60 36.5 -97t96.5 -37q39 0 72 14t62 42q-32 47 -78.5 93t-104.5 88q-3 2 -10.5 8t-19.5 15z" />
    <glyph glyph-name="quotesingle" unicode="'" horiz-adv-x="189" 
d="M102 424h-13l-21 151q-3 20 4.5 32.5t22.5 12.5t22 -12.5t5 -32.5z" />
    <glyph glyph-name="parenleft" unicode="(" horiz-adv-x="200" 
d="M75 253q0 -104 29 -202t79 -158l-15 -15q-56 63 -89 165t-33 210t33 209.5t89 165.5l15 -15q-50 -60 -79 -158t-29 -202z" />
    <glyph glyph-name="parenright" unicode=")" horiz-adv-x="200" 
d="M32 -122l-15 15q50 60 79 158t29 202t-29 202t-79 158l15 15q56 -64 89 -165.5t33 -209.5t-33 -210t-89 -165z" />
    <glyph glyph-name="asterisk" unicode="*" horiz-adv-x="292" 
d="M169 440l5 -86l-14 -3l-24 83l-74 -57l-10 11l68 72l-90 46l6 14l89 -29l-6 86l14 3l25 -82l73 56l10 -11l-70 -71l91 -47l-5 -13z" />
    <glyph glyph-name="plus" unicode="+" horiz-adv-x="500" 
d="M265 226v-176h-29v176h-169v27h169v176h29v-176h168v-27h-168z" />
    <glyph glyph-name="comma" unicode="," horiz-adv-x="205" 
d="M170 47q0 -42 -32.5 -90t-89.5 -94l-6 7q32 29 50 58t18 52q0 18 -11.5 28.5t-62.5 32.5q10 47 26 66t44 19q29 0 46.5 -22t17.5 -57z" />
    <glyph glyph-name="hyphen" unicode="-" horiz-adv-x="200" 
d="M180 228h-160v40h160v-40z" />
    <glyph glyph-name="period" unicode="." horiz-adv-x="205" 
d="M102 124q29 0 48.5 -19.5t19.5 -48.5q0 -28 -19.5 -47t-48.5 -19q-28 0 -47 19t-19 47q0 29 19 48.5t47 19.5z" />
    <glyph glyph-name="slash" unicode="/" horiz-adv-x="210" 
d="M217 561l-199 -561l-25 9l199 561z" />
    <glyph glyph-name="zero" unicode="0" horiz-adv-x="534" 
d="M266 580q100 0 165 -83t65 -210q0 -129 -65 -213t-165 -84q-99 0 -163.5 84t-64.5 213q0 127 64.5 210t163.5 83zM266 2q53 0 81 73t28 212q0 137 -28 209t-81 72q-52 0 -79.5 -71.5t-27.5 -209.5q0 -140 27.5 -212.5t79.5 -72.5z" />
    <glyph glyph-name="one" unicode="1" horiz-adv-x="327" 
d="M298 12v-12h-250v12h56q8 0 11.5 3t3.5 10v446q0 13 -5.5 18t-19.5 5q-9 0 -29.5 -4.5t-38.5 -10.5l-4 9l206 95l4 -3q-3 -18 -4 -35.5t-1 -52.5v-467q0 -7 3 -10t11 -3h57z" />
    <glyph glyph-name="two" unicode="2" horiz-adv-x="447" 
d="M425 162l-33 -162h-364v14q52 50 92.5 92.5t70.5 78.5q51 62 74 109.5t23 99.5q0 48 -28 78t-76 30q-50 0 -85.5 -30.5t-60.5 -96.5l-7 2q15 95 65.5 149t126.5 54q80 0 127 -42t47 -106q0 -67 -45.5 -128t-215.5 -201v-3h238q12 0 16.5 3.5t9.5 15.5l17 45z" />
    <glyph glyph-name="three" unicode="3" horiz-adv-x="432" 
d="M404 177q0 -81 -77 -134t-196 -53q-52 0 -82.5 16.5t-30.5 45.5q0 13 10 31.5t27 35.5q43 -61 76 -85.5t67 -24.5q56 0 86.5 35t30.5 98q0 58 -43 96t-109 38q-14 0 -34 -4t-35 -9l-5 14q92 32 131 65t39 81q0 35 -25.5 56t-69.5 21q-47 0 -79.5 -24t-49.5 -71l-7 2
q14 82 63 127.5t124 45.5q67 0 108 -31.5t41 -80.5q0 -47 -30 -76.5t-100 -51.5v-2q78 -6 124 -50t46 -111z" />
    <glyph glyph-name="four" unicode="4" horiz-adv-x="493" 
d="M260 25v120h-233v49l304 386h37v-378h98v-57h-98v-120q0 -6 3.5 -9.5t9.5 -3.5h53v-12h-241v12h54q6 0 9.5 3.5t3.5 9.5zM260 452l-205 -250h205v250z" />
    <glyph glyph-name="five" unicode="5" horiz-adv-x="415" 
d="M385 187q0 -89 -70.5 -143t-186.5 -54q-52 0 -82.5 16.5t-30.5 45.5q0 13 10.5 31.5t27.5 35.5q38 -61 69 -85.5t66 -24.5q51 0 80.5 31.5t29.5 85.5q0 65 -56.5 102.5t-170.5 46.5l-3 4l49 291h263l-15 -100h-245l-15 -94q131 -8 205.5 -59t74.5 -130z" />
    <glyph glyph-name="six" unicode="6" horiz-adv-x="471" 
d="M32 212q0 134 92.5 232.5t253.5 135.5l2 -8q-110 -45 -168 -137t-58 -219q0 -108 24 -161t73 -53q39 0 62 41t23 109q0 64 -26.5 104t-70.5 40q-14 0 -30 -5t-29 -13l-4 5q25 28 58 43.5t68 15.5q66 0 106.5 -43.5t40.5 -111.5q0 -86 -58.5 -141.5t-147.5 -55.5
q-98 0 -154.5 58.5t-56.5 163.5z" />
    <glyph glyph-name="seven" unicode="7" horiz-adv-x="433" 
d="M413 557l-228 -557h-64l239 468h-271q-16 0 -23 -5.5t-11 -21.5l-11 -40l-6 1l13 168h362v-13z" />
    <glyph glyph-name="eight" unicode="8" horiz-adv-x="457" 
d="M290 331q83 -44 112 -82t29 -89q0 -80 -57.5 -125t-152.5 -45q-90 0 -142.5 40t-52.5 109q0 46 28.5 78.5t97.5 63.5q-51 29 -73 62.5t-22 77.5q0 73 52.5 116t142.5 43q69 0 111.5 -31.5t42.5 -83.5q0 -40 -31 -75.5t-85 -58.5zM235 568q-39 0 -62.5 -25.5t-23.5 -68.5
q0 -37 25 -66.5t108 -72.5q20 19 30.5 48.5t10.5 65.5q0 55 -24 87t-64 32zM159 277q-19 -20 -28.5 -52t-9.5 -73q0 -67 29.5 -108.5t79.5 -41.5q46 0 75 31.5t29 81.5q0 31 -15 55.5t-48 46.5q-20 13 -59 32.5t-53 27.5z" />
    <glyph glyph-name="nine" unicode="9" horiz-adv-x="475" 
d="M443 358q0 -134 -92.5 -232.5t-253.5 -135.5l-2 8q110 45 168 137t58 219q0 108 -24 161t-73 53q-39 0 -62 -41t-23 -109q0 -64 26.5 -104t70.5 -40q14 0 30 5t29 13l4 -5q-25 -28 -58 -43.5t-68 -15.5q-66 0 -106.5 43.5t-40.5 111.5q0 86 58.5 141.5t147.5 55.5
q98 0 154.5 -58.5t56.5 -163.5z" />
    <glyph glyph-name="colon" unicode=":" horiz-adv-x="205" 
d="M102 124q29 0 48.5 -19.5t19.5 -48.5q0 -28 -19.5 -47t-48.5 -19q-28 0 -47 19t-19 47q0 29 19 48.5t47 19.5zM102 372q29 0 48.5 -19.5t19.5 -48.5q0 -28 -19.5 -47t-48.5 -19q-28 0 -47 19t-19 47q0 29 19 48.5t47 19.5z" />
    <glyph glyph-name="semicolon" unicode=";" horiz-adv-x="205" 
d="M175 47q0 -42 -32.5 -90t-89.5 -94l-6 7q32 29 50 58t18 52q0 18 -11.5 28.5t-62.5 32.5q10 47 26 66t44 19q29 0 46.5 -22t17.5 -57zM102 372q29 0 48.5 -19.5t19.5 -48.5q0 -28 -19.5 -47t-48.5 -19q-28 0 -47 19t-19 47q0 29 19 48.5t47 19.5z" />
    <glyph glyph-name="less" unicode="&#x3c;" horiz-adv-x="500" 
d="M433 97v-31l-366 159v26l366 159v-30l-328 -142z" />
    <glyph glyph-name="equal" unicode="=" horiz-adv-x="500" 
d="M433 340v-28h-366v28h366zM433 168v-28h-366v28h366z" />
    <glyph glyph-name="greater" unicode="&#x3e;" horiz-adv-x="500" 
d="M433 225l-366 -159v31l328 141l-328 142v30l366 -159v-26z" />
    <glyph glyph-name="question" unicode="?" horiz-adv-x="385" 
d="M155 212l-5 -34h-8l-21 127q-3 19 1 26t28 16q79 29 110 59t31 71q0 36 -21.5 58.5t-54.5 22.5q-24 0 -46 -16t-71 -78q-23 22 -34 41t-11 35q0 20 24.5 30t70.5 10q95 0 157.5 -50t62.5 -124q0 -62 -39 -101t-134 -69q-26 -8 -32.5 -12t-7.5 -12zM153 124
q29 0 48.5 -19.5t19.5 -48.5q0 -28 -19.5 -47t-48.5 -19q-28 0 -47 19t-19 47q0 29 19 48.5t47 19.5z" />
    <glyph glyph-name="at" unicode="@" horiz-adv-x="673" 
d="M463 55q27 0 60 22.5t58 58.5q21 31 32.5 66.5t11.5 72.5q0 93 -59 144.5t-166 51.5q-65 0 -127.5 -25.5t-112.5 -71.5q-50 -47 -77.5 -107.5t-27.5 -126.5q0 -118 68.5 -181t194.5 -63q54 0 105.5 16t89.5 44l3 -5q-36 -28 -90.5 -44.5t-110.5 -16.5q-126 0 -200.5 64.5
t-74.5 177.5q0 71 28.5 135t81.5 113q52 48 118 74t136 26q107 0 170.5 -54.5t63.5 -147.5q0 -48 -17.5 -92.5t-50.5 -81.5q-34 -38 -78 -60t-87 -22q-33 0 -50 20.5t-10 51.5q-22 -35 -48 -53.5t-54 -18.5q-36 0 -59 23.5t-23 62.5q0 45 22 91t61 81q39 36 86 52t94 9l8 21
l100 12l-92 -273q-8 -24 -3 -35t26 -11zM386 333q-39 0 -82 -76.5t-43 -145.5q0 -27 6.5 -40.5t20.5 -13.5q20 0 39.5 30.5t42.5 95.5l33 94q10 27 5.5 41.5t-22.5 14.5z" />
    <glyph glyph-name="A" unicode="A" horiz-adv-x="553" 
d="M136 12v-12h-131v12h19q7 0 11.5 4.5t9.5 16.5l220 547h11l231 -545q7 -16 11.5 -19.5t12.5 -3.5h17v-12h-226v12h54q7 0 9.5 5.5t-1.5 13.5l-48 114h-220l-43 -113q-3 -9 -1 -14.5t10 -5.5h54zM220 421l-81 -214h171z" />
    <glyph glyph-name="B" unicode="B" horiz-adv-x="559" 
d="M529 167q0 -79 -65.5 -123t-181.5 -44h-244v12h56q6 0 9.5 3.5t3.5 9.5v520q0 6 -3.5 9.5t-9.5 3.5h-56v12h279q86 0 136 -35t50 -97q0 -50 -49 -86t-132 -48q100 -1 153.5 -36t53.5 -101zM278 558h-58v-246h65q46 0 71.5 31t25.5 85q0 66 -25.5 98t-78.5 32zM233 12h69
q47 0 73 38.5t26 105.5q0 65 -29.5 99.5t-84.5 34.5h-67v-265q0 -6 3.5 -9.5t9.5 -3.5z" />
    <glyph glyph-name="C" unicode="C" horiz-adv-x="618" 
d="M355 -10q-144 0 -229 78t-85 210t91 217t231 85q51 0 104.5 -15.5t89.5 -40.5v-140h-8l-7 34q-13 70 -61.5 110t-117.5 40q-94 0 -144 -71.5t-50 -203.5q0 -135 55.5 -213t151.5 -78q67 0 110.5 32t63.5 95l12 38h8l-5 -123q-32 -24 -91 -39t-119 -15z" />
    <glyph glyph-name="D" unicode="D" horiz-adv-x="675" 
d="M309 0h-271v12h56q6 0 9.5 3.5t3.5 9.5v520q0 6 -3.5 9.5t-9.5 3.5h-56v12h268q153 0 240.5 -77t87.5 -208q0 -126 -89.5 -205.5t-235.5 -79.5zM506 271q0 138 -54.5 212.5t-155.5 74.5h-76v-533q0 -6 3.5 -9.5t9.5 -3.5h76q97 0 147 66t50 193z" />
    <glyph glyph-name="E" unicode="E" horiz-adv-x="534" 
d="M413 193l-9 55q-1 5 -4.5 7.5t-10.5 2.5h-169v-227q0 -7 3 -10.5t9 -3.5l183 5q26 1 38.5 11t18.5 35l29 115h8l-14 -183h-457v12h56q6 0 9.5 3.5t3.5 9.5v520q0 6 -3.5 9.5t-9.5 3.5h-56v12h353q23 0 40.5 2.5t27.5 7.5l3 -1v-172h-8l-15 86q-6 34 -16 45t-39 12l-164 3
v-234h169q7 0 10.5 2.5t4.5 7.5l9 56h8v-192h-8z" />
    <glyph glyph-name="F" unicode="F" horiz-adv-x="497" 
d="M309 12v-12h-271v12h56q6 0 9.5 3.5t3.5 9.5v520q0 6 -3.5 9.5t-9.5 3.5h-56v12h353q23 0 40.5 2.5t27.5 7.5l3 -1v-172h-8l-15 86q-6 34 -16 45t-39 12l-164 3v-254h169q7 0 10.5 2.5t4.5 7.5l9 56h8v-202h-8l-9 65q-1 5 -4.5 7.5t-10.5 2.5h-169v-213q0 -6 3.5 -9.5
t9.5 -3.5h76z" />
    <glyph glyph-name="G" unicode="G" horiz-adv-x="663" 
d="M470 27v193q0 6 -3.5 9.5t-9.5 3.5h-72v12h250v-12h-39q-6 0 -9.5 -3.5t-3.5 -9.5v-106q0 -22 2 -37.5t7 -25.5l-1 -4q-46 -25 -108.5 -41t-118.5 -16q-149 0 -236 77.5t-87 210.5t92 217.5t235 84.5q59 0 114 -15t95 -41v-140h-8l-7 34q-15 71 -67 110.5t-127 39.5
q-95 0 -147 -72t-52 -203q0 -137 53 -214t145 -77q27 0 53 6t50 19z" />
    <glyph glyph-name="H" unicode="H" horiz-adv-x="712" 
d="M289 12v-12h-251v12h56q6 0 9.5 3.5t3.5 9.5v520q0 6 -3.5 9.5t-9.5 3.5h-56v12h251v-12h-56q-6 0 -9.5 -3.5t-3.5 -9.5v-237h272v237q0 6 -3.5 9.5t-9.5 3.5h-56v12h251v-12h-56q-6 0 -9.5 -3.5t-3.5 -9.5v-520q0 -6 3.5 -9.5t9.5 -3.5h56v-12h-251v12h56q6 0 9.5 3.5
t3.5 9.5v261h-272v-261q0 -6 3.5 -9.5t9.5 -3.5h56z" />
    <glyph glyph-name="I" unicode="I" horiz-adv-x="327" 
d="M289 12v-12h-251v12h56q6 0 9.5 3.5t3.5 9.5v520q0 6 -3.5 9.5t-9.5 3.5h-56v12h251v-12h-56q-6 0 -9.5 -3.5t-3.5 -9.5v-520q0 -6 3.5 -9.5t9.5 -3.5h56z" />
    <glyph glyph-name="J" unicode="J" horiz-adv-x="327" 
d="M25 -172l-4 7q50 33 68 66.5t18 87.5v556q0 6 -3.5 9.5t-9.5 3.5h-56v12h251v-12h-56q-6 0 -9.5 -3.5t-3.5 -9.5v-512q0 -60 -40 -103.5t-155 -101.5z" />
    <glyph glyph-name="K" unicode="K" horiz-adv-x="639" 
d="M289 12v-12h-251v12h56q6 0 9.5 3.5t3.5 9.5v520q0 6 -3.5 9.5t-9.5 3.5h-56v12h251v-12h-56q-6 0 -9.5 -3.5t-3.5 -9.5v-243l269 237q7 7 4.5 13t-13.5 6h-50v12h171v-12l-41 -1q-8 0 -13.5 -2t-11.5 -7l-228 -193l271 -325q9 -10 15 -12.5t16 -3.5l25 -2v-12h-271v12
l58 2q10 0 12 6t-7 17l-206 250v-262q0 -6 3.5 -9.5t9.5 -3.5h56z" />
    <glyph glyph-name="L" unicode="L" horiz-adv-x="526" 
d="M509 183l-14 -183h-457v12h56q6 0 9.5 3.5t3.5 9.5v520q0 6 -3.5 9.5t-9.5 3.5h-56v12h251v-12h-56q-6 0 -9.5 -3.5t-3.5 -9.5v-514q0 -7 3 -10.5t9 -3.5l183 5q26 1 38.5 11t18.5 35l29 115h8z" />
    <glyph glyph-name="M" unicode="M" horiz-adv-x="810" 
d="M201 12v-12h-163v12h56q6 0 9.5 3.5t3.5 9.5v520q0 6 -3.5 9.5t-9.5 3.5h-56v12h183l191 -421l172 421h188v-12h-56q-6 0 -9.5 -3.5t-3.5 -9.5v-520q0 -6 3.5 -9.5t9.5 -3.5h56v-12h-251v12h56q6 0 9.5 3.5t3.5 9.5v496l-218 -531h-11l-229 505v-470q0 -6 3.5 -9.5
t9.5 -3.5h56z" />
    <glyph glyph-name="N" unicode="N" horiz-adv-x="666" 
d="M196 12v-12h-163v12h56q6 0 9.5 3.5t3.5 9.5v520q0 6 -3.5 9.5t-9.5 3.5h-56v12h161l345 -391v366q0 6 -3.5 9.5t-9.5 3.5h-56v12h163v-12h-56q-6 0 -9.5 -3.5t-3.5 -9.5v-555h-10l-427 487v-452q0 -6 3.5 -9.5t9.5 -3.5h56z" />
    <glyph glyph-name="O" unicode="O" horiz-adv-x="699" 
d="M658 294q0 -131 -90 -217.5t-217 -86.5q-135 0 -222.5 78.5t-87.5 207.5q0 130 90.5 217t216.5 87q135 0 222.5 -78.5t87.5 -207.5zM169 301q0 -134 51.5 -216.5t137.5 -82.5q84 0 128 69t44 199q0 133 -51.5 215.5t-138.5 82.5q-83 0 -127 -69t-44 -198z" />
    <glyph glyph-name="P" unicode="P" horiz-adv-x="530" 
d="M309 12v-12h-271v12h56q6 0 9.5 3.5t3.5 9.5v520q0 6 -3.5 9.5t-9.5 3.5h-56v12h256q99 0 156.5 -43.5t57.5 -120.5q0 -83 -64 -131.5t-176 -48.5h-14v8l17 2q56 6 86.5 48.5t30.5 112.5q0 78 -32.5 119.5t-93.5 41.5h-42v-533q0 -6 3.5 -9.5t9.5 -3.5h76z" />
    <glyph glyph-name="Q" unicode="Q" horiz-adv-x="719" 
d="M777 -215q-80 0 -150 19.5t-122 56.5l-185 130q-125 10 -202 87.5t-77 197.5q0 130 90.5 217t216.5 87q135 0 222.5 -78.5t87.5 -207.5q0 -95 -49.5 -169t-134.5 -110l144 -103q66 -47 119 -68t116 -21q32 0 51.5 2.5t39.5 8.5l4 -10q-36 -19 -79.5 -29t-91.5 -10z
M169 301q0 -134 51.5 -216.5t137.5 -82.5q84 0 128 69t44 199q0 133 -51.5 215.5t-138.5 82.5q-83 0 -127 -69t-44 -198z" />
    <glyph glyph-name="R" unicode="R" horiz-adv-x="618" 
d="M289 12v-12h-251v12h56q6 0 9.5 3.5t3.5 9.5v520q0 6 -3.5 9.5t-9.5 3.5h-56v12h265q93 0 150 -40.5t57 -106.5q0 -47 -36 -83t-98 -53l178 -261q5 -7 9.5 -9t17.5 -3l27 -2v-12h-132q-27 0 -38 5.5t-22 23.5l-138 225h-58v-229q0 -6 3.5 -9.5t9.5 -3.5h56zM266 558h-46
v-282h45q64 0 94.5 34t30.5 104q0 69 -32 106.5t-92 37.5z" />
    <glyph glyph-name="S" unicode="S" horiz-adv-x="473" 
d="M429 164q0 -80 -61.5 -127t-157.5 -47q-39 0 -78 9.5t-81 28.5l-10 181h8l14 -53q20 -77 60.5 -115t102.5 -38q48 0 77.5 28t29.5 75q0 42 -23.5 73.5t-101.5 72.5q-84 44 -110 80.5t-26 85.5q0 72 54 117t136 45q38 0 73 -8t63 -23l8 -146h-8l-10 42q-15 63 -46.5 93
t-83.5 30q-42 0 -69.5 -26t-27.5 -65q0 -36 22.5 -64t97.5 -67q46 -24 67 -38.5t36 -30.5q23 -23 34 -51t11 -62z" />
    <glyph glyph-name="T" unicode="T" horiz-adv-x="550" 
d="M400 12v-12h-251v12h56q6 0 9.5 3.5t3.5 9.5v528l-121 -3q-29 -1 -39 -12t-16 -45l-15 -86h-8v172l3 1q10 -5 27.5 -7.5t40.5 -2.5h370q23 0 40.5 2.5t27.5 7.5l3 -1v-172h-8l-15 86q-6 34 -16 45t-39 12l-122 3v-528q0 -6 3.5 -9.5t9.5 -3.5h56z" />
    <glyph glyph-name="U" unicode="U" horiz-adv-x="657" 
d="M339 -10q-112 0 -172 55t-60 159v341q0 6 -3.5 9.5t-9.5 3.5h-56v12h251v-12h-56q-6 0 -9.5 -3.5t-3.5 -9.5v-338q0 -96 35.5 -142t110.5 -46q76 0 117.5 53t41.5 149v324q0 6 -3.5 9.5t-9.5 3.5h-56v12h163v-12h-56q-6 0 -9.5 -3.5t-3.5 -9.5v-324q0 -112 -54.5 -171.5
t-156.5 -59.5z" />
    <glyph glyph-name="V" unicode="V" horiz-adv-x="570" 
d="M527 537l-238 -547h-11l-234 545q-7 16 -11.5 19.5t-12.5 3.5h-17v12h226v-12h-54q-7 0 -9.5 -5.5t1.5 -13.5l168 -393l164 392q4 9 1.5 14.5t-10.5 5.5h-54v12h131v-12h-19q-7 0 -11.5 -4.5t-9.5 -16.5z" />
    <glyph glyph-name="W" unicode="W" horiz-adv-x="849" 
d="M311 -10h-13l-252 536q-10 22 -14.5 27t-13.5 5h-17v12h225v-12h-46q-14 0 -17 -5.5t2 -16.5l193 -407l72 144l-124 272q-4 9 -8 11t-14 2h-23v12h225v-12h-44q-8 0 -11.5 -4.5t-0.5 -11.5l86 -185l68 180q4 11 2 16t-11 5h-53v12h155v-12h-44q-9 0 -13 -3.5t-10 -17.5
l-85 -200l91 -197l165 398q5 11 1.5 15.5t-15.5 4.5h-44v12h125v-12h-19q-7 0 -11.5 -4.5t-9.5 -16.5l-235 -547h-13l-120 261z" />
    <glyph glyph-name="X" unicode="X" horiz-adv-x="572" 
d="M190 12v-12h-177v12l32 1q14 1 20 4t14 14l161 229l-179 278q-9 14 -13.5 17t-14.5 3h-31v12h279v-12h-70q-14 0 -18 -5t2 -14l131 -204l137 204q6 9 3 14t-14 5h-72v12h178v-12l-31 -1q-14 -1 -19.5 -3.5t-14.5 -14.5l-156 -222l183 -285q8 -12 13.5 -16t16.5 -4h20v-12
h-265v12h62q16 0 21.5 5t-0.5 14l-137 212l-142 -212q-6 -10 -3.5 -14.5t14.5 -4.5h70z" />
    <glyph glyph-name="Y" unicode="Y" horiz-adv-x="568" 
d="M409 12v-12h-251v12h56q6 0 9.5 3.5t3.5 9.5v214l-180 311q-3 5 -6 6.5t-11 1.5h-21v12h251v-12l-65 -1q-9 0 -12 -4t1 -11l149 -272l150 271q4 7 2.5 11.5t-7.5 4.5l-67 1v12h155v-12l-32 -1q-7 0 -10.5 -2t-7.5 -8l-176 -300v-222q0 -6 3.5 -9.5t9.5 -3.5h56z" />
    <glyph glyph-name="Z" unicode="Z" horiz-adv-x="516" 
d="M509 183l-14 -183h-485v14l346 539l-236 -3q-28 0 -38.5 -11t-16.5 -46l-15 -86h-8v172l3 1q10 -5 27.5 -7.5t40.5 -2.5h379v-14l-346 -539l269 5q26 1 38.5 11t18.5 35l29 115h8z" />
    <glyph glyph-name="bracketleft" unicode="[" horiz-adv-x="185" 
d="M168 -106l-1 -16l-102 6v738l102 6l1 -16l-54 -6q-13 -1 -18 -7t-5 -23v-646q0 -17 5 -23t18 -7z" />
    <glyph glyph-name="backslash" unicode="\" horiz-adv-x="210" 
d="M217 9l-25 -9l-199 561l25 9z" />
    <glyph glyph-name="bracketright" unicode="]" horiz-adv-x="185" 
d="M120 -116l-102 -6l-1 16l54 6q13 1 18 7t5 23v646q0 17 -5 23t-18 7l-54 6l1 16l102 -6v-738z" />
    <glyph glyph-name="asciicircum" unicode="^" 
d="M263 684l147 -324h-30l-130 291l-130 -291h-29l146 324h26z" />
    <glyph glyph-name="underscore" unicode="_" horiz-adv-x="400" 
d="M380 -55h-360v25h360v-25z" />
    <glyph glyph-name="grave" unicode="`" 
d="M235 582l62 -169l-8 -4l-88 161q-7 14 -8.5 18.5t-1.5 8.5q0 7 5 11.5t12 4.5q8 0 14.5 -7.5t12.5 -23.5z" />
    <glyph glyph-name="a" unicode="a" horiz-adv-x="389" 
d="M222 51q-27 -31 -55 -46t-59 -15q-36 0 -60 21t-24 54q0 29 22 50t66 34l109 32v69q0 42 -19 66.5t-53 24.5q-14 0 -25.5 -3.5t-19.5 -10.5q-7 -7 -10.5 -15t-3.5 -20t2 -26t8 -37q-10 -5 -25 -8.5t-23 -3.5q-12 0 -20 8.5t-8 22.5q0 37 63.5 80.5t121.5 43.5
q46 0 81.5 -27.5t35.5 -66.5v-188q0 -21 6.5 -31.5t20.5 -10.5q7 0 15 3t17 8l4 -5q-18 -31 -42.5 -47.5t-51.5 -16.5q-30 0 -50 16.5t-23 44.5zM128 95q0 -21 14 -33t39 -12q11 0 21.5 3t18.5 9v110l-17 -8q-45 -20 -60.5 -34t-15.5 -35z" />
    <glyph glyph-name="b" unicode="b" horiz-adv-x="472" 
d="M447 202q0 -96 -61.5 -154t-159.5 -58q-43 0 -90 12.5t-73 30.5v541q0 13 -3.5 19.5t-18.5 15.5l-17 10v14l138 47l11 -7q-3 -18 -4 -35.5t-1 -52.5v-281q34 34 67.5 51t65.5 17q67 0 106.5 -46t39.5 -124zM168 294v-193q0 -48 18.5 -73.5t53.5 -25.5q45 0 71 41.5
t26 113.5q0 74 -27.5 115t-75.5 41q-19 0 -35.5 -5t-30.5 -14z" />
    <glyph glyph-name="c" unicode="c" horiz-adv-x="366" 
d="M199 -10q-76 0 -125 51.5t-49 133.5q0 89 59.5 143t149.5 54q49 0 81 -13.5t32 -33.5q0 -9 -8.5 -22.5t-30.5 -38.5q-39 52 -63 73t-44 21q-30 0 -48 -38t-18 -101q0 -72 36 -114t97 -42q26 0 50 11t44 31l5 -4q-19 -51 -64 -81t-104 -30z" />
    <glyph glyph-name="d" unicode="d" horiz-adv-x="472" 
d="M171 -10q-67 0 -106.5 46t-39.5 124q0 96 61.5 154t159.5 58q15 0 30 -1.5t28 -4.5v231l-44 27v6l149 50l4 -3l-4 -70v-531l49 -30v-6l-154 -50v68q-34 -34 -67.5 -51t-65.5 -17zM232 360q-45 0 -71 -41.5t-26 -113.5q0 -74 27.5 -115t75.5 -41q19 0 35.5 5t30.5 14v193
q0 48 -18.5 73.5t-53.5 25.5z" />
    <glyph glyph-name="e" unicode="e" horiz-adv-x="382" 
d="M202 -10q-80 0 -128.5 50.5t-48.5 137.5q0 88 55 141t139 53q67 0 106 -30t40 -84l-1 -3h-231q-1 -5 -1 -11v-18q0 -79 36.5 -121t104.5 -42q26 0 50 11t44 31l5 -4q-20 -52 -65 -81.5t-105 -29.5zM271 286q0 33 -17.5 53.5t-44.5 20.5q-31 0 -50 -23.5t-25 -69.5h122
q8 0 11.5 4.5t3.5 14.5z" />
    <glyph glyph-name="f" unicode="f" horiz-adv-x="292" 
d="M243 12v-12h-223v12h36q6 0 9.5 3.5t3.5 9.5v280h-54v8l54 38v46q0 139 52 211t150 72q40 0 70.5 -12t30.5 -30q0 -6 -7 -16.5t-28 -37.5q-57 54 -75.5 66.5t-34.5 12.5q-26 0 -39.5 -38.5t-13.5 -114.5v-148h115v-57h-115v-280q0 -6 3.5 -9.5t9.5 -3.5h56z" />
    <glyph glyph-name="g" unicode="g" horiz-adv-x="429" 
d="M367 233q0 -58 -46.5 -95.5t-114.5 -37.5q-21 0 -41.5 3.5t-38.5 10.5q-22 -24 -30.5 -37t-8.5 -23q0 -15 10.5 -22.5t30.5 -7.5h183q54 0 83.5 -27t29.5 -75q0 -84 -75.5 -143t-177.5 -59q-65 0 -108 29.5t-43 72.5q0 26 22 51.5t74 57.5q-38 2 -63.5 22t-25.5 49
q0 22 18 44t73 71q-41 17 -63 47t-22 68q0 61 50 100.5t121 39.5q12 0 25.5 -2t26.5 -6q20 -5 32.5 -7t25.5 -2h101v-17l-121 8l1 -1q35 -23 53.5 -52t18.5 -60zM137 237q0 -57 18.5 -91t49.5 -34q32 0 46.5 29t14.5 93q0 58 -17.5 92t-48.5 34t-47 -31.5t-16 -91.5z
M103 -151q0 -46 33 -73t89 -27q64 0 103.5 30.5t39.5 80.5q0 33 -21 52t-57 19h-158q-14 -16 -21.5 -37t-7.5 -45z" />
    <glyph glyph-name="h" unicode="h" horiz-adv-x="462" 
d="M217 12v-12h-203v12h36q6 0 9.5 3.5t3.5 9.5v572l-44 27v6l149 50l4 -3l-4 -70v-303q31 31 65 49.5t62 18.5q53 0 81 -32t28 -92v-223q0 -6 3.5 -9.5t9.5 -3.5h36v-12h-203v12h36q6 0 9.5 3.5t3.5 9.5v202q0 42 -17 64t-49 22q-16 0 -32 -4.5t-33 -14.5v-269
q0 -6 3.5 -9.5t9.5 -3.5h36z" />
    <glyph glyph-name="i" unicode="i" horiz-adv-x="229" 
d="M181 530q0 -23 -15.5 -38.5t-37.5 -15.5q-24 0 -39.5 15.5t-15.5 38.5t16 39t39 16q22 0 37.5 -16t15.5 -39zM220 12v-12h-203v12h36q6 0 9.5 3.5t3.5 9.5v264l-44 27v6l149 50l4 -3l-4 -70v-274q0 -6 3.5 -9.5t9.5 -3.5h36z" />
    <glyph glyph-name="j" unicode="j" horiz-adv-x="221" 
d="M185 530q0 -23 -15.5 -38.5t-37.5 -15.5q-24 0 -39.5 15.5t-15.5 38.5t16 39t39 16q22 0 37.5 -16t15.5 -39zM171 299v-356q0 -40 -38.5 -78t-118.5 -76l-4 7q32 22 44 49.5t12 77.5v366l-44 27v6l149 50l4 -3z" />
    <glyph glyph-name="k" unicode="k" horiz-adv-x="477" 
d="M217 12v-12h-203v12h36q6 0 9.5 3.5t3.5 9.5v572l-44 27v6l149 50l4 -3l-4 -70v-582q0 -6 3.5 -9.5t9.5 -3.5h36zM460 13l15 -1v-12h-203v12l35 1q6 0 7 4.5t-5 11.5l-127 167v7l159 131q6 6 5 10.5t-10 4.5l-60 1v12h174v-12l-46 -1q-5 0 -9.5 -1.5t-10.5 -5.5l-119 -87
l173 -231q4 -5 9 -7.5t13 -3.5z" />
    <glyph glyph-name="l" unicode="l" horiz-adv-x="231" 
d="M217 12v-12h-203v12h36q6 0 9.5 3.5t3.5 9.5v572l-44 27v6l149 50l4 -3l-4 -70v-582q0 -6 3.5 -9.5t9.5 -3.5h36z" />
    <glyph glyph-name="m" unicode="m" horiz-adv-x="689" 
d="M220 12v-12h-203v12h36q6 0 9.5 3.5t3.5 9.5v264l-44 27v6l149 50l4 -3l-4 -65q32 33 63 50.5t58 17.5q40 0 66.5 -19t36.5 -55q34 36 66.5 55t60.5 19q53 0 81 -32t28 -92v-223q0 -6 3.5 -9.5t9.5 -3.5h36v-12h-203v12h36q6 0 9.5 3.5t3.5 9.5v202q0 42 -17 64t-49 22
q-16 0 -31 -5t-33 -16q2 -11 3.5 -22t1.5 -22v-223q0 -6 3.5 -9.5t9.5 -3.5h36v-12h-203v12h36q6 0 9.5 3.5t3.5 9.5v202q0 42 -17 64t-49 22q-15 0 -28.5 -4.5t-30.5 -14.5v-269q0 -6 3.5 -9.5t9.5 -3.5h36z" />
    <glyph glyph-name="n" unicode="n" horiz-adv-x="465" 
d="M220 12v-12h-203v12h36q6 0 9.5 3.5t3.5 9.5v264l-44 27v6l149 50l4 -3l-4 -65q31 31 65 49.5t62 18.5q53 0 81 -32t28 -92v-223q0 -6 3.5 -9.5t9.5 -3.5h36v-12h-203v12h36q6 0 9.5 3.5t3.5 9.5v202q0 42 -17 64t-49 22q-16 0 -32 -4.5t-33 -14.5v-269q0 -6 3.5 -9.5
t9.5 -3.5h36z" />
    <glyph glyph-name="o" unicode="o" horiz-adv-x="453" 
d="M429 186q0 -85 -59.5 -140.5t-144.5 -55.5q-89 0 -145 50t-56 136q0 84 60 140t144 56q89 0 145 -50t56 -136zM138 191q0 -90 24 -139.5t67 -49.5t64.5 42.5t21.5 126.5q0 90 -24 139.5t-67 49.5t-64.5 -42.5t-21.5 -126.5z" />
    <glyph glyph-name="p" unicode="p" horiz-adv-x="471" 
d="M447 202q0 -96 -61.5 -154t-159.5 -58q-15 0 -30 1.5t-28 4.5v-241q0 -6 3.5 -9.5t9.5 -3.5h56v-12h-223v12h36q6 0 9.5 3.5t3.5 9.5v534l-44 27v6l149 50l4 -3l-4 -64q35 34 68 50.5t65 16.5q67 0 106.5 -45.5t39.5 -124.5zM168 294v-193q0 -48 18.5 -73.5t53.5 -25.5
q45 0 71 41.5t26 113.5q0 74 -27.5 115t-75.5 41q-19 0 -35.5 -5t-30.5 -14z" />
    <glyph glyph-name="q" unicode="q" horiz-adv-x="472" 
d="M171 -10q-67 0 -106.5 46t-39.5 124q0 96 61.5 154t159.5 58q28 0 57 -4.5t54 -13.5l44 28h8v-627q0 -6 3.5 -9.5t9.5 -3.5h36v-12h-223v12h56q6 0 9.5 3.5t3.5 9.5v303q-34 -34 -67.5 -51t-65.5 -17zM232 360q-45 0 -71 -41.5t-26 -113.5q0 -74 27.5 -115t75.5 -41
q19 0 35.5 5t30.5 14v193q0 48 -18.5 73.5t-53.5 25.5z" />
    <glyph glyph-name="r" unicode="r" horiz-adv-x="328" 
d="M240 12v-12h-223v12h36q6 0 9.5 3.5t3.5 9.5v264l-44 27v6l149 50l4 -3l-4 -70v-17q36 47 62.5 68.5t46.5 21.5q14 0 23.5 -8.5t9.5 -21.5q0 -8 -4 -25t-11 -43l-5 -2q-30 11 -42.5 14t-21.5 3q-18 0 -31.5 -4t-26.5 -14v-246q0 -6 3.5 -9.5t9.5 -3.5h56z" />
    <glyph glyph-name="s" unicode="s" horiz-adv-x="344" 
d="M311 107q0 -53 -44 -85t-111 -32q-29 0 -57 5.5t-53 15.5l-17 135h8q28 -77 57.5 -110.5t73.5 -33.5q27 0 45.5 15.5t18.5 38.5q0 22 -14.5 39.5t-63.5 42.5q-62 32 -82 59t-20 64q0 52 38 81.5t105 29.5q23 0 52 -7t47 -17l2 -106h-8q-16 61 -40.5 89.5t-61.5 28.5
q-24 0 -39.5 -14t-15.5 -36t15 -39.5t64 -42.5q62 -32 81.5 -58.5t19.5 -62.5z" />
    <glyph glyph-name="t" unicode="t" horiz-adv-x="312" 
d="M166 -10q-44 0 -71 28.5t-27 75.5v211h-56v8l148 128h8v-79h130v-57h-130v-178q0 -38 19 -57.5t57 -19.5q15 0 28 3.5t28 10.5l3 -6q-27 -32 -63.5 -50t-73.5 -18z" />
    <glyph glyph-name="u" unicode="u" horiz-adv-x="454" 
d="M167 -10q-53 0 -81 32t-28 92v175l-44 27v6l149 50l4 -3l-4 -70v-164q0 -42 17 -64t49 -22q15 0 28.5 4.5t30.5 14.5v221l-44 27v6l149 50l4 -3l-4 -70v-226l44 -27v-6l-149 -50l-4 3l4 65q-32 -33 -63 -50.5t-58 -17.5z" />
    <glyph glyph-name="v" unicode="v" horiz-adv-x="399" 
d="M208 -15h-8l-156 342q-7 16 -11.5 19.5t-12.5 3.5h-17v12h206v-12h-44q-7 0 -9.5 -5.5t1.5 -13.5l92 -202l78 201q3 9 1 14.5t-10 5.5h-34v12h112v-12h-21q-8 0 -14.5 -5.5t-10.5 -15.5z" />
    <glyph glyph-name="w" unicode="w" horiz-adv-x="609" 
d="M202 -15h-9l-155 352q-4 8 -7.5 10.5t-9.5 2.5h-17v12h185v-12h-27q-7 0 -9 -5t1 -13l85 -217l53 129l-41 95q-2 6 -6 8.5t-12 2.5h-14v12h200v-12h-43q-8 0 -10 -5t2 -14l83 -213l86 212q4 10 -0.5 15t-16.5 5h-38v12h123v-12h-22q-7 0 -12 -4.5t-10 -16.5l-148 -344h-9
l-101 235z" />
    <glyph glyph-name="x" unicode="x" horiz-adv-x="411" 
d="M139 12v-12h-134v12h21q6 0 10 2t7 6l108 149l-112 170q-4 6 -8 8.5t-10 2.5h-16v12h218v-12h-41q-10 0 -13 -5t3 -14l68 -102l76 101q7 9 3.5 14t-14.5 5l-49 1v12h145v-12h-33q-6 0 -9.5 -1.5t-7.5 -6.5l-101 -128l127 -192q4 -5 7.5 -7.5t9.5 -2.5h12v-12h-218v12h39
q13 0 16.5 5t-2.5 14l-79 121l-83 -120q-6 -9 -3.5 -14t14.5 -5z" />
    <glyph glyph-name="y" unicode="y" horiz-adv-x="409" 
d="M86 -280q-14 0 -23.5 9.5t-19.5 30.5q49 24 67.5 42.5t41.5 66.5l44 92l-155 366q-5 13 -10 18t-14 5h-17v12h207v-12h-38q-8 0 -11.5 -5.5t-0.5 -13.5l93 -224h2l86 223q3 9 0.5 14.5t-10.5 5.5h-38v12h119v-12h-23q-8 0 -14.5 -5.5t-10.5 -16.5l-204 -500
q-25 -63 -40 -85.5t-31 -22.5z" />
    <glyph glyph-name="z" unicode="z" horiz-adv-x="367" 
d="M350 134l-16 -134h-319v14l209 336h-124q-11 0 -15 -2.5t-7 -10.5l-34 -95h-8l3 120h304v-13l-207 -337h136q10 0 14.5 2.5t7.5 10.5l48 109h8z" />
    <glyph glyph-name="braceleft" unicode="{" horiz-adv-x="195" 
d="M178 -104l-6 -18l-32 11q-43 15 -60.5 38t-17.5 60q0 14 3.5 32t14.5 58q10 39 13.5 57t3.5 31q0 40 -19 58t-60 20v20q41 2 60 20t19 58q0 13 -3.5 31t-13.5 57q-11 40 -14.5 58t-3.5 32q0 37 17.5 60t60.5 38l32 11l6 -18l-24 -9q-35 -13 -49 -31t-14 -47
q0 -16 3.5 -37t13.5 -64q9 -36 12 -52t3 -28q0 -32 -17 -54.5t-49 -33.5v-2q32 -11 49 -33.5t17 -54.5q0 -12 -3 -28t-12 -52q-10 -43 -13.5 -64t-3.5 -37q0 -29 14 -47t49 -31z" />
    <glyph glyph-name="bar" unicode="|" horiz-adv-x="200" 
d="M113 670v-940h-26v940h26z" />
    <glyph glyph-name="braceright" unicode="}" horiz-adv-x="195" 
d="M55 -111l-32 -11l-6 18l24 9q35 13 49 31t14 47q0 16 -3.5 37t-13.5 64q-9 36 -12 52t-3 28q0 32 17 54.5t49 33.5v2q-32 11 -49 33.5t-17 54.5q0 12 3 28t12 52q10 43 13.5 64t3.5 37q0 29 -14 47t-49 31l-24 9l6 18l32 -11q43 -15 60.5 -38t17.5 -60q0 -14 -3.5 -32
t-14.5 -58q-10 -39 -13.5 -57t-3.5 -31q0 -40 19 -58t60 -20v-20q-41 -2 -60 -20t-19 -58q0 -13 3.5 -31t13.5 -57q11 -40 14.5 -58t3.5 -32q0 -37 -17.5 -60t-60.5 -38z" />
    <glyph glyph-name="asciitilde" unicode="~" horiz-adv-x="500" 
d="M334 206q-18 0 -36.5 5t-52.5 21q-32 14 -48.5 18.5t-31.5 4.5q-24 0 -43 -10.5t-43 -38.5l-21 17q25 32 50.5 46t57.5 14q18 0 37 -5t54 -21q32 -14 48 -18.5t30 -4.5q25 0 44 10.5t42 38.5l21 -17q-25 -32 -50.5 -46t-57.5 -14z" />
    <glyph glyph-name="uni00A0" unicode="&#xa0;" horiz-adv-x="215" 
 />
    <glyph glyph-name="exclamdown" unicode="&#xa1;" horiz-adv-x="285" 
d="M83 -88l56 272h8l55 -272q2 -11 4 -27t2 -25q0 -36 -17 -57t-48 -21t-48.5 21t-17.5 57q0 9 2 25t4 27zM143 238q-29 0 -48.5 19.5t-19.5 48.5q0 28 19.5 47t48.5 19q28 0 47 -19t19 -47q0 -29 -19 -48.5t-47 -19.5z" />
    <glyph glyph-name="cent" unicode="&#xa2;" horiz-adv-x="366" 
d="M214 -9v-78h-20v77q-74 2 -121.5 53t-47.5 132q0 77 46 129t123 65v99h20v-97q4 1 8 1h12q49 0 81 -13.5t32 -33.5q0 -9 -8.5 -22.5t-30.5 -38.5q-39 52 -63 73t-44 21q-30 0 -48 -38t-18 -101q0 -72 36 -114t97 -42q26 0 50 11t44 31l5 -4q-18 -48 -58.5 -77t-94.5 -33z
" />
    <glyph glyph-name="sterling" unicode="&#xa3;" horiz-adv-x="510" 
d="M67 0q-35 15 -46 26t-11 27q0 24 30.5 43.5t74.5 25.5q20 21 31 49.5t11 60.5q0 13 -2 25t-6 23h-111v20h103q-4 9 -14 27.5t-15 30.5q-7 16 -10 31t-3 32q0 71 60 115t157 44q57 0 89 -13t32 -37q0 -11 -10.5 -26t-30.5 -34q-47 44 -84.5 66.5t-66.5 22.5
q-30 0 -47.5 -20t-17.5 -54q0 -22 6.5 -44t27.5 -61q17 -31 23 -47.5t9 -32.5h181v-20h-179v-6q0 -48 -30.5 -89t-82.5 -62h5q33 0 61.5 -4.5t71.5 -17.5q33 -10 50.5 -13t35.5 -3q34 0 62 20.5t47 59.5l7 -3q-31 -97 -63 -134.5t-78 -37.5q-27 0 -49.5 13.5t-55.5 55.5
q-26 33 -40.5 43t-30.5 10t-28 -10t-27 -35q-5 -9 -16.5 -31t-19.5 -36z" />
    <glyph glyph-name="currency" unicode="&#xa4;" horiz-adv-x="500" 
d="M143 129l-55 -55l-19 20l54 54q-19 22 -29.5 50t-10.5 58t10.5 58t29.5 50l-55 55l19 19l56 -56q20 17 46.5 26.5t55.5 9.5q30 0 58 -10.5t49 -30.5l61 61l19 -20l-61 -61q18 -21 27 -47t9 -54t-9 -54t-27 -47l61 -61l-20 -20l-60 60q-23 -20 -50 -30t-57 -10
q-28 0 -54 9t-48 26zM111 256q0 -60 37 -98.5t97 -38.5t97 38.5t37 98.5t-37 98.5t-97 38.5q-24 0 -45.5 -7t-39.5 -21l-12 -11q-18 -18 -27.5 -44t-9.5 -54z" />
    <glyph glyph-name="yen" unicode="&#xa5;" horiz-adv-x="573" 
d="M482 280h-392v20h120l-160 250q-3 5 -6 6.5t-11 1.5h-21v12h251v-12l-65 -1q-9 0 -12 -4t1 -11l149 -242l150 241q5 7 3.5 11.5t-8.5 4.5l-67 1v12h155v-12l-32 -1q-7 0 -10.5 -2t-7.5 -8l-163 -247h126v-20zM230 205h-140v20h392v-20h-139v-180q0 -6 3.5 -9.5t9.5 -3.5
h56v-12h-251v12h56q6 0 9.5 3.5t3.5 9.5v180z" />
    <glyph glyph-name="brokenbar" unicode="&#xa6;" horiz-adv-x="200" 
d="M113 670v-370h-26v370h26zM113 100v-370h-26v370h26z" />
    <glyph glyph-name="section" unicode="&#xa7;" horiz-adv-x="390" 
d="M358 124q0 -91 -61.5 -145t-163.5 -54q-44 0 -68.5 12t-24.5 34q0 10 6.5 23.5t18.5 30.5q63 -56 86 -68t44 -12q27 0 41.5 15.5t14.5 43.5q0 25 -21 57.5t-64 74.5q-71 69 -102.5 128t-31.5 122q0 85 60 139.5t149 54.5q47 0 72 -10.5t25 -31.5q0 -11 -7 -22t-25 -28
q-42 41 -67.5 55.5t-49.5 14.5q-26 0 -40 -13t-14 -37q0 -25 19 -55.5t64 -75.5q78 -76 109 -133t31 -120zM197 195q48 -48 69.5 -81.5t28.5 -65.5q15 67 -9.5 129t-97.5 135q-37 37 -59.5 72.5t-30.5 71.5q-17 -64 7.5 -129t91.5 -132z" />
    <glyph glyph-name="dieresis" unicode="&#xa8;" 
d="M210 542q0 -15 -10 -25t-25 -10t-24.5 9.5t-9.5 25.5q0 15 9.5 24.5t24.5 9.5t25 -10t10 -24zM360 542q0 -15 -10 -25t-25 -10t-24.5 9.5t-9.5 25.5q0 15 9.5 24.5t24.5 9.5t25 -10t10 -24z" />
    <glyph glyph-name="copyright" unicode="&#xa9;" horiz-adv-x="764" 
d="M743 285q0 -150 -102.5 -251t-258.5 -101q-159 0 -260 100t-101 252q0 153 100.5 252.5t260.5 99.5q157 0 259 -100.5t102 -251.5zM64 285q0 -146 89.5 -243t230.5 -97q137 0 226 97.5t89 242.5t-91 242.5t-228 97.5q-140 0 -228 -96t-88 -244zM403 96q-105 0 -166 49.5
t-61 135.5q0 85 69.5 139.5t178.5 54.5q35 0 74.5 -10.5t62.5 -26.5v-105h-9l-4 24q-8 47 -44.5 76t-83.5 29q-55 0 -83.5 -41.5t-28.5 -120.5q0 -101 26.5 -144.5t85.5 -43.5q47 0 79 26.5t43 75.5l6 27h7l-4 -110q-21 -16 -62.5 -25.5t-85.5 -9.5z" />
    <glyph glyph-name="ordfeminine" unicode="&#xaa;" horiz-adv-x="261" 
d="M256 417l4 -5q-11 -20 -30 -31.5t-39 -11.5q-21 0 -32 8.5t-14 26.5q-18 -17 -36 -26t-35 -9q-23 0 -36.5 12.5t-13.5 35.5q0 18 13 31t42 23l65 23v31q0 23 -14 38.5t-33 15.5q-12 0 -19 -7.5t-7 -20.5q0 -7 1.5 -17.5t4.5 -25.5q-8 -4 -17 -6.5t-16 -2.5q-9 0 -14.5 6
t-5.5 15q0 31 39.5 57.5t84.5 26.5q29 0 53 -19t24 -44v-107q0 -10 4.5 -16t11.5 -6q4 0 7.5 1t7.5 4zM105 440q0 -16 6 -22.5t19 -6.5q4 0 7.5 0.5t6.5 2.5v71l-12 -5q-14 -6 -20.5 -16t-6.5 -24zM259 321v-20h-235v20h235z" />
    <glyph glyph-name="guillemotleft" unicode="&#xab;" horiz-adv-x="320" 
d="M66 178l77 -179l-18 -10l-94 182v14l94 182l18 -10zM186 178l77 -179l-18 -10l-94 182v14l94 182l18 -10z" />
    <glyph glyph-name="logicalnot" unicode="&#xac;" horiz-adv-x="499" 
d="M429 339v-190h-29v163h-330v27h359z" />
    <glyph glyph-name="uni00AD" unicode="&#xad;" horiz-adv-x="0" 
 />
    <glyph glyph-name="registered" unicode="&#xae;" horiz-adv-x="592" 
d="M571 285q0 -114 -78 -190.5t-196 -76.5q-121 0 -198 75.5t-77 191.5q0 117 77 193.5t198 76.5q119 0 196.5 -77.5t77.5 -192.5zM52 285q0 -112 68.5 -184.5t178.5 -72.5q107 0 174.5 73t67.5 184q0 110 -69.5 184t-176.5 74q-109 0 -176 -72.5t-67 -185.5zM311 163v-10
h-168v10l23 1q10 1 13.5 6.5t3.5 21.5v213q0 12 -3.5 16t-13.5 5l-23 1v10h147q68 0 107.5 -20t39.5 -55q0 -26 -23 -45t-59 -24l99 -119q4 -6 7 -7.5t9 -2.5l14 -1v-10h-95q-14 0 -20.5 3t-14.5 14l-63 87q-7 9 -12 12.5t-15 3.5v-81q0 -16 4 -21.5t14 -6.5zM288 426h-24
v-143h24q25 0 39.5 20.5t14.5 56.5q0 29 -15.5 47.5t-38.5 18.5z" />
    <glyph glyph-name="macron" unicode="&#xaf;" 
d="M374 513h-248v35h248v-35z" />
    <glyph glyph-name="degree" unicode="&#xb0;" horiz-adv-x="306" 
d="M280 473q0 -52 -37.5 -88.5t-89.5 -36.5t-89.5 36.5t-37.5 88.5q0 51 37.5 87t89.5 36t89.5 -36t37.5 -87zM77 473q0 -34 22 -57t54 -23t54 23t22 57q0 33 -22 55.5t-54 22.5q-33 0 -54.5 -22.5t-21.5 -55.5z" />
    <glyph glyph-name="plusminus" unicode="&#xb1;" horiz-adv-x="500" 
d="M265 324v-166h-29v166h-169v28h169v171h29v-171h168v-28h-168zM433 27v-27h-366v27h366z" />
    <glyph glyph-name="twosuperior" unicode="&#xb2;" horiz-adv-x="233" 
d="M224 472l-21 -99h-190v8q63 58 95 103.5t32 76.5q0 23 -13 37.5t-35 14.5q-25 0 -42.5 -14t-29.5 -44l-5 2q9 48 35.5 77t64.5 29q44 0 68.5 -20.5t24.5 -56.5q0 -32 -26 -62.5t-97 -84.5v-2h109q9 0 13.5 4t6.5 13l5 18h5z" />
    <glyph glyph-name="threesuperior" unicode="&#xb3;" horiz-adv-x="226" 
d="M215 460q0 -41 -41.5 -66.5t-107.5 -25.5q-25 0 -40.5 9t-15.5 24q0 7 6 17.5t14 17.5h4q15 -25 35 -38.5t40 -13.5q22 0 37 15t15 37q0 29 -20.5 48.5t-54.5 19.5q-8 0 -18 -2t-22 -6l-3 9q49 19 66.5 34.5t17.5 38.5q0 15 -12 25t-33 10q-24 0 -39.5 -11.5t-23.5 -35.5
l-6 2q6 45 32.5 70t68.5 25q35 0 56.5 -15.5t21.5 -39.5q0 -23 -12 -35.5t-49 -26.5v-1q39 -4 61.5 -27t22.5 -58z" />
    <glyph glyph-name="acute" unicode="&#xb4;" 
d="M212 409l-8 4l62 169q6 16 12.5 23.5t14.5 7.5q7 0 12 -4.5t5 -11.5q0 -4 -1.5 -8.5t-8.5 -18.5z" />
    <glyph glyph-name="mu" unicode="&#xb5;" horiz-adv-x="454" 
d="M167 -10q-37 0 -62 16t-37 46v-96q0 -48 29 -93.5t90 -92.5q-12 -24 -28.5 -37t-34.5 -13q-35 0 -52 59t-16 175l2 237v98l-44 27v6l149 50l4 -3l-4 -70v-164q0 -42 17 -64t49 -22q15 0 28.5 4.5t30.5 14.5v221l-44 27v6l149 50l4 -3l-4 -70v-226l44 -27v-6l-149 -50
l-4 3l4 65q-32 -33 -63 -50.5t-58 -17.5z" />
    <glyph glyph-name="paragraph" unicode="&#xb6;" horiz-adv-x="487" 
d="M407 27q0 -98 -44 -150.5t-126 -52.5q-45 0 -78 13t-33 34q0 9 10.5 24.5t29.5 35.5q54 -64 73.5 -76.5t39.5 -12.5q35 0 52 42t17 129q0 21 -2 45.5t-7 72.5q-3 24 -4 35.5t-2 20.5h-62q-110 0 -178 55.5t-68 148.5q0 86 60.5 132.5t170.5 46.5h209v-12h-38
q-13 0 -18 -4t-8 -15q-8 -32 -12 -77t-4 -99q0 -35 2 -72.5t10 -106.5q6 -64 8 -96.5t2 -60.5z" />
    <glyph glyph-name="periodcentered" unicode="&#xb7;" horiz-adv-x="500" 
d="M289 333q0 -16 -11 -27.5t-28 -11.5q-16 0 -27.5 11.5t-11.5 27.5q0 17 11.5 28t27.5 11q17 0 28 -11t11 -28z" />
    <glyph glyph-name="cedilla" unicode="&#xb8;" horiz-adv-x="500" 
d="M317 -145q0 -33 -31.5 -54.5t-74.5 -21.5q-20 0 -30 6t-10 18q0 6 3.5 11.5t13.5 16.5q17 -18 31.5 -26t33.5 -8q17 0 28 11t11 28q0 24 -23.5 44t-65.5 31v4l47 85h12l-33 -61q42 -11 65 -33.5t23 -50.5z" />
    <glyph glyph-name="onesuperior" unicode="&#xb9;" horiz-adv-x="171" 
d="M165 382v-9h-145v9l26 1q7 0 9.5 4t2.5 13v171q0 21 -6.5 30t-20.5 9q-6 0 -10.5 -0.5t-10.5 -2.5l-3 8l117 53l6 -3q-2 -11 -2.5 -21.5t-0.5 -30.5v-213q0 -10 2.5 -13.5t9.5 -3.5z" />
    <glyph glyph-name="ordmasculine" unicode="&#xba;" horiz-adv-x="280" 
d="M141 604q56 0 91 -30t35 -82q0 -54 -37 -88.5t-92 -34.5t-90.5 30.5t-35.5 82.5q0 53 38 87.5t91 34.5zM139 592q-21 0 -30 -22.5t-9 -74.5q0 -58 10 -86.5t30 -28.5q21 0 30 22t9 76q0 58 -10 86t-30 28zM268 321v-20h-256v20h256z" />
    <glyph glyph-name="guillemotright" unicode="&#xbb;" horiz-adv-x="320" 
d="M75 -11l-18 10l77 179l-77 179l18 10l94 -182v-14zM195 -11l-18 10l77 179l-77 179l18 10l94 -182v-14z" />
    <glyph glyph-name="onequarter" unicode="&#xbc;" horiz-adv-x="466" 
d="M165 294v-9h-145v9l26 1q7 0 9.5 4t2.5 13v171q0 21 -6.5 30t-20.5 9q-6 0 -10.5 -0.5t-10.5 -2.5l-3 8l117 53l6 -3q-2 -11 -2.5 -21.5t-0.5 -30.5v-213q0 -10 2.5 -13.5t9.5 -3.5zM392 555l-323 -555l-28 15l326 555zM435 9v-9h-139v9l15 1q12 1 16 5.5t4 18.5v34h-110
v30l153 192h25v-188h49v-34h-49v-34q0 -13 4.5 -18t16.5 -6zM331 216l-93 -114h93v114z" />
    <glyph glyph-name="onehalf" unicode="&#xbd;" horiz-adv-x="495" 
d="M165 294v-9h-145v9l26 1q7 0 9.5 4t2.5 13v171q0 21 -6.5 30t-20.5 9q-6 0 -10.5 -0.5t-10.5 -2.5l-3 8l117 53l6 -3q-2 -11 -2.5 -21.5t-0.5 -30.5v-213q0 -10 2.5 -13.5t9.5 -3.5zM392 555l-323 -555l-28 15l326 555zM486 99l-21 -99h-190v8q63 58 95 103.5t32 76.5
q0 23 -13 37.5t-35 14.5q-25 0 -42.5 -14t-29.5 -44l-5 2q9 48 35.5 77t64.5 29q44 0 68.5 -20.5t24.5 -56.5q0 -32 -26 -62.5t-97 -84.5v-2h109q9 0 13.5 4t6.5 13l5 18h5z" />
    <glyph glyph-name="threequarters" unicode="&#xbe;" horiz-adv-x="581" 
d="M215 372q0 -41 -41.5 -66.5t-107.5 -25.5q-25 0 -40.5 9t-15.5 24q0 7 6 17.5t14 17.5h4q15 -25 35 -38.5t40 -13.5q22 0 37 15t15 37q0 29 -20.5 48.5t-54.5 19.5q-8 0 -18 -2t-22 -6l-3 9q49 19 66.5 34.5t17.5 38.5q0 15 -12 25t-33 10q-24 0 -39.5 -11.5t-23.5 -35.5
l-6 2q6 45 32.5 70t68.5 25q35 0 56.5 -15.5t21.5 -39.5q0 -23 -12 -35.5t-49 -26.5v-1q39 -4 61.5 -27t22.5 -58zM447 555l-323 -555l-28 15l326 555zM550 9v-9h-139v9l15 1q12 1 16 5.5t4 18.5v34h-110v30l153 192h25v-188h49v-34h-49v-34q0 -13 4.5 -18t16.5 -6zM446 216
l-93 -114h93v114z" />
    <glyph glyph-name="questiondown" unicode="&#xbf;" horiz-adv-x="385" 
d="M230 150l5 34h8l21 -127q3 -19 -1 -26t-28 -16q-79 -29 -110 -59t-31 -71q0 -36 21.5 -58.5t54.5 -22.5q24 0 46 16t71 78q23 -22 34 -41t11 -35q0 -20 -24.5 -30t-70.5 -10q-95 0 -157.5 50t-62.5 124q0 62 39 101t134 69q26 8 32.5 12t7.5 12zM232 238
q-29 0 -48.5 19.5t-19.5 48.5q0 28 19.5 47t48.5 19q28 0 47 -19t19 -47q0 -29 -19 -48.5t-47 -19.5z" />
    <glyph glyph-name="Agrave" unicode="&#xc0;" horiz-adv-x="553" 
d="M136 12v-12h-131v12h19q7 0 11.5 4.5t9.5 16.5l220 547h11l231 -545q7 -16 11.5 -19.5t12.5 -3.5h17v-12h-226v12h54q7 0 9.5 5.5t-1.5 13.5l-48 114h-220l-43 -113q-3 -9 -1 -14.5t10 -5.5h54zM220 421l-81 -214h171zM234 737l37 -114l-8 -4l-61 105q-6 11 -7 15.5
t-1 8.5q0 7 4.5 11t11.5 4q8 0 13.5 -5t10.5 -21z" />
    <glyph glyph-name="Aacute" unicode="&#xc1;" horiz-adv-x="553" 
d="M136 12v-12h-131v12h19q7 0 11.5 4.5t9.5 16.5l220 547h11l231 -545q7 -16 11.5 -19.5t12.5 -3.5h17v-12h-226v12h54q7 0 9.5 5.5t-1.5 13.5l-48 114h-220l-43 -113q-3 -9 -1 -14.5t10 -5.5h54zM220 421l-81 -214h171zM277 619l-8 4l35 108q6 18 12 25t14 7q7 0 11.5 -4
t4.5 -11q0 -6 -2.5 -13.5t-7.5 -14.5z" />
    <glyph glyph-name="Acircumflex" unicode="&#xc2;" horiz-adv-x="553" 
d="M136 12v-12h-131v12h19q7 0 11.5 4.5t9.5 16.5l220 547h11l231 -545q7 -16 11.5 -19.5t12.5 -3.5h17v-12h-226v12h54q7 0 9.5 5.5t-1.5 13.5l-48 114h-220l-43 -113q-3 -9 -1 -14.5t10 -5.5h54zM220 421l-81 -214h171zM296 744l77 -119l-8 -5l-96 105h-1l-96 -105l-8 5
l77 119q7 11 13 15t14 4t14.5 -4.5t13.5 -14.5z" />
    <glyph glyph-name="Atilde" unicode="&#xc3;" horiz-adv-x="553" 
d="M136 12v-12h-131v12h19q7 0 11.5 4.5t9.5 16.5l220 547h11l231 -545q7 -16 11.5 -19.5t12.5 -3.5h17v-12h-226v12h54q7 0 9.5 5.5t-1.5 13.5l-48 114h-220l-43 -113q-3 -9 -1 -14.5t10 -5.5h54zM220 421l-81 -214h171zM330 658q-7 0 -17.5 3t-36.5 14q-27 11 -39 14.5
t-20 3.5q-12 0 -18.5 -5t-16.5 -26l-14 -30l-8 3l12 42q8 29 19 40.5t30 11.5q6 0 16.5 -3t36.5 -14q27 -11 38.5 -14.5t19.5 -3.5q10 0 17 4.5t20 28.5l15 28l8 -3l-13 -40q-12 -34 -22 -44t-27 -10z" />
    <glyph glyph-name="Adieresis" unicode="&#xc4;" horiz-adv-x="553" 
d="M136 12v-12h-131v12h19q7 0 11.5 4.5t9.5 16.5l220 547h11l231 -545q7 -16 11.5 -19.5t12.5 -3.5h17v-12h-226v12h54q7 0 9.5 5.5t-1.5 13.5l-48 114h-220l-43 -113q-3 -9 -1 -14.5t10 -5.5h54zM220 421l-81 -214h171zM238 701q0 -15 -10 -25t-25 -10t-24.5 9.5
t-9.5 25.5q0 15 9.5 24.5t24.5 9.5t25 -10t10 -24zM374 701q0 -15 -10 -25t-25 -10t-24.5 9.5t-9.5 25.5q0 15 9.5 24.5t24.5 9.5t25 -10t10 -24z" />
    <glyph glyph-name="Aring" unicode="&#xc5;" horiz-adv-x="553" 
d="M136 12v-12h-131v12h19q7 0 11.5 4.5t9.5 16.5l220 547h11l231 -545q7 -16 11.5 -19.5t12.5 -3.5h17v-12h-226v12h54q7 0 9.5 5.5t-1.5 13.5l-48 114h-220l-43 -113q-3 -9 -1 -14.5t10 -5.5h54zM220 421l-81 -214h171zM273 751q35 0 59.5 -19.5t24.5 -49.5
q0 -33 -25 -54.5t-61 -21.5q-38 0 -61.5 19t-23.5 50q0 34 24.5 55t62.5 21zM274 622q25 0 38 14.5t13 41.5q0 24 -16 41t-40 17q-23 0 -37.5 -16t-14.5 -41q0 -24 16.5 -40.5t40.5 -16.5z" />
    <glyph glyph-name="AE" unicode="&#xc6;" horiz-adv-x="807" 
d="M706 193l-9 55q-1 5 -4.5 7.5t-10.5 2.5h-169v-227q0 -7 3 -10.5t9 -3.5l183 5q26 1 38.5 11t18.5 35l29 115h8l-14 -183h-457v12h56q6 0 9.5 3.5t3.5 9.5v156h-228l-92 -149q-5 -8 -2 -14t11 -6h78v-12h-165v12h25q6 0 8.5 1.5t4.5 4.5l334 523q4 8 1.5 12.5t-9.5 4.5
h-86v12h404q23 0 40.5 2.5t27.5 7.5l3 -1v-172h-8l-15 86q-6 34 -16 45t-39 12l-164 3v-234h169q7 0 10.5 2.5t4.5 7.5l9 56h8v-192h-8zM400 548l-190 -306h190v306z" />
    <glyph glyph-name="Ccedilla" unicode="&#xc7;" horiz-adv-x="647" 
d="M416 -145q0 -33 -31.5 -54.5t-74.5 -21.5q-20 0 -30 6t-10 18q0 6 3.5 11.5t13.5 16.5q17 -18 31.5 -26t33.5 -8q17 0 28 11t11 28q0 24 -23.5 44t-65.5 31v4l42 75q-139 3 -221 80.5t-82 207.5q0 132 91 217t231 85q51 0 104.5 -15.5t89.5 -40.5v-140h-8l-7 34
q-13 70 -61.5 110t-117.5 40q-94 0 -144 -71.5t-50 -203.5q0 -135 55.5 -213t151.5 -78q67 0 110.5 32t63.5 95l12 38h8l-5 -123q-32 -24 -91 -39t-118 -15l-28 -51q42 -11 65 -33.5t23 -50.5z" />
    <glyph glyph-name="Egrave" unicode="&#xc8;" horiz-adv-x="534" 
d="M413 193l-9 55q-1 5 -4.5 7.5t-10.5 2.5h-169v-227q0 -7 3 -10.5t9 -3.5l183 5q26 1 38.5 11t18.5 35l29 115h8l-14 -183h-457v12h56q6 0 9.5 3.5t3.5 9.5v520q0 6 -3.5 9.5t-9.5 3.5h-56v12h353q23 0 40.5 2.5t27.5 7.5l3 -1v-172h-8l-15 86q-6 34 -16 45t-39 12l-164 3
v-234h169q7 0 10.5 2.5t4.5 7.5l9 56h8v-192h-8zM258 737l37 -114l-8 -4l-61 105q-6 11 -7 15.5t-1 8.5q0 7 4.5 11t11.5 4q8 0 13.5 -5t10.5 -21z" />
    <glyph glyph-name="Eacute" unicode="&#xc9;" horiz-adv-x="534" 
d="M413 193l-9 55q-1 5 -4.5 7.5t-10.5 2.5h-169v-227q0 -7 3 -10.5t9 -3.5l183 5q26 1 38.5 11t18.5 35l29 115h8l-14 -183h-457v12h56q6 0 9.5 3.5t3.5 9.5v520q0 6 -3.5 9.5t-9.5 3.5h-56v12h353q23 0 40.5 2.5t27.5 7.5l3 -1v-172h-8l-15 86q-6 34 -16 45t-39 12l-164 3
v-234h169q7 0 10.5 2.5t4.5 7.5l9 56h8v-192h-8zM301 619l-8 4l35 108q6 18 12 25t14 7q7 0 11.5 -4t4.5 -11q0 -6 -2.5 -13.5t-7.5 -14.5z" />
    <glyph glyph-name="Ecircumflex" unicode="&#xca;" horiz-adv-x="534" 
d="M413 193l-9 55q-1 5 -4.5 7.5t-10.5 2.5h-169v-227q0 -7 3 -10.5t9 -3.5l183 5q26 1 38.5 11t18.5 35l29 115h8l-14 -183h-457v12h56q6 0 9.5 3.5t3.5 9.5v520q0 6 -3.5 9.5t-9.5 3.5h-56v12h353q23 0 40.5 2.5t27.5 7.5l3 -1v-172h-8l-15 86q-6 34 -16 45t-39 12l-164 3
v-234h169q7 0 10.5 2.5t4.5 7.5l9 56h8v-192h-8zM320 744l77 -119l-8 -5l-96 105h-1l-96 -105l-8 5l77 119q7 11 13 15t14 4t14.5 -4.5t13.5 -14.5z" />
    <glyph glyph-name="Edieresis" unicode="&#xcb;" horiz-adv-x="534" 
d="M413 193l-9 55q-1 5 -4.5 7.5t-10.5 2.5h-169v-227q0 -7 3 -10.5t9 -3.5l183 5q26 1 38.5 11t18.5 35l29 115h8l-14 -183h-457v12h56q6 0 9.5 3.5t3.5 9.5v520q0 6 -3.5 9.5t-9.5 3.5h-56v12h353q23 0 40.5 2.5t27.5 7.5l3 -1v-172h-8l-15 86q-6 34 -16 45t-39 12l-164 3
v-234h169q7 0 10.5 2.5t4.5 7.5l9 56h8v-192h-8zM262 701q0 -15 -10 -25t-25 -10t-24.5 9.5t-9.5 25.5q0 15 9.5 24.5t24.5 9.5t25 -10t10 -24zM398 701q0 -15 -10 -25t-25 -10t-24.5 9.5t-9.5 25.5q0 15 9.5 24.5t24.5 9.5t25 -10t10 -24z" />
    <glyph glyph-name="Igrave" unicode="&#xcc;" horiz-adv-x="327" 
d="M289 12v-12h-251v12h56q6 0 9.5 3.5t3.5 9.5v520q0 6 -3.5 9.5t-9.5 3.5h-56v12h251v-12h-56q-6 0 -9.5 -3.5t-3.5 -9.5v-520q0 -6 3.5 -9.5t9.5 -3.5h56zM127 737l37 -114l-8 -4l-61 105q-6 11 -7 15.5t-1 8.5q0 7 4.5 11t11.5 4q8 0 13.5 -5t10.5 -21z" />
    <glyph glyph-name="Iacute" unicode="&#xcd;" horiz-adv-x="327" 
d="M289 12v-12h-251v12h56q6 0 9.5 3.5t3.5 9.5v520q0 6 -3.5 9.5t-9.5 3.5h-56v12h251v-12h-56q-6 0 -9.5 -3.5t-3.5 -9.5v-520q0 -6 3.5 -9.5t9.5 -3.5h56zM170 619l-8 4l35 108q6 18 12 25t14 7q7 0 11.5 -4t4.5 -11q0 -6 -2.5 -13.5t-7.5 -14.5z" />
    <glyph glyph-name="Icircumflex" unicode="&#xce;" horiz-adv-x="327" 
d="M289 12v-12h-251v12h56q6 0 9.5 3.5t3.5 9.5v520q0 6 -3.5 9.5t-9.5 3.5h-56v12h251v-12h-56q-6 0 -9.5 -3.5t-3.5 -9.5v-520q0 -6 3.5 -9.5t9.5 -3.5h56zM189 744l77 -119l-8 -5l-96 105h-1l-96 -105l-8 5l77 119q7 11 13 15t14 4t14.5 -4.5t13.5 -14.5z" />
    <glyph glyph-name="Idieresis" unicode="&#xcf;" horiz-adv-x="327" 
d="M289 12v-12h-251v12h56q6 0 9.5 3.5t3.5 9.5v520q0 6 -3.5 9.5t-9.5 3.5h-56v12h251v-12h-56q-6 0 -9.5 -3.5t-3.5 -9.5v-520q0 -6 3.5 -9.5t9.5 -3.5h56zM131 701q0 -15 -10 -25t-25 -10t-24.5 9.5t-9.5 25.5q0 15 9.5 24.5t24.5 9.5t25 -10t10 -24zM267 701
q0 -15 -10 -25t-25 -10t-24.5 9.5t-9.5 25.5q0 15 9.5 24.5t24.5 9.5t25 -10t10 -24z" />
    <glyph glyph-name="Eth" unicode="&#xd0;" horiz-adv-x="675" 
d="M309 0h-271v12h56q6 0 9.5 3.5t3.5 9.5v253h-72v22h72v245q0 6 -3.5 9.5t-9.5 3.5h-56v12h268q153 0 240.5 -77t87.5 -208q0 -126 -89.5 -205.5t-235.5 -79.5zM506 271q0 138 -54.5 212.5t-155.5 74.5h-76v-258h134v-22h-134v-253q0 -6 3.5 -9.5t9.5 -3.5h76q97 0 147 66
t50 193z" />
    <glyph glyph-name="Ntilde" unicode="&#xd1;" horiz-adv-x="678" 
d="M196 12v-12h-163v12h56q6 0 9.5 3.5t3.5 9.5v520q0 6 -3.5 9.5t-9.5 3.5h-56v12h161l345 -391v366q0 6 -3.5 9.5t-9.5 3.5h-56v12h163v-12h-56q-6 0 -9.5 -3.5t-3.5 -9.5v-555h-10l-427 487v-452q0 -6 3.5 -9.5t9.5 -3.5h56zM394 658q-7 0 -17.5 3t-36.5 14
q-27 11 -39 14.5t-20 3.5q-12 0 -18.5 -5t-16.5 -26l-14 -30l-8 3l12 42q8 29 19 40.5t30 11.5q6 0 16.5 -3t36.5 -14q27 -11 38.5 -14.5t19.5 -3.5q10 0 17 4.5t20 28.5l15 28l8 -3l-13 -40q-12 -34 -22 -44t-27 -10z" />
    <glyph glyph-name="Ograve" unicode="&#xd2;" horiz-adv-x="699" 
d="M658 294q0 -131 -90 -217.5t-217 -86.5q-135 0 -222.5 78.5t-87.5 207.5q0 130 90.5 217t216.5 87q135 0 222.5 -78.5t87.5 -207.5zM169 301q0 -134 51.5 -216.5t137.5 -82.5q84 0 128 69t44 199q0 133 -51.5 215.5t-138.5 82.5q-83 0 -127 -69t-44 -198zM334 737
l37 -114l-8 -4l-61 105q-6 11 -7 15.5t-1 8.5q0 7 4.5 11t11.5 4q8 0 13.5 -5t10.5 -21z" />
    <glyph glyph-name="Oacute" unicode="&#xd3;" horiz-adv-x="699" 
d="M658 294q0 -131 -90 -217.5t-217 -86.5q-135 0 -222.5 78.5t-87.5 207.5q0 130 90.5 217t216.5 87q135 0 222.5 -78.5t87.5 -207.5zM169 301q0 -134 51.5 -216.5t137.5 -82.5q84 0 128 69t44 199q0 133 -51.5 215.5t-138.5 82.5q-83 0 -127 -69t-44 -198zM377 619l-8 4
l35 108q6 18 12 25t14 7q7 0 11.5 -4t4.5 -11q0 -6 -2.5 -13.5t-7.5 -14.5z" />
    <glyph glyph-name="Ocircumflex" unicode="&#xd4;" horiz-adv-x="699" 
d="M658 294q0 -131 -90 -217.5t-217 -86.5q-135 0 -222.5 78.5t-87.5 207.5q0 130 90.5 217t216.5 87q135 0 222.5 -78.5t87.5 -207.5zM169 301q0 -134 51.5 -216.5t137.5 -82.5q84 0 128 69t44 199q0 133 -51.5 215.5t-138.5 82.5q-83 0 -127 -69t-44 -198zM396 744
l77 -119l-8 -5l-96 105h-1l-96 -105l-8 5l77 119q7 11 13 15t14 4t14.5 -4.5t13.5 -14.5z" />
    <glyph glyph-name="Otilde" unicode="&#xd5;" horiz-adv-x="699" 
d="M658 294q0 -131 -90 -217.5t-217 -86.5q-135 0 -222.5 78.5t-87.5 207.5q0 130 90.5 217t216.5 87q135 0 222.5 -78.5t87.5 -207.5zM169 301q0 -134 51.5 -216.5t137.5 -82.5q84 0 128 69t44 199q0 133 -51.5 215.5t-138.5 82.5q-83 0 -127 -69t-44 -198zM430 658
q-7 0 -17.5 3t-36.5 14q-27 11 -39 14.5t-20 3.5q-12 0 -18.5 -5t-16.5 -26l-14 -30l-8 3l12 42q8 29 19 40.5t30 11.5q6 0 16.5 -3t36.5 -14q27 -11 38.5 -14.5t19.5 -3.5q10 0 17 4.5t20 28.5l15 28l8 -3l-13 -40q-12 -34 -22 -44t-27 -10z" />
    <glyph glyph-name="Odieresis" unicode="&#xd6;" horiz-adv-x="699" 
d="M658 294q0 -131 -90 -217.5t-217 -86.5q-135 0 -222.5 78.5t-87.5 207.5q0 130 90.5 217t216.5 87q135 0 222.5 -78.5t87.5 -207.5zM169 301q0 -134 51.5 -216.5t137.5 -82.5q84 0 128 69t44 199q0 133 -51.5 215.5t-138.5 82.5q-83 0 -127 -69t-44 -198zM338 701
q0 -15 -10 -25t-25 -10t-24.5 9.5t-9.5 25.5q0 15 9.5 24.5t24.5 9.5t25 -10t10 -24zM474 701q0 -15 -10 -25t-25 -10t-24.5 9.5t-9.5 25.5q0 15 9.5 24.5t24.5 9.5t25 -10t10 -24z" />
    <glyph glyph-name="multiply" unicode="&#xd7;" 
d="M250 220l-137 -137l-19 20l137 137l-137 137l19 19l137 -137l137 137l19 -20l-136 -136l137 -137l-20 -20z" />
    <glyph glyph-name="Oslash" unicode="&#xd8;" horiz-adv-x="699" 
d="M129 68l-74 -68l-14 16l73 67q-36 37 -54.5 86.5t-18.5 106.5q0 130 90.5 217t216.5 87q65 0 122.5 -20t99.5 -58l74 68l14 -16l-73 -67q36 -37 54.5 -86.5t18.5 -106.5q0 -131 -90 -217.5t-217 -86.5q-65 0 -122.5 20t-99.5 58zM340 568q-83 0 -127 -69t-44 -198
q0 -41 5.5 -78.5t15.5 -69.5l312 286q-25 62 -66.5 95.5t-95.5 33.5zM358 2q84 0 128 69t44 199q0 41 -5.5 78t-15.5 69l-312 -286q25 -63 66 -96t95 -33z" />
    <glyph glyph-name="Ugrave" unicode="&#xd9;" horiz-adv-x="657" 
d="M339 -10q-112 0 -172 55t-60 159v341q0 6 -3.5 9.5t-9.5 3.5h-56v12h251v-12h-56q-6 0 -9.5 -3.5t-3.5 -9.5v-338q0 -96 35.5 -142t110.5 -46q76 0 117.5 53t41.5 149v324q0 6 -3.5 9.5t-9.5 3.5h-56v12h163v-12h-56q-6 0 -9.5 -3.5t-3.5 -9.5v-324q0 -112 -54.5 -171.5
t-156.5 -59.5zM331 737l37 -114l-8 -4l-61 105q-6 11 -7 15.5t-1 8.5q0 7 4.5 11t11.5 4q8 0 13.5 -5t10.5 -21z" />
    <glyph glyph-name="Uacute" unicode="&#xda;" horiz-adv-x="657" 
d="M339 -10q-112 0 -172 55t-60 159v341q0 6 -3.5 9.5t-9.5 3.5h-56v12h251v-12h-56q-6 0 -9.5 -3.5t-3.5 -9.5v-338q0 -96 35.5 -142t110.5 -46q76 0 117.5 53t41.5 149v324q0 6 -3.5 9.5t-9.5 3.5h-56v12h163v-12h-56q-6 0 -9.5 -3.5t-3.5 -9.5v-324q0 -112 -54.5 -171.5
t-156.5 -59.5zM374 619l-8 4l35 108q6 18 12 25t14 7q7 0 11.5 -4t4.5 -11q0 -6 -2.5 -13.5t-7.5 -14.5z" />
    <glyph glyph-name="Ucircumflex" unicode="&#xdb;" horiz-adv-x="657" 
d="M339 -10q-112 0 -172 55t-60 159v341q0 6 -3.5 9.5t-9.5 3.5h-56v12h251v-12h-56q-6 0 -9.5 -3.5t-3.5 -9.5v-338q0 -96 35.5 -142t110.5 -46q76 0 117.5 53t41.5 149v324q0 6 -3.5 9.5t-9.5 3.5h-56v12h163v-12h-56q-6 0 -9.5 -3.5t-3.5 -9.5v-324q0 -112 -54.5 -171.5
t-156.5 -59.5zM393 744l77 -119l-8 -5l-96 105h-1l-96 -105l-8 5l77 119q7 11 13 15t14 4t14.5 -4.5t13.5 -14.5z" />
    <glyph glyph-name="Udieresis" unicode="&#xdc;" horiz-adv-x="657" 
d="M339 -10q-112 0 -172 55t-60 159v341q0 6 -3.5 9.5t-9.5 3.5h-56v12h251v-12h-56q-6 0 -9.5 -3.5t-3.5 -9.5v-338q0 -96 35.5 -142t110.5 -46q76 0 117.5 53t41.5 149v324q0 6 -3.5 9.5t-9.5 3.5h-56v12h163v-12h-56q-6 0 -9.5 -3.5t-3.5 -9.5v-324q0 -112 -54.5 -171.5
t-156.5 -59.5zM335 701q0 -15 -10 -25t-25 -10t-24.5 9.5t-9.5 25.5q0 15 9.5 24.5t24.5 9.5t25 -10t10 -24zM471 701q0 -15 -10 -25t-25 -10t-24.5 9.5t-9.5 25.5q0 15 9.5 24.5t24.5 9.5t25 -10t10 -24z" />
    <glyph glyph-name="Yacute" unicode="&#xdd;" horiz-adv-x="568" 
d="M409 12v-12h-251v12h56q6 0 9.5 3.5t3.5 9.5v214l-180 311q-3 5 -6 6.5t-11 1.5h-21v12h251v-12l-65 -1q-9 0 -12 -4t1 -11l149 -272l150 271q4 7 2.5 11.5t-7.5 4.5l-67 1v12h155v-12l-32 -1q-7 0 -10.5 -2t-7.5 -8l-176 -300v-222q0 -6 3.5 -9.5t9.5 -3.5h56zM341 619
l-8 4l35 108q6 18 12 25t14 7q7 0 11.5 -4t4.5 -11q0 -6 -2.5 -13.5t-7.5 -14.5z" />
    <glyph glyph-name="Thorn" unicode="&#xde;" horiz-adv-x="530" 
d="M268 136h-14v8l17 2q56 6 86.5 48.5t30.5 112.5q0 78 -32.5 119.5t-93.5 41.5h-42v-443q0 -6 3.5 -9.5t9.5 -3.5h56v-12h-251v12h56q6 0 9.5 3.5t3.5 9.5v520q0 6 -3.5 9.5t-9.5 3.5h-56v12h251v-12h-56q-6 0 -9.5 -3.5t-3.5 -9.5v-65h74q99 0 156.5 -43.5t57.5 -120.5
q0 -83 -64 -131.5t-176 -48.5z" />
    <glyph glyph-name="germandbls" unicode="&#xdf;" horiz-adv-x="533" 
d="M403 247q67 -40 88.5 -70.5t21.5 -70.5q0 -52 -44 -84t-111 -32q-29 0 -57 5.5t-53 15.5l-17 135h8q28 -77 57.5 -110.5t73.5 -33.5q27 0 45.5 15.5t18.5 38.5q0 21 -14 39.5t-63 49.5q-69 44 -91.5 80t-22.5 82q0 29 15.5 59t57.5 77q24 28 35 57t11 64q0 47 -24 73
t-67 26q-52 0 -74.5 -36t-22.5 -117v-510h-154v12h36q6 0 9.5 3.5t3.5 9.5v280h-54v8l54 38v46q0 140 59 211.5t174 71.5q68 0 108 -27.5t40 -72.5q0 -15 -7.5 -29.5t-24.5 -31.5q-9 -9 -27 -25t-26 -23q-34 -32 -47.5 -56t-13.5 -49q0 -32 18.5 -57t80.5 -62z" />
    <glyph glyph-name="agrave" unicode="&#xe0;" horiz-adv-x="389" 
d="M222 51q-27 -31 -55 -46t-59 -15q-36 0 -60 21t-24 54q0 29 22 50t66 34l109 32v69q0 42 -19 66.5t-53 24.5q-14 0 -25.5 -3.5t-19.5 -10.5q-7 -7 -10.5 -15t-3.5 -20t2 -26t8 -37q-10 -5 -25 -8.5t-23 -3.5q-12 0 -20 8.5t-8 22.5q0 37 63.5 80.5t121.5 43.5
q46 0 81.5 -27.5t35.5 -66.5v-188q0 -21 6.5 -31.5t20.5 -10.5q7 0 15 3t17 8l4 -5q-18 -31 -42.5 -47.5t-51.5 -16.5q-30 0 -50 16.5t-23 44.5zM128 95q0 -21 14 -33t39 -12q11 0 21.5 3t18.5 9v110l-17 -8q-45 -20 -60.5 -34t-15.5 -35zM149 582l62 -169l-8 -4l-88 161
q-7 14 -8.5 18.5t-1.5 8.5q0 7 5 11.5t12 4.5q8 0 14.5 -7.5t12.5 -23.5z" />
    <glyph glyph-name="aacute" unicode="&#xe1;" horiz-adv-x="389" 
d="M222 51q-27 -31 -55 -46t-59 -15q-36 0 -60 21t-24 54q0 29 22 50t66 34l109 32v69q0 42 -19 66.5t-53 24.5q-14 0 -25.5 -3.5t-19.5 -10.5q-7 -7 -10.5 -15t-3.5 -20t2 -26t8 -37q-10 -5 -25 -8.5t-23 -3.5q-12 0 -20 8.5t-8 22.5q0 37 63.5 80.5t121.5 43.5
q46 0 81.5 -27.5t35.5 -66.5v-188q0 -21 6.5 -31.5t20.5 -10.5q7 0 15 3t17 8l4 -5q-18 -31 -42.5 -47.5t-51.5 -16.5q-30 0 -50 16.5t-23 44.5zM128 95q0 -21 14 -33t39 -12q11 0 21.5 3t18.5 9v110l-17 -8q-45 -20 -60.5 -34t-15.5 -35zM194 409l-8 4l62 169
q6 16 12.5 23.5t14.5 7.5q7 0 12 -4.5t5 -11.5q0 -4 -1.5 -8.5t-8.5 -18.5z" />
    <glyph glyph-name="acircumflex" unicode="&#xe2;" horiz-adv-x="389" 
d="M222 51q-27 -31 -55 -46t-59 -15q-36 0 -60 21t-24 54q0 29 22 50t66 34l109 32v69q0 42 -19 66.5t-53 24.5q-14 0 -25.5 -3.5t-19.5 -10.5q-7 -7 -10.5 -15t-3.5 -20t2 -26t8 -37q-10 -5 -25 -8.5t-23 -3.5q-12 0 -20 8.5t-8 22.5q0 37 63.5 80.5t121.5 43.5
q46 0 81.5 -27.5t35.5 -66.5v-188q0 -21 6.5 -31.5t20.5 -10.5q7 0 15 3t17 8l4 -5q-18 -31 -42.5 -47.5t-51.5 -16.5q-30 0 -50 16.5t-23 44.5zM128 95q0 -21 14 -33t39 -12q11 0 21.5 3t18.5 9v110l-17 -8q-45 -20 -60.5 -34t-15.5 -35zM222 590l84 -175l-8 -5l-103 160
h-1l-103 -160l-8 5l84 175q6 12 12.5 17.5t15.5 5.5t15 -5t12 -18z" />
    <glyph glyph-name="atilde" unicode="&#xe3;" horiz-adv-x="389" 
d="M222 51q-27 -31 -55 -46t-59 -15q-36 0 -60 21t-24 54q0 29 22 50t66 34l109 32v69q0 42 -19 66.5t-53 24.5q-14 0 -25.5 -3.5t-19.5 -10.5q-7 -7 -10.5 -15t-3.5 -20t2 -26t8 -37q-10 -5 -25 -8.5t-23 -3.5q-12 0 -20 8.5t-8 22.5q0 37 63.5 80.5t121.5 43.5
q46 0 81.5 -27.5t35.5 -66.5v-188q0 -21 6.5 -31.5t20.5 -10.5q7 0 15 3t17 8l4 -5q-18 -31 -42.5 -47.5t-51.5 -16.5q-30 0 -50 16.5t-23 44.5zM128 95q0 -21 14 -33t39 -12q11 0 21.5 3t18.5 9v110l-17 -8q-45 -20 -60.5 -34t-15.5 -35zM261 481q-7 0 -19 3t-41 12
q-30 11 -43 14t-22 3q-11 0 -18 -5t-17 -25l-21 -41l-8 3l18 56q9 28 21 39.5t31 11.5q7 0 19 -3t41 -12q30 -11 43 -14t22 -3q12 0 20 6.5t17 25.5l20 40l8 -3l-19 -55q-10 -30 -21.5 -41.5t-30.5 -11.5z" />
    <glyph glyph-name="adieresis" unicode="&#xe4;" horiz-adv-x="389" 
d="M222 51q-27 -31 -55 -46t-59 -15q-36 0 -60 21t-24 54q0 29 22 50t66 34l109 32v69q0 42 -19 66.5t-53 24.5q-14 0 -25.5 -3.5t-19.5 -10.5q-7 -7 -10.5 -15t-3.5 -20t2 -26t8 -37q-10 -5 -25 -8.5t-23 -3.5q-12 0 -20 8.5t-8 22.5q0 37 63.5 80.5t121.5 43.5
q46 0 81.5 -27.5t35.5 -66.5v-188q0 -21 6.5 -31.5t20.5 -10.5q7 0 15 3t17 8l4 -5q-18 -31 -42.5 -47.5t-51.5 -16.5q-30 0 -50 16.5t-23 44.5zM128 95q0 -21 14 -33t39 -12q11 0 21.5 3t18.5 9v110l-17 -8q-45 -20 -60.5 -34t-15.5 -35zM159 542q0 -15 -10 -25t-25 -10
t-24.5 9.5t-9.5 25.5q0 15 9.5 24.5t24.5 9.5t25 -10t10 -24zM309 542q0 -15 -10 -25t-25 -10t-24.5 9.5t-9.5 25.5q0 15 9.5 24.5t24.5 9.5t25 -10t10 -24z" />
    <glyph glyph-name="aring" unicode="&#xe5;" horiz-adv-x="389" 
d="M222 51q-27 -31 -55 -46t-59 -15q-36 0 -60 21t-24 54q0 29 22 50t66 34l109 32v69q0 42 -19 66.5t-53 24.5q-14 0 -25.5 -3.5t-19.5 -10.5q-7 -7 -10.5 -15t-3.5 -20t2 -26t8 -37q-10 -5 -25 -8.5t-23 -3.5q-12 0 -20 8.5t-8 22.5q0 37 63.5 80.5t121.5 43.5
q46 0 81.5 -27.5t35.5 -66.5v-188q0 -21 6.5 -31.5t20.5 -10.5q7 0 15 3t17 8l4 -5q-18 -31 -42.5 -47.5t-51.5 -16.5q-30 0 -50 16.5t-23 44.5zM128 95q0 -21 14 -33t39 -12q11 0 21.5 3t18.5 9v110l-17 -8q-45 -20 -60.5 -34t-15.5 -35zM201 586q36 0 61.5 -20.5
t25.5 -52.5q0 -35 -25.5 -57.5t-63.5 -22.5q-39 0 -63.5 20t-24.5 53q0 36 25.5 58t64.5 22zM202 449q26 0 39.5 15.5t13.5 44.5q0 26 -16 44t-42 18q-25 0 -39.5 -17t-14.5 -44q0 -26 16.5 -43.5t42.5 -17.5z" />
    <glyph glyph-name="ae" unicode="&#xe6;" horiz-adv-x="578" 
d="M251 64q-30 -35 -67.5 -54.5t-75.5 -19.5q-36 0 -60 21t-24 54q0 29 22 50t66 34l109 32v69q0 42 -19 66.5t-53 24.5q-14 0 -25.5 -3.5t-19.5 -10.5q-7 -7 -10.5 -15t-3.5 -20t2 -26t8 -37q-10 -5 -25 -8.5t-23 -3.5q-12 0 -20 8.5t-8 22.5q0 37 63.5 80.5t121.5 43.5
q28 0 52 -11t40 -32q22 19 53.5 31t60.5 12q67 0 106 -30t40 -84l-1 -3h-231q-1 -5 -1 -11v-18q0 -79 36.5 -121t104.5 -42q26 0 50 11t44 31l5 -4q-20 -52 -65 -81.5t-105 -29.5q-48 0 -86 19t-61 55zM467 286q0 33 -17.5 53.5t-44.5 20.5q-31 0 -50 -23.5t-25 -69.5h122
q8 0 11.5 4.5t3.5 14.5zM128 95q0 -21 14 -33t39 -12q16 0 33 6t31 18q-12 22 -18 47t-6 51l-17 -8q-45 -20 -60.5 -34t-15.5 -35z" />
    <glyph glyph-name="ccedilla" unicode="&#xe7;" horiz-adv-x="366" 
d="M234 -66q32 -23 44.5 -41.5t12.5 -37.5q0 -33 -31.5 -54.5t-74.5 -21.5q-20 0 -30 6t-10 18q0 6 3.5 11.5t13.5 16.5q17 -18 31.5 -26t33.5 -8q17 0 28 11t11 28t-9.5 31.5t-38.5 35.5q-19 14 -24.5 21t-5.5 14q0 5 3 10t10 9l61 42q-14 -4 -30.5 -6.5t-32.5 -2.5
q-76 0 -125 51.5t-49 133.5q0 89 59.5 143t149.5 54q49 0 81 -13.5t32 -33.5q0 -9 -8.5 -22.5t-30.5 -38.5q-39 52 -63 73t-44 21q-32 0 -49 -36t-17 -103q0 -72 36 -114t97 -42q26 0 50 11t44 31l5 -4q-11 -27 -24 -44t-39 -37l-74 -57q-9 -7 -11 -9t-2 -4t3 -5t14 -11z
" />
    <glyph glyph-name="egrave" unicode="&#xe8;" horiz-adv-x="382" 
d="M202 -10q-80 0 -128.5 50.5t-48.5 137.5q0 88 55 141t139 53q67 0 106 -30t40 -84l-1 -3h-231q-1 -5 -1 -11v-18q0 -79 36.5 -121t104.5 -42q26 0 50 11t44 31l5 -4q-20 -52 -65 -81.5t-105 -29.5zM271 286q0 33 -17.5 53.5t-44.5 20.5q-31 0 -50 -23.5t-25 -69.5h122
q8 0 11.5 4.5t3.5 14.5zM166 582l62 -169l-8 -4l-88 161q-7 14 -8.5 18.5t-1.5 8.5q0 7 5 11.5t12 4.5q8 0 14.5 -7.5t12.5 -23.5z" />
    <glyph glyph-name="eacute" unicode="&#xe9;" horiz-adv-x="382" 
d="M202 -10q-80 0 -128.5 50.5t-48.5 137.5q0 88 55 141t139 53q67 0 106 -30t40 -84l-1 -3h-231q-1 -5 -1 -11v-18q0 -79 36.5 -121t104.5 -42q26 0 50 11t44 31l5 -4q-20 -52 -65 -81.5t-105 -29.5zM271 286q0 33 -17.5 53.5t-44.5 20.5q-31 0 -50 -23.5t-25 -69.5h122
q8 0 11.5 4.5t3.5 14.5zM228 409l-8 4l62 169q6 16 12.5 23.5t14.5 7.5q7 0 12 -4.5t5 -11.5q0 -4 -1.5 -8.5t-8.5 -18.5z" />
    <glyph glyph-name="ecircumflex" unicode="&#xea;" horiz-adv-x="382" 
d="M202 -10q-80 0 -128.5 50.5t-48.5 137.5q0 88 55 141t139 53q67 0 106 -30t40 -84l-1 -3h-231q-1 -5 -1 -11v-18q0 -79 36.5 -121t104.5 -42q26 0 50 11t44 31l5 -4q-20 -52 -65 -81.5t-105 -29.5zM271 286q0 33 -17.5 53.5t-44.5 20.5q-31 0 -50 -23.5t-25 -69.5h122
q8 0 11.5 4.5t3.5 14.5zM250 590l84 -175l-8 -5l-103 160h-1l-103 -160l-8 5l84 175q6 12 12.5 17.5t15.5 5.5t15 -5t12 -18z" />
    <glyph glyph-name="edieresis" unicode="&#xeb;" horiz-adv-x="382" 
d="M202 -10q-80 0 -128.5 50.5t-48.5 137.5q0 88 55 141t139 53q67 0 106 -30t40 -84l-1 -3h-231q-1 -5 -1 -11v-18q0 -79 36.5 -121t104.5 -42q26 0 50 11t44 31l5 -4q-20 -52 -65 -81.5t-105 -29.5zM271 286q0 33 -17.5 53.5t-44.5 20.5q-31 0 -50 -23.5t-25 -69.5h122
q8 0 11.5 4.5t3.5 14.5zM185 542q0 -15 -10 -25t-25 -10t-24.5 9.5t-9.5 25.5q0 15 9.5 24.5t24.5 9.5t25 -10t10 -24zM335 542q0 -15 -10 -25t-25 -10t-24.5 9.5t-9.5 25.5q0 15 9.5 24.5t24.5 9.5t25 -10t10 -24z" />
    <glyph glyph-name="igrave" unicode="&#xec;" horiz-adv-x="229" 
d="M220 12v-12h-203v12h36q6 0 9.5 3.5t3.5 9.5v264l-44 27v6l149 50l4 -3l-4 -70v-274q0 -6 3.5 -9.5t9.5 -3.5h36zM65 582l62 -169l-8 -4l-88 161q-7 14 -8.5 18.5t-1.5 8.5q0 7 5 11.5t12 4.5q8 0 14.5 -7.5t12.5 -23.5z" />
    <glyph glyph-name="iacute" unicode="&#xed;" horiz-adv-x="229" 
d="M220 12v-12h-203v12h36q6 0 9.5 3.5t3.5 9.5v264l-44 27v6l149 50l4 -3l-4 -70v-274q0 -6 3.5 -9.5t9.5 -3.5h36zM127 409l-8 4l62 169q6 16 12.5 23.5t14.5 7.5q7 0 12 -4.5t5 -11.5q0 -4 -1.5 -8.5t-8.5 -18.5z" />
    <glyph glyph-name="icircumflex" unicode="&#xee;" horiz-adv-x="229" 
d="M220 12v-12h-203v12h36q6 0 9.5 3.5t3.5 9.5v264l-44 27v6l149 50l4 -3l-4 -70v-274q0 -6 3.5 -9.5t9.5 -3.5h36zM129 590l84 -175l-8 -5l-103 160h-1l-103 -160l-8 5l84 175q6 12 12.5 17.5t15.5 5.5t15 -5t12 -18z" />
    <glyph glyph-name="idieresis" unicode="&#xef;" horiz-adv-x="229" 
d="M220 12v-12h-203v12h36q6 0 9.5 3.5t3.5 9.5v264l-44 27v6l149 50l4 -3l-4 -70v-274q0 -6 3.5 -9.5t9.5 -3.5h36zM84 542q0 -15 -10 -25t-25 -10t-24.5 9.5t-9.5 25.5q0 15 9.5 24.5t24.5 9.5t25 -10t10 -24zM234 542q0 -15 -10 -25t-25 -10t-24.5 9.5t-9.5 25.5
q0 15 9.5 24.5t24.5 9.5t25 -10t10 -24z" />
    <glyph glyph-name="eth" unicode="&#xf0;" horiz-adv-x="465" 
d="M430 251q0 -122 -55 -191.5t-149 -69.5q-90 0 -146 50t-56 136q0 84 60.5 140t144.5 56q19 0 36.5 -3.5t34.5 -9.5q-12 62 -30.5 113t-43.5 92l-131 -67l-9 17l129 66q-22 31 -48 53.5t-56 37.5l4 9q41 -14 77.5 -33.5t68.5 -43.5l124 63l9 -17l-116 -59q74 -62 113 -149
t39 -190zM230 2q43 0 64.5 43t21.5 129q0 87 -24.5 136.5t-67.5 49.5t-64.5 -42t-21.5 -127q0 -90 24 -139.5t68 -49.5z" />
    <glyph glyph-name="ntilde" unicode="&#xf1;" horiz-adv-x="465" 
d="M220 12v-12h-203v12h36q6 0 9.5 3.5t3.5 9.5v264l-44 27v6l149 50l4 -3l-4 -65q31 31 65 49.5t62 18.5q53 0 81 -32t28 -92v-223q0 -6 3.5 -9.5t9.5 -3.5h36v-12h-203v12h36q6 0 9.5 3.5t3.5 9.5v202q0 42 -17 64t-49 22q-16 0 -32 -4.5t-33 -14.5v-269q0 -6 3.5 -9.5
t9.5 -3.5h36zM291 481q-7 0 -19 3t-41 12q-30 11 -43 14t-22 3q-11 0 -18 -5t-17 -25l-21 -41l-8 3l18 56q9 28 21 39.5t31 11.5q7 0 19 -3t41 -12q30 -11 43 -14t22 -3q12 0 20 6.5t17 25.5l20 40l8 -3l-19 -55q-10 -30 -21.5 -41.5t-30.5 -11.5z" />
    <glyph glyph-name="ograve" unicode="&#xf2;" horiz-adv-x="453" 
d="M429 186q0 -85 -59.5 -140.5t-144.5 -55.5q-89 0 -145 50t-56 136q0 84 60 140t144 56q89 0 145 -50t56 -136zM138 191q0 -90 24 -139.5t67 -49.5t64.5 42.5t21.5 126.5q0 90 -24 139.5t-67 49.5t-64.5 -42.5t-21.5 -126.5zM175 582l62 -169l-8 -4l-88 161
q-7 14 -8.5 18.5t-1.5 8.5q0 7 5 11.5t12 4.5q8 0 14.5 -7.5t12.5 -23.5z" />
    <glyph glyph-name="oacute" unicode="&#xf3;" horiz-adv-x="453" 
d="M429 186q0 -85 -59.5 -140.5t-144.5 -55.5q-89 0 -145 50t-56 136q0 84 60 140t144 56q89 0 145 -50t56 -136zM138 191q0 -90 24 -139.5t67 -49.5t64.5 42.5t21.5 126.5q0 90 -24 139.5t-67 49.5t-64.5 -42.5t-21.5 -126.5zM237 409l-8 4l62 169q6 16 12.5 23.5t14.5 7.5
q7 0 12 -4.5t5 -11.5q0 -4 -1.5 -8.5t-8.5 -18.5z" />
    <glyph glyph-name="ocircumflex" unicode="&#xf4;" horiz-adv-x="453" 
d="M429 186q0 -85 -59.5 -140.5t-144.5 -55.5q-89 0 -145 50t-56 136q0 84 60 140t144 56q89 0 145 -50t56 -136zM138 191q0 -90 24 -139.5t67 -49.5t64.5 42.5t21.5 126.5q0 90 -24 139.5t-67 49.5t-64.5 -42.5t-21.5 -126.5zM259 590l84 -175l-8 -5l-103 160h-1l-103 -160
l-8 5l84 175q6 12 12.5 17.5t15.5 5.5t15 -5t12 -18z" />
    <glyph glyph-name="otilde" unicode="&#xf5;" horiz-adv-x="453" 
d="M429 186q0 -85 -59.5 -140.5t-144.5 -55.5q-89 0 -145 50t-56 136q0 84 60 140t144 56q89 0 145 -50t56 -136zM138 191q0 -90 24 -139.5t67 -49.5t64.5 42.5t21.5 126.5q0 90 -24 139.5t-67 49.5t-64.5 -42.5t-21.5 -126.5zM294 481q-7 0 -19 3t-41 12q-30 11 -43 14
t-22 3q-11 0 -18 -5t-17 -25l-21 -41l-8 3l18 56q9 28 21 39.5t31 11.5q7 0 19 -3t41 -12q30 -11 43 -14t22 -3q12 0 20 6.5t17 25.5l20 40l8 -3l-19 -55q-10 -30 -21.5 -41.5t-30.5 -11.5z" />
    <glyph glyph-name="odieresis" unicode="&#xf6;" horiz-adv-x="453" 
d="M429 186q0 -85 -59.5 -140.5t-144.5 -55.5q-89 0 -145 50t-56 136q0 84 60 140t144 56q89 0 145 -50t56 -136zM138 191q0 -90 24 -139.5t67 -49.5t64.5 42.5t21.5 126.5q0 90 -24 139.5t-67 49.5t-64.5 -42.5t-21.5 -126.5zM194 542q0 -15 -10 -25t-25 -10t-24.5 9.5
t-9.5 25.5q0 15 9.5 24.5t24.5 9.5t25 -10t10 -24zM344 542q0 -15 -10 -25t-25 -10t-24.5 9.5t-9.5 25.5q0 15 9.5 24.5t24.5 9.5t25 -10t10 -24z" />
    <glyph glyph-name="divide" unicode="&#xf7;" horiz-adv-x="500" 
d="M280 385q0 -13 -8.5 -22t-21.5 -9t-21.5 9t-8.5 22q0 12 8.5 20.5t21.5 8.5t21.5 -8.5t8.5 -20.5zM433 252v-28h-366v28h366zM280 91q0 -13 -8.5 -21.5t-21.5 -8.5q-12 0 -21 9t-9 21q0 13 8.5 21.5t21.5 8.5t21.5 -8.5t8.5 -21.5z" />
    <glyph glyph-name="oslash" unicode="&#xf8;" horiz-adv-x="453" 
d="M81 39l-44 -39l-13 14l43 39q-21 24 -32 55t-11 68q0 84 60 140t144 56q43 0 80 -12.5t64 -36.5l44 39l13 -14l-43 -38q21 -25 32 -56t11 -68q0 -85 -59.5 -140.5t-144.5 -55.5q-42 0 -79.5 12.5t-64.5 36.5zM224 360q-43 0 -64.5 -42.5t-21.5 -126.5q0 -18 1 -35.5
t4 -36.5l163 145q-10 47 -31 71.5t-51 24.5zM229 2q43 0 64.5 42.5t21.5 126.5q0 18 -1 35.5t-4 36.5l-163 -145q10 -47 31 -71.5t51 -24.5z" />
    <glyph glyph-name="ugrave" unicode="&#xf9;" horiz-adv-x="454" 
d="M167 -10q-53 0 -81 32t-28 92v175l-44 27v6l149 50l4 -3l-4 -70v-164q0 -42 17 -64t49 -22q15 0 28.5 4.5t30.5 14.5v221l-44 27v6l149 50l4 -3l-4 -70v-226l44 -27v-6l-149 -50l-4 3l4 65q-32 -33 -63 -50.5t-58 -17.5zM158 582l62 -169l-8 -4l-88 161q-7 14 -8.5 18.5
t-1.5 8.5q0 7 5 11.5t12 4.5q8 0 14.5 -7.5t12.5 -23.5z" />
    <glyph glyph-name="uacute" unicode="&#xfa;" horiz-adv-x="454" 
d="M167 -10q-53 0 -81 32t-28 92v175l-44 27v6l149 50l4 -3l-4 -70v-164q0 -42 17 -64t49 -22q15 0 28.5 4.5t30.5 14.5v221l-44 27v6l149 50l4 -3l-4 -70v-226l44 -27v-6l-149 -50l-4 3l4 65q-32 -33 -63 -50.5t-58 -17.5zM220 409l-8 4l62 169q6 16 12.5 23.5t14.5 7.5
q7 0 12 -4.5t5 -11.5q0 -4 -1.5 -8.5t-8.5 -18.5z" />
    <glyph glyph-name="ucircumflex" unicode="&#xfb;" horiz-adv-x="454" 
d="M167 -10q-53 0 -81 32t-28 92v175l-44 27v6l149 50l4 -3l-4 -70v-164q0 -42 17 -64t49 -22q15 0 28.5 4.5t30.5 14.5v221l-44 27v6l149 50l4 -3l-4 -70v-226l44 -27v-6l-149 -50l-4 3l4 65q-32 -33 -63 -50.5t-58 -17.5zM242 590l84 -175l-8 -5l-103 160h-1l-103 -160
l-8 5l84 175q6 12 12.5 17.5t15.5 5.5t15 -5t12 -18z" />
    <glyph glyph-name="udieresis" unicode="&#xfc;" horiz-adv-x="454" 
d="M167 -10q-53 0 -81 32t-28 92v175l-44 27v6l149 50l4 -3l-4 -70v-164q0 -42 17 -64t49 -22q15 0 28.5 4.5t30.5 14.5v221l-44 27v6l149 50l4 -3l-4 -70v-226l44 -27v-6l-149 -50l-4 3l4 65q-32 -33 -63 -50.5t-58 -17.5zM177 542q0 -15 -10 -25t-25 -10t-24.5 9.5
t-9.5 25.5q0 15 9.5 24.5t24.5 9.5t25 -10t10 -24zM327 542q0 -15 -10 -25t-25 -10t-24.5 9.5t-9.5 25.5q0 15 9.5 24.5t24.5 9.5t25 -10t10 -24z" />
    <glyph glyph-name="yacute" unicode="&#xfd;" horiz-adv-x="409" 
d="M86 -280q-14 0 -23.5 9.5t-19.5 30.5q49 24 67.5 42.5t41.5 66.5l44 92l-155 366q-5 13 -10 18t-14 5h-17v12h207v-12h-38q-8 0 -11.5 -5.5t-0.5 -13.5l93 -224h2l86 223q3 9 0.5 14.5t-10.5 5.5h-38v12h119v-12h-23q-8 0 -14.5 -5.5t-10.5 -16.5l-204 -500
q-25 -63 -40 -85.5t-31 -22.5zM229 409l-8 4l62 169q6 16 12.5 23.5t14.5 7.5q7 0 12 -4.5t5 -11.5q0 -4 -1.5 -8.5t-8.5 -18.5z" />
    <glyph glyph-name="thorn" unicode="&#xfe;" horiz-adv-x="472" 
d="M447 202q0 -96 -61.5 -154t-159.5 -58q-15 0 -30 1.5t-28 4.5v-241q0 -6 3.5 -9.5t9.5 -3.5h56v-12h-223v12h36q6 0 9.5 3.5t3.5 9.5v842l-44 27v6l149 50l4 -3l-4 -70v-303q34 34 67.5 51t65.5 17q67 0 106.5 -45.5t39.5 -124.5zM168 294v-193q0 -48 18.5 -73.5
t53.5 -25.5q45 0 71 41.5t26 113.5q0 74 -27.5 115t-75.5 41q-19 0 -35.5 -5t-30.5 -14z" />
    <glyph glyph-name="ydieresis" unicode="&#xff;" horiz-adv-x="409" 
d="M86 -280q-14 0 -23.5 9.5t-19.5 30.5q49 24 67.5 42.5t41.5 66.5l44 92l-155 366q-5 13 -10 18t-14 5h-17v12h207v-12h-38q-8 0 -11.5 -5.5t-0.5 -13.5l93 -224h2l86 223q3 9 0.5 14.5t-10.5 5.5h-38v12h119v-12h-23q-8 0 -14.5 -5.5t-10.5 -16.5l-204 -500
q-25 -63 -40 -85.5t-31 -22.5zM186 542q0 -15 -10 -25t-25 -10t-24.5 9.5t-9.5 25.5q0 15 9.5 24.5t24.5 9.5t25 -10t10 -24zM336 542q0 -15 -10 -25t-25 -10t-24.5 9.5t-9.5 25.5q0 15 9.5 24.5t24.5 9.5t25 -10t10 -24z" />
    <glyph glyph-name="Amacron" unicode="&#x100;" horiz-adv-x="553" 
d="M136 12v-12h-131v12h19q7 0 11.5 4.5t9.5 16.5l220 547h11l231 -545q7 -16 11.5 -19.5t12.5 -3.5h17v-12h-226v12h54q7 0 9.5 5.5t-1.5 13.5l-48 114h-220l-43 -113q-3 -9 -1 -14.5t10 -5.5h54zM220 421l-81 -214h171zM375 678h-208v35h208v-35z" />
    <glyph glyph-name="amacron" unicode="&#x101;" horiz-adv-x="389" 
d="M222 51q-27 -31 -55 -46t-59 -15q-36 0 -60 21t-24 54q0 29 22 50t66 34l109 32v69q0 42 -19 66.5t-53 24.5q-14 0 -25.5 -3.5t-19.5 -10.5q-7 -7 -10.5 -15t-3.5 -20t2 -26t8 -37q-10 -5 -25 -8.5t-23 -3.5q-12 0 -20 8.5t-8 22.5q0 37 63.5 80.5t121.5 43.5
q46 0 81.5 -27.5t35.5 -66.5v-188q0 -21 6.5 -31.5t20.5 -10.5q7 0 15 3t17 8l4 -5q-18 -31 -42.5 -47.5t-51.5 -16.5q-30 0 -50 16.5t-23 44.5zM128 95q0 -21 14 -33t39 -12q11 0 21.5 3t18.5 9v110l-17 -8q-45 -20 -60.5 -34t-15.5 -35zM323 513h-248v35h248v-35z" />
    <glyph glyph-name="Abreve" unicode="&#x102;" horiz-adv-x="553" 
d="M136 12v-12h-131v12h19q7 0 11.5 4.5t9.5 16.5l220 547h11l231 -545q7 -16 11.5 -19.5t12.5 -3.5h17v-12h-226v12h54q7 0 9.5 5.5t-1.5 13.5l-48 114h-220l-43 -113q-3 -9 -1 -14.5t10 -5.5h54zM220 421l-81 -214h171zM271 620q-44 0 -69.5 30.5t-32.5 91.5l10 1
q9 -44 30.5 -63t61.5 -19t62 19.5t30 62.5l10 -1q-6 -60 -31.5 -91t-70.5 -31z" />
    <glyph glyph-name="abreve" unicode="&#x103;" horiz-adv-x="389" 
d="M222 51q-27 -31 -55 -46t-59 -15q-36 0 -60 21t-24 54q0 29 22 50t66 34l109 32v69q0 42 -19 66.5t-53 24.5q-14 0 -25.5 -3.5t-19.5 -10.5q-7 -7 -10.5 -15t-3.5 -20t2 -26t8 -37q-10 -5 -25 -8.5t-23 -3.5q-12 0 -20 8.5t-8 22.5q0 37 63.5 80.5t121.5 43.5
q46 0 81.5 -27.5t35.5 -66.5v-188q0 -21 6.5 -31.5t20.5 -10.5q7 0 15 3t17 8l4 -5q-18 -31 -42.5 -47.5t-51.5 -16.5q-30 0 -50 16.5t-23 44.5zM128 95q0 -21 14 -33t39 -12q11 0 21.5 3t18.5 9v110l-17 -8q-45 -20 -60.5 -34t-15.5 -35zM199 428q-50 0 -80.5 39t-37.5 111
l10 1q8 -56 34 -83t74 -27t74 27t34 83l10 -1q-7 -72 -37.5 -111t-80.5 -39z" />
    <glyph glyph-name="Aogonek" unicode="&#x104;" horiz-adv-x="553" 
d="M136 12v-12h-131v12h19q7 0 11.5 4.5t9.5 16.5l220 547h11l231 -545q7 -16 11.5 -19.5t12.5 -3.5h17v-12h-61q-37 -48 -49 -74t-12 -54q0 -27 16 -44t43 -17q16 0 30.5 5t26.5 15l6 -6q-13 -20 -34.5 -33t-43.5 -13q-35 0 -58 20.5t-23 52.5q0 29 17 62.5t62 85.5h-146
v12h54q7 0 9.5 5.5t-1.5 13.5l-48 114h-220l-43 -113q-3 -9 -1 -14.5t10 -5.5h54zM220 421l-81 -214h171z" />
    <glyph glyph-name="aogonek" unicode="&#x105;" horiz-adv-x="389" 
d="M222 51q-27 -31 -55 -46t-59 -15q-36 0 -60 21t-24 54q0 29 22 50t66 34l109 32v69q0 42 -19 66.5t-53 24.5q-14 0 -25.5 -3.5t-19.5 -10.5q-7 -7 -10.5 -15t-3.5 -20t2 -26t8 -37q-10 -5 -25 -8.5t-23 -3.5q-12 0 -20 8.5t-8 22.5q0 37 63.5 80.5t121.5 43.5
q46 0 81.5 -27.5t35.5 -66.5v-188q0 -21 6.5 -31.5t20.5 -10.5q7 0 15 3t17 8l4 -5q-7 -13 -17.5 -24.5t-27.5 -25.5q-39 -32 -58 -64t-19 -68q0 -27 16 -44t43 -17q16 0 30.5 5t26.5 15l6 -6q-13 -20 -34.5 -33t-43.5 -13q-35 0 -58 20.5t-23 52.5t19.5 67.5t56.5 70.5
q-36 -1 -58.5 15t-25.5 46zM128 95q0 -21 14 -33t39 -12q11 0 21.5 3t18.5 9v110l-17 -8q-45 -20 -60.5 -34t-15.5 -35z" />
    <glyph glyph-name="Cacute" unicode="&#x106;" horiz-adv-x="618" 
d="M355 -10q-144 0 -229 78t-85 210t91 217t231 85q51 0 104.5 -15.5t89.5 -40.5v-140h-8l-7 34q-13 70 -61.5 110t-117.5 40q-94 0 -144 -71.5t-50 -203.5q0 -135 55.5 -213t151.5 -78q67 0 110.5 32t63.5 95l12 38h8l-5 -123q-32 -24 -91 -39t-119 -15zM381 619l-8 4
l35 108q6 18 12 25t14 7q7 0 11.5 -4t4.5 -11q0 -6 -2.5 -13.5t-7.5 -14.5z" />
    <glyph glyph-name="cacute" unicode="&#x107;" horiz-adv-x="366" 
d="M199 -10q-76 0 -125 51.5t-49 133.5q0 89 59.5 143t149.5 54q49 0 81 -13.5t32 -33.5q0 -9 -8.5 -22.5t-30.5 -38.5q-39 52 -63 73t-44 21q-30 0 -48 -38t-18 -101q0 -72 36 -114t97 -42q26 0 50 11t44 31l5 -4q-19 -51 -64 -81t-104 -30zM218 409l-8 4l62 169
q6 16 12.5 23.5t14.5 7.5q7 0 12 -4.5t5 -11.5q0 -4 -1.5 -8.5t-8.5 -18.5z" />
    <glyph glyph-name="Ccircumflex" unicode="&#x108;" horiz-adv-x="618" 
d="M355 -10q-144 0 -229 78t-85 210t91 217t231 85q51 0 104.5 -15.5t89.5 -40.5v-140h-8l-7 34q-13 70 -61.5 110t-117.5 40q-94 0 -144 -71.5t-50 -203.5q0 -135 55.5 -213t151.5 -78q67 0 110.5 32t63.5 95l12 38h8l-5 -123q-32 -24 -91 -39t-119 -15zM400 744l77 -119
l-8 -5l-96 105h-1l-96 -105l-8 5l77 119q7 11 13 15t14 4t14.5 -4.5t13.5 -14.5z" />
    <glyph glyph-name="ccircumflex" unicode="&#x109;" horiz-adv-x="366" 
d="M199 -10q-76 0 -125 51.5t-49 133.5q0 89 59.5 143t149.5 54q49 0 81 -13.5t32 -33.5q0 -9 -8.5 -22.5t-30.5 -38.5q-39 52 -63 73t-44 21q-30 0 -48 -38t-18 -101q0 -72 36 -114t97 -42q26 0 50 11t44 31l5 -4q-19 -51 -64 -81t-104 -30zM240 590l84 -175l-8 -5
l-103 160h-1l-103 -160l-8 5l84 175q6 12 12.5 17.5t15.5 5.5t15 -5t12 -18z" />
    <glyph glyph-name="Cdotaccent" unicode="&#x10a;" horiz-adv-x="618" 
d="M355 -10q-144 0 -229 78t-85 210t91 217t231 85q51 0 104.5 -15.5t89.5 -40.5v-140h-8l-7 34q-13 70 -61.5 110t-117.5 40q-94 0 -144 -71.5t-50 -203.5q0 -135 55.5 -213t151.5 -78q67 0 110.5 32t63.5 95l12 38h8l-5 -123q-32 -24 -91 -39t-119 -15zM415 697
q0 -17 -11 -28t-28 -11t-27.5 11t-10.5 28q0 16 11 27t27 11t27.5 -11t11.5 -27z" />
    <glyph glyph-name="cdotaccent" unicode="&#x10b;" horiz-adv-x="366" 
d="M199 -10q-76 0 -125 51.5t-49 133.5q0 89 59.5 143t149.5 54q49 0 81 -13.5t32 -33.5q0 -9 -8.5 -22.5t-30.5 -38.5q-39 52 -63 73t-44 21q-30 0 -48 -38t-18 -101q0 -72 36 -114t97 -42q26 0 50 11t44 31l5 -4q-19 -51 -64 -81t-104 -30zM251 542q0 -15 -10 -25t-25 -10
t-24.5 9.5t-9.5 25.5q0 15 9.5 24.5t24.5 9.5t25 -10t10 -24z" />
    <glyph glyph-name="Ccaron" unicode="&#x10c;" horiz-adv-x="618" 
d="M355 -10q-144 0 -229 78t-85 210t91 217t231 85q51 0 104.5 -15.5t89.5 -40.5v-140h-8l-7 34q-13 70 -61.5 110t-117.5 40q-94 0 -144 -71.5t-50 -203.5q0 -135 55.5 -213t151.5 -78q67 0 110.5 32t63.5 95l12 38h8l-5 -123q-32 -24 -91 -39t-119 -15zM470 761l8 -5
l-77 -119q-7 -10 -13.5 -14.5t-14.5 -4.5t-14 4t-13 15l-77 119l8 5l96 -105h1z" />
    <glyph glyph-name="ccaron" unicode="&#x10d;" horiz-adv-x="366" 
d="M199 -10q-76 0 -125 51.5t-49 133.5q0 89 59.5 143t149.5 54q49 0 81 -13.5t32 -33.5q0 -9 -8.5 -22.5t-30.5 -38.5q-39 52 -63 73t-44 21q-30 0 -48 -38t-18 -101q0 -72 36 -114t97 -42q26 0 50 11t44 31l5 -4q-19 -51 -64 -81t-104 -30zM185 431l-84 175l8 5l103 -160
h1l103 160l8 -5l-84 -175q-6 -12 -12.5 -17.5t-15.5 -5.5t-15 5t-12 18z" />
    <glyph glyph-name="Dcaron" unicode="&#x10e;" horiz-adv-x="675" 
d="M309 0h-271v12h56q6 0 9.5 3.5t3.5 9.5v520q0 6 -3.5 9.5t-9.5 3.5h-56v12h268q153 0 240.5 -77t87.5 -208q0 -126 -89.5 -205.5t-235.5 -79.5zM506 271q0 138 -54.5 212.5t-155.5 74.5h-76v-533q0 -6 3.5 -9.5t9.5 -3.5h76q97 0 147 66t50 193zM390 761l8 -5l-77 -119
q-7 -10 -13.5 -14.5t-14.5 -4.5t-14 4t-13 15l-77 119l8 5l96 -105h1z" />
    <glyph glyph-name="dcaron" unicode="&#x10f;" horiz-adv-x="520" 
d="M171 -10q-67 0 -106.5 46t-39.5 124q0 96 61.5 154t159.5 58q15 0 30 -1.5t28 -4.5v231l-44 27v6l149 50l4 -3l-4 -70v-531l49 -30v-6l-154 -50v68q-34 -34 -67.5 -51t-65.5 -17zM232 360q-45 0 -71 -41.5t-26 -113.5q0 -74 27.5 -115t75.5 -41q19 0 35.5 5t30.5 14v193
q0 48 -18.5 73.5t-53.5 25.5zM466 492l-8 1l16 166q2 18 7.5 27.5t14.5 9.5q8 0 12 -4t4 -12q0 -4 -1 -11t-3 -16z" />
    <glyph glyph-name="Dcroat" unicode="&#x110;" horiz-adv-x="675" 
d="M309 0h-271v12h56q6 0 9.5 3.5t3.5 9.5v253h-72v22h72v245q0 6 -3.5 9.5t-9.5 3.5h-56v12h268q153 0 240.5 -77t87.5 -208q0 -126 -89.5 -205.5t-235.5 -79.5zM506 271q0 138 -54.5 212.5t-155.5 74.5h-76v-258h134v-22h-134v-253q0 -6 3.5 -9.5t9.5 -3.5h76q97 0 147 66
t50 193z" />
    <glyph glyph-name="dcroat" unicode="&#x111;" horiz-adv-x="472" 
d="M171 -10q-67 0 -106.5 46t-39.5 124q0 96 61.5 154t159.5 58q15 0 30 -1.5t28 -4.5v126h-104v20h104v85l-44 27v6l149 50l4 -3l-4 -70v-95h49v-20h-49v-416l49 -30v-6l-154 -50v68q-34 -34 -67.5 -51t-65.5 -17zM232 360q-45 0 -71 -41.5t-26 -113.5q0 -74 27.5 -115
t75.5 -41q19 0 35.5 5t30.5 14v193q0 48 -18.5 73.5t-53.5 25.5z" />
    <glyph glyph-name="Emacron" unicode="&#x112;" horiz-adv-x="534" 
d="M413 193l-9 55q-1 5 -4.5 7.5t-10.5 2.5h-169v-227q0 -7 3 -10.5t9 -3.5l183 5q26 1 38.5 11t18.5 35l29 115h8l-14 -183h-457v12h56q6 0 9.5 3.5t3.5 9.5v520q0 6 -3.5 9.5t-9.5 3.5h-56v12h353q23 0 40.5 2.5t27.5 7.5l3 -1v-172h-8l-15 86q-6 34 -16 45t-39 12l-164 3
v-234h169q7 0 10.5 2.5t4.5 7.5l9 56h8v-192h-8zM399 678h-208v35h208v-35z" />
    <glyph glyph-name="emacron" unicode="&#x113;" horiz-adv-x="382" 
d="M202 -10q-80 0 -128.5 50.5t-48.5 137.5q0 88 55 141t139 53q67 0 106 -30t40 -84l-1 -3h-231q-1 -5 -1 -11v-18q0 -79 36.5 -121t104.5 -42q26 0 50 11t44 31l5 -4q-20 -52 -65 -81.5t-105 -29.5zM271 286q0 33 -17.5 53.5t-44.5 20.5q-31 0 -50 -23.5t-25 -69.5h122
q8 0 11.5 4.5t3.5 14.5zM348 513h-248v35h248v-35z" />
    <glyph glyph-name="Ebreve" unicode="&#x114;" horiz-adv-x="534" 
d="M413 193l-9 55q-1 5 -4.5 7.5t-10.5 2.5h-169v-227q0 -7 3 -10.5t9 -3.5l183 5q26 1 38.5 11t18.5 35l29 115h8l-14 -183h-457v12h56q6 0 9.5 3.5t3.5 9.5v520q0 6 -3.5 9.5t-9.5 3.5h-56v12h353q23 0 40.5 2.5t27.5 7.5l3 -1v-172h-8l-15 86q-6 34 -16 45t-39 12l-164 3
v-234h169q7 0 10.5 2.5t4.5 7.5l9 56h8v-192h-8zM295 620q-44 0 -69.5 30.5t-32.5 91.5l10 1q9 -44 30.5 -63t61.5 -19t62 19.5t30 62.5l10 -1q-6 -60 -31.5 -91t-70.5 -31z" />
    <glyph glyph-name="ebreve" unicode="&#x115;" horiz-adv-x="382" 
d="M202 -10q-80 0 -128.5 50.5t-48.5 137.5q0 88 55 141t139 53q67 0 106 -30t40 -84l-1 -3h-231q-1 -5 -1 -11v-18q0 -79 36.5 -121t104.5 -42q26 0 50 11t44 31l5 -4q-20 -52 -65 -81.5t-105 -29.5zM271 286q0 33 -17.5 53.5t-44.5 20.5q-31 0 -50 -23.5t-25 -69.5h122
q8 0 11.5 4.5t3.5 14.5zM225 428q-50 0 -80.5 39t-37.5 111l10 1q8 -56 34 -83t74 -27t74 27t34 83l10 -1q-7 -72 -37.5 -111t-80.5 -39z" />
    <glyph glyph-name="Edotaccent" unicode="&#x116;" horiz-adv-x="534" 
d="M413 193l-9 55q-1 5 -4.5 7.5t-10.5 2.5h-169v-227q0 -7 3 -10.5t9 -3.5l183 5q26 1 38.5 11t18.5 35l29 115h8l-14 -183h-457v12h56q6 0 9.5 3.5t3.5 9.5v520q0 6 -3.5 9.5t-9.5 3.5h-56v12h353q23 0 40.5 2.5t27.5 7.5l3 -1v-172h-8l-15 86q-6 34 -16 45t-39 12l-164 3
v-234h169q7 0 10.5 2.5t4.5 7.5l9 56h8v-192h-8zM335 697q0 -17 -11 -28t-28 -11t-27.5 11t-10.5 28q0 16 11 27t27 11t27.5 -11t11.5 -27z" />
    <glyph glyph-name="edotaccent" unicode="&#x117;" horiz-adv-x="382" 
d="M202 -10q-80 0 -128.5 50.5t-48.5 137.5q0 88 55 141t139 53q67 0 106 -30t40 -84l-1 -3h-231q-1 -5 -1 -11v-18q0 -79 36.5 -121t104.5 -42q26 0 50 11t44 31l5 -4q-20 -52 -65 -81.5t-105 -29.5zM271 286q0 33 -17.5 53.5t-44.5 20.5q-31 0 -50 -23.5t-25 -69.5h122
q8 0 11.5 4.5t3.5 14.5zM261 542q0 -15 -10 -25t-25 -10t-24.5 9.5t-9.5 25.5q0 15 9.5 24.5t24.5 9.5t25 -10t10 -24z" />
    <glyph glyph-name="Eogonek" unicode="&#x118;" horiz-adv-x="534" 
d="M413 193l-9 55q-1 5 -4.5 7.5t-10.5 2.5h-169v-227q0 -7 3 -10.5t9 -3.5l183 5q26 1 38.5 11t18.5 35l29 115h8l-14 -183h-47q-39 -49 -50.5 -75.5t-11.5 -53.5t16 -44t43 -17q16 0 30.5 5t26.5 15l6 -6q-13 -20 -34.5 -33t-43.5 -13q-35 0 -58 20.5t-23 52.5
q0 29 16.5 61.5t62.5 87.5h-390v12h56q6 0 9.5 3.5t3.5 9.5v520q0 6 -3.5 9.5t-9.5 3.5h-56v12h353q23 0 40.5 2.5t27.5 7.5l3 -1v-172h-8l-15 86q-6 34 -16 45t-39 12l-164 3v-234h169q7 0 10.5 2.5t4.5 7.5l9 56h8v-192h-8z" />
    <glyph glyph-name="eogonek" unicode="&#x119;" horiz-adv-x="382" 
d="M346 -169l6 -6q-13 -20 -34.5 -33t-43.5 -13q-35 0 -58 20.5t-23 52.5q0 20 8.5 41t26.5 45q12 17 36 44.5t26 29.5q-19 -10 -42 -16t-46 -6q-80 0 -128.5 50.5t-48.5 137.5q0 88 55 141t139 53q67 0 106 -30t40 -84l-1 -3h-231q-1 -5 -1 -11v-18q0 -79 36.5 -121
t104.5 -42q26 0 50 11t44 31l5 -4q-5 -14 -13.5 -27.5t-55.5 -71.5q-48 -61 -60.5 -85.5t-12.5 -44.5q0 -27 16 -44t43 -17q16 0 30.5 5t26.5 15zM271 286q0 33 -17.5 53.5t-44.5 20.5q-31 0 -50 -23.5t-25 -69.5h122q8 0 11.5 4.5t3.5 14.5z" />
    <glyph glyph-name="Ecaron" unicode="&#x11a;" horiz-adv-x="534" 
d="M413 193l-9 55q-1 5 -4.5 7.5t-10.5 2.5h-169v-227q0 -7 3 -10.5t9 -3.5l183 5q26 1 38.5 11t18.5 35l29 115h8l-14 -183h-457v12h56q6 0 9.5 3.5t3.5 9.5v520q0 6 -3.5 9.5t-9.5 3.5h-56v12h353q23 0 40.5 2.5t27.5 7.5l3 -1v-172h-8l-15 86q-6 34 -16 45t-39 12l-164 3
v-234h169q7 0 10.5 2.5t4.5 7.5l9 56h8v-192h-8zM390 761l8 -5l-77 -119q-7 -10 -13.5 -14.5t-14.5 -4.5t-14 4t-13 15l-77 119l8 5l96 -105h1z" />
    <glyph glyph-name="ecaron" unicode="&#x11b;" horiz-adv-x="382" 
d="M202 -10q-80 0 -128.5 50.5t-48.5 137.5q0 88 55 141t139 53q67 0 106 -30t40 -84l-1 -3h-231q-1 -5 -1 -11v-18q0 -79 36.5 -121t104.5 -42q26 0 50 11t44 31l5 -4q-20 -52 -65 -81.5t-105 -29.5zM271 286q0 33 -17.5 53.5t-44.5 20.5q-31 0 -50 -23.5t-25 -69.5h122
q8 0 11.5 4.5t3.5 14.5zM195 431l-84 175l8 5l103 -160h1l103 160l8 -5l-84 -175q-6 -12 -12.5 -17.5t-15.5 -5.5t-15 5t-12 18z" />
    <glyph glyph-name="Gcircumflex" unicode="&#x11c;" horiz-adv-x="663" 
d="M470 27v193q0 6 -3.5 9.5t-9.5 3.5h-72v12h250v-12h-39q-6 0 -9.5 -3.5t-3.5 -9.5v-106q0 -22 2 -37.5t7 -25.5l-1 -4q-46 -25 -108.5 -41t-118.5 -16q-149 0 -236 77.5t-87 210.5t92 217.5t235 84.5q59 0 114 -15t95 -41v-140h-8l-7 34q-15 71 -67 110.5t-127 39.5
q-95 0 -147 -72t-52 -203q0 -137 53 -214t145 -77q27 0 53 6t50 19zM405 744l77 -119l-8 -5l-96 105h-1l-96 -105l-8 5l77 119q7 11 13 15t14 4t14.5 -4.5t13.5 -14.5z" />
    <glyph glyph-name="gcircumflex" unicode="&#x11d;" horiz-adv-x="429" 
d="M367 233q0 -58 -46.5 -95.5t-114.5 -37.5q-21 0 -41.5 3.5t-38.5 10.5q-22 -24 -30.5 -37t-8.5 -23q0 -15 10.5 -22.5t30.5 -7.5h183q54 0 83.5 -27t29.5 -75q0 -84 -75.5 -143t-177.5 -59q-65 0 -108 29.5t-43 72.5q0 26 22 51.5t74 57.5q-38 2 -63.5 22t-25.5 49
q0 22 18 44t73 71q-41 17 -63 47t-22 68q0 61 50 100.5t121 39.5q12 0 25.5 -2t26.5 -6q20 -5 32.5 -7t25.5 -2h101v-17l-121 8l1 -1q35 -23 53.5 -52t18.5 -60zM137 237q0 -57 18.5 -91t49.5 -34q32 0 46.5 29t14.5 93q0 58 -17.5 92t-48.5 34t-47 -31.5t-16 -91.5z
M103 -151q0 -46 33 -73t89 -27q64 0 103.5 30.5t39.5 80.5q0 33 -21 52t-57 19h-158q-14 -16 -21.5 -37t-7.5 -45zM240 590l84 -175l-8 -5l-103 160h-1l-103 -160l-8 5l84 175q6 12 12.5 17.5t15.5 5.5t15 -5t12 -18z" />
    <glyph glyph-name="Gbreve" unicode="&#x11e;" horiz-adv-x="663" 
d="M470 27v193q0 6 -3.5 9.5t-9.5 3.5h-72v12h250v-12h-39q-6 0 -9.5 -3.5t-3.5 -9.5v-106q0 -22 2 -37.5t7 -25.5l-1 -4q-46 -25 -108.5 -41t-118.5 -16q-149 0 -236 77.5t-87 210.5t92 217.5t235 84.5q59 0 114 -15t95 -41v-140h-8l-7 34q-15 71 -67 110.5t-127 39.5
q-95 0 -147 -72t-52 -203q0 -137 53 -214t145 -77q27 0 53 6t50 19zM380 620q-44 0 -69.5 30.5t-32.5 91.5l10 1q9 -44 30.5 -63t61.5 -19t62 19.5t30 62.5l10 -1q-6 -60 -31.5 -91t-70.5 -31z" />
    <glyph glyph-name="gbreve" unicode="&#x11f;" horiz-adv-x="429" 
d="M367 233q0 -58 -46.5 -95.5t-114.5 -37.5q-21 0 -41.5 3.5t-38.5 10.5q-22 -24 -30.5 -37t-8.5 -23q0 -15 10.5 -22.5t30.5 -7.5h183q54 0 83.5 -27t29.5 -75q0 -84 -75.5 -143t-177.5 -59q-65 0 -108 29.5t-43 72.5q0 26 22 51.5t74 57.5q-38 2 -63.5 22t-25.5 49
q0 22 18 44t73 71q-41 17 -63 47t-22 68q0 61 50 100.5t121 39.5q12 0 25.5 -2t26.5 -6q20 -5 32.5 -7t25.5 -2h101v-17l-121 8l1 -1q35 -23 53.5 -52t18.5 -60zM137 237q0 -57 18.5 -91t49.5 -34q32 0 46.5 29t14.5 93q0 58 -17.5 92t-48.5 34t-47 -31.5t-16 -91.5z
M103 -151q0 -46 33 -73t89 -27q64 0 103.5 30.5t39.5 80.5q0 33 -21 52t-57 19h-158q-14 -16 -21.5 -37t-7.5 -45zM215 428q-50 0 -80.5 39t-37.5 111l10 1q8 -56 34 -83t74 -27t74 27t34 83l10 -1q-7 -72 -37.5 -111t-80.5 -39z" />
    <glyph glyph-name="Gdotaccent" unicode="&#x120;" horiz-adv-x="663" 
d="M470 27v193q0 6 -3.5 9.5t-9.5 3.5h-72v12h250v-12h-39q-6 0 -9.5 -3.5t-3.5 -9.5v-106q0 -22 2 -37.5t7 -25.5l-1 -4q-46 -25 -108.5 -41t-118.5 -16q-149 0 -236 77.5t-87 210.5t92 217.5t235 84.5q59 0 114 -15t95 -41v-140h-8l-7 34q-15 71 -67 110.5t-127 39.5
q-95 0 -147 -72t-52 -203q0 -137 53 -214t145 -77q27 0 53 6t50 19zM420 697q0 -17 -11 -28t-28 -11t-27.5 11t-10.5 28q0 16 11 27t27 11t27.5 -11t11.5 -27z" />
    <glyph glyph-name="gdotaccent" unicode="&#x121;" horiz-adv-x="429" 
d="M367 233q0 -58 -46.5 -95.5t-114.5 -37.5q-21 0 -41.5 3.5t-38.5 10.5q-22 -24 -30.5 -37t-8.5 -23q0 -15 10.5 -22.5t30.5 -7.5h183q54 0 83.5 -27t29.5 -75q0 -84 -75.5 -143t-177.5 -59q-65 0 -108 29.5t-43 72.5q0 26 22 51.5t74 57.5q-38 2 -63.5 22t-25.5 49
q0 22 18 44t73 71q-41 17 -63 47t-22 68q0 61 50 100.5t121 39.5q12 0 25.5 -2t26.5 -6q20 -5 32.5 -7t25.5 -2h101v-17l-121 8l1 -1q35 -23 53.5 -52t18.5 -60zM137 237q0 -57 18.5 -91t49.5 -34q32 0 46.5 29t14.5 93q0 58 -17.5 92t-48.5 34t-47 -31.5t-16 -91.5z
M103 -151q0 -46 33 -73t89 -27q64 0 103.5 30.5t39.5 80.5q0 33 -21 52t-57 19h-158q-14 -16 -21.5 -37t-7.5 -45zM251 542q0 -15 -10 -25t-25 -10t-24.5 9.5t-9.5 25.5q0 15 9.5 24.5t24.5 9.5t25 -10t10 -24z" />
    <glyph glyph-name="Gcommaaccent" unicode="&#x122;" horiz-adv-x="663" 
d="M470 27v193q0 6 -3.5 9.5t-9.5 3.5h-72v12h250v-12h-39q-6 0 -9.5 -3.5t-3.5 -9.5v-106q0 -22 2 -37.5t7 -25.5l-1 -4q-46 -25 -108.5 -41t-118.5 -16q-149 0 -236 77.5t-87 210.5t92 217.5t235 84.5q59 0 114 -15t95 -41v-140h-8l-7 34q-15 71 -67 110.5t-127 39.5
q-95 0 -147 -72t-52 -203q0 -137 53 -214t145 -77q27 0 53 6t50 19zM428 -103q0 -38 -23.5 -65.5t-67.5 -40.5l-4 10q34 11 52.5 28.5t18.5 38.5q0 16 -14 26.5t-50 22.5q7 19 16.5 27.5t23.5 8.5q22 0 35 -15t13 -41z" />
    <glyph glyph-name="gcommaaccent" unicode="&#x123;" horiz-adv-x="429" 
d="M367 233q0 -58 -46.5 -95.5t-114.5 -37.5q-21 0 -41.5 3.5t-38.5 10.5q-22 -24 -30.5 -37t-8.5 -23q0 -15 10.5 -22.5t30.5 -7.5h183q54 0 83.5 -27t29.5 -75q0 -84 -75.5 -143t-177.5 -59q-65 0 -108 29.5t-43 72.5q0 26 22 51.5t74 57.5q-38 2 -63.5 22t-25.5 49
q0 22 18 44t73 71q-41 17 -63 47t-22 68q0 61 50 100.5t121 39.5q12 0 25.5 -2t26.5 -6q20 -5 32.5 -7t25.5 -2h101v-17l-121 8l1 -1q35 -23 53.5 -52t18.5 -60zM137 237q0 -57 18.5 -91t49.5 -34q32 0 46.5 29t14.5 93q0 58 -17.5 92t-48.5 34t-47 -31.5t-16 -91.5z
M103 -151q0 -46 33 -73t89 -27q64 0 103.5 30.5t39.5 80.5q0 33 -21 52t-57 19h-158q-14 -16 -21.5 -37t-7.5 -45zM182 481q0 38 23.5 65.5t67.5 40.5l4 -10q-34 -11 -52.5 -28.5t-18.5 -38.5q0 -16 14 -26.5t50 -22.5q-7 -19 -16.5 -27.5t-23.5 -8.5q-22 0 -35 15t-13 41z
" />
    <glyph glyph-name="Hcircumflex" unicode="&#x124;" horiz-adv-x="712" 
d="M289 12v-12h-251v12h56q6 0 9.5 3.5t3.5 9.5v520q0 6 -3.5 9.5t-9.5 3.5h-56v12h251v-12h-56q-6 0 -9.5 -3.5t-3.5 -9.5v-237h272v237q0 6 -3.5 9.5t-9.5 3.5h-56v12h251v-12h-56q-6 0 -9.5 -3.5t-3.5 -9.5v-520q0 -6 3.5 -9.5t9.5 -3.5h56v-12h-251v12h56q6 0 9.5 3.5
t3.5 9.5v261h-272v-261q0 -6 3.5 -9.5t9.5 -3.5h56zM391 744l77 -119l-8 -5l-96 105h-1l-96 -105l-8 5l77 119q7 11 13 15t14 4t14.5 -4.5t13.5 -14.5z" />
    <glyph glyph-name="hcircumflex" unicode="&#x125;" horiz-adv-x="462" 
d="M217 12v-12h-203v12h36q6 0 9.5 3.5t3.5 9.5v572l-44 27v6l149 50l4 -3l-4 -70v-303q31 31 65 49.5t62 18.5q53 0 81 -32t28 -92v-223q0 -6 3.5 -9.5t9.5 -3.5h36v-12h-203v12h36q6 0 9.5 3.5t3.5 9.5v202q0 42 -17 64t-49 22q-16 0 -32 -4.5t-33 -14.5v-269
q0 -6 3.5 -9.5t9.5 -3.5h36zM133 849l77 -119l-8 -5l-96 105h-1l-96 -105l-8 5l77 119q7 11 13 15t14 4t14.5 -4.5t13.5 -14.5z" />
    <glyph glyph-name="Hbar" unicode="&#x126;" horiz-adv-x="712" 
d="M289 12v-12h-251v12h56q6 0 9.5 3.5t3.5 9.5v390h-82v22h82v108q0 6 -3.5 9.5t-9.5 3.5h-56v12h251v-12h-56q-6 0 -9.5 -3.5t-3.5 -9.5v-108h272v108q0 6 -3.5 9.5t-9.5 3.5h-56v12h251v-12h-56q-6 0 -9.5 -3.5t-3.5 -9.5v-108h82v-22h-82v-390q0 -6 3.5 -9.5t9.5 -3.5
h56v-12h-251v12h56q6 0 9.5 3.5t3.5 9.5v261h-272v-261q0 -6 3.5 -9.5t9.5 -3.5h56zM220 415v-107h272v107h-272z" />
    <glyph glyph-name="hbar" unicode="&#x127;" horiz-adv-x="462" 
d="M217 12v-12h-203v12h36q6 0 9.5 3.5t3.5 9.5v467h-49v20h49v85l-44 27v6l149 50l4 -3l-4 -70v-95h108v-20h-108v-188q31 31 65 49.5t62 18.5q53 0 81 -32t28 -92v-223q0 -6 3.5 -9.5t9.5 -3.5h36v-12h-203v12h36q6 0 9.5 3.5t3.5 9.5v202q0 42 -17 64t-49 22
q-16 0 -32 -4.5t-33 -14.5v-269q0 -6 3.5 -9.5t9.5 -3.5h36z" />
    <glyph glyph-name="Itilde" unicode="&#x128;" horiz-adv-x="327" 
d="M289 12v-12h-251v12h56q6 0 9.5 3.5t3.5 9.5v520q0 6 -3.5 9.5t-9.5 3.5h-56v12h251v-12h-56q-6 0 -9.5 -3.5t-3.5 -9.5v-520q0 -6 3.5 -9.5t9.5 -3.5h56zM223 658q-7 0 -17.5 3t-36.5 14q-27 11 -39 14.5t-20 3.5q-12 0 -18.5 -5t-16.5 -26l-14 -30l-8 3l12 42
q8 29 19 40.5t30 11.5q6 0 16.5 -3t36.5 -14q27 -11 38.5 -14.5t19.5 -3.5q10 0 17 4.5t20 28.5l15 28l8 -3l-13 -40q-12 -34 -22 -44t-27 -10z" />
    <glyph glyph-name="itilde" unicode="&#x129;" horiz-adv-x="229" 
d="M220 12v-12h-203v12h36q6 0 9.5 3.5t3.5 9.5v264l-44 27v6l149 50l4 -3l-4 -70v-274q0 -6 3.5 -9.5t9.5 -3.5h36zM186 481q-7 0 -19 3t-41 12q-30 11 -43 14t-22 3q-11 0 -18 -5t-17 -25l-21 -41l-8 3l18 56q9 28 21 39.5t31 11.5q7 0 19 -3t41 -12q30 -11 43 -14t22 -3
q12 0 20 6.5t17 25.5l20 40l8 -3l-19 -55q-10 -30 -21.5 -41.5t-30.5 -11.5z" />
    <glyph glyph-name="Imacron" unicode="&#x12a;" horiz-adv-x="327" 
d="M289 12v-12h-251v12h56q6 0 9.5 3.5t3.5 9.5v520q0 6 -3.5 9.5t-9.5 3.5h-56v12h251v-12h-56q-6 0 -9.5 -3.5t-3.5 -9.5v-520q0 -6 3.5 -9.5t9.5 -3.5h56zM268 678h-208v35h208v-35z" />
    <glyph glyph-name="imacron" unicode="&#x12b;" horiz-adv-x="229" 
d="M220 12v-12h-203v12h36q6 0 9.5 3.5t3.5 9.5v264l-44 27v6l149 50l4 -3l-4 -70v-274q0 -6 3.5 -9.5t9.5 -3.5h36zM248 513h-248v35h248v-35z" />
    <glyph glyph-name="Ibreve" unicode="&#x12c;" horiz-adv-x="327" 
d="M289 12v-12h-251v12h56q6 0 9.5 3.5t3.5 9.5v520q0 6 -3.5 9.5t-9.5 3.5h-56v12h251v-12h-56q-6 0 -9.5 -3.5t-3.5 -9.5v-520q0 -6 3.5 -9.5t9.5 -3.5h56zM164 620q-44 0 -69.5 30.5t-32.5 91.5l10 1q9 -44 30.5 -63t61.5 -19t62 19.5t30 62.5l10 -1q-6 -60 -31.5 -91
t-70.5 -31z" />
    <glyph glyph-name="ibreve" unicode="&#x12d;" horiz-adv-x="229" 
d="M220 12v-12h-203v12h36q6 0 9.5 3.5t3.5 9.5v264l-44 27v6l149 50l4 -3l-4 -70v-274q0 -6 3.5 -9.5t9.5 -3.5h36zM124 428q-50 0 -80.5 39t-37.5 111l10 1q8 -56 34 -83t74 -27t74 27t34 83l10 -1q-7 -72 -37.5 -111t-80.5 -39z" />
    <glyph glyph-name="Iogonek" unicode="&#x12e;" horiz-adv-x="327" 
d="M177 -221q-35 0 -58 20.5t-23 52.5q0 29 17 62.5t62 85.5h-137v12h56q6 0 9.5 3.5t3.5 9.5v520q0 6 -3.5 9.5t-9.5 3.5h-56v12h251v-12h-56q-6 0 -9.5 -3.5t-3.5 -9.5v-520q0 -6 3.5 -9.5t9.5 -3.5h56v-12h-95q-37 -48 -49 -74t-12 -54q0 -27 16 -44t43 -17q16 0 30.5 5
t26.5 15l6 -6q-13 -20 -34.5 -33t-43.5 -13z" />
    <glyph glyph-name="iogonek" unicode="&#x12f;" horiz-adv-x="229" 
d="M181 530q0 -23 -15.5 -38.5t-37.5 -15.5q-24 0 -39.5 15.5t-15.5 38.5t16 39t39 16q22 0 37.5 -16t15.5 -39zM220 12v-12h-61q-37 -48 -49 -74t-12 -54q0 -27 16 -44t43 -17q16 0 30.5 5t26.5 15l6 -6q-13 -20 -34.5 -33t-43.5 -13q-35 0 -58 20.5t-23 52.5q0 29 17 62.5
t62 85.5h-123v12h36q6 0 9.5 3.5t3.5 9.5v264l-44 27v6l149 50l4 -3l-4 -70v-274q0 -6 3.5 -9.5t9.5 -3.5h36z" />
    <glyph glyph-name="Idotaccent" unicode="&#x130;" horiz-adv-x="327" 
d="M289 12v-12h-251v12h56q6 0 9.5 3.5t3.5 9.5v520q0 6 -3.5 9.5t-9.5 3.5h-56v12h251v-12h-56q-6 0 -9.5 -3.5t-3.5 -9.5v-520q0 -6 3.5 -9.5t9.5 -3.5h56zM204 697q0 -17 -11 -28t-28 -11t-27.5 11t-10.5 28q0 16 11 27t27 11t27.5 -11t11.5 -27z" />
    <glyph glyph-name="dotlessi" unicode="&#x131;" horiz-adv-x="234" 
d="M220 12v-12h-203v12h36q6 0 9.5 3.5t3.5 9.5v264l-44 27v6l149 50l4 -3l-4 -70v-274q0 -6 3.5 -9.5t9.5 -3.5h36z" />
    <glyph glyph-name="IJ" unicode="&#x132;" horiz-adv-x="654" 
d="M289 12v-12h-251v12h56q6 0 9.5 3.5t3.5 9.5v520q0 6 -3.5 9.5t-9.5 3.5h-56v12h251v-12h-56q-6 0 -9.5 -3.5t-3.5 -9.5v-520q0 -6 3.5 -9.5t9.5 -3.5h56zM352 -172l-4 7q50 33 68 66.5t18 87.5v556q0 6 -3.5 9.5t-9.5 3.5h-56v12h251v-12h-56q-6 0 -9.5 -3.5t-3.5 -9.5
v-512q0 -60 -40 -103.5t-155 -101.5z" />
    <glyph glyph-name="ij" unicode="&#x133;" horiz-adv-x="450" 
d="M181 530q0 -23 -15.5 -38.5t-37.5 -15.5q-24 0 -39.5 15.5t-15.5 38.5t16 39t39 16q22 0 37.5 -16t15.5 -39zM220 12v-12h-203v12h36q6 0 9.5 3.5t3.5 9.5v264l-44 27v6l149 50l4 -3l-4 -70v-274q0 -6 3.5 -9.5t9.5 -3.5h36zM414 530q0 -23 -15.5 -38.5t-37.5 -15.5
q-24 0 -39.5 15.5t-15.5 38.5t16 39t39 16q22 0 37.5 -16t15.5 -39zM400 299v-356q0 -40 -38.5 -78t-118.5 -76l-4 7q32 22 44 49.5t12 77.5v366l-44 27v6l149 50l4 -3z" />
    <glyph glyph-name="Jcircumflex" unicode="&#x134;" horiz-adv-x="327" 
d="M25 -172l-4 7q50 33 68 66.5t18 87.5v556q0 6 -3.5 9.5t-9.5 3.5h-56v12h251v-12h-56q-6 0 -9.5 -3.5t-3.5 -9.5v-512q0 -60 -40 -103.5t-155 -101.5zM191 744l77 -119l-8 -5l-96 105h-1l-96 -105l-8 5l77 119q7 11 13 15t14 4t14.5 -4.5t13.5 -14.5z" />
    <glyph glyph-name="jcircumflex" unicode="&#x135;" horiz-adv-x="221" 
d="M171 299v-345q0 -40 -38.5 -78t-118.5 -76l-4 7q32 22 44 49.5t12 77.5v355l-44 27v6l149 50l4 -3zM117 590l84 -175l-8 -5l-103 160h-1l-103 -160l-8 5l84 175q6 12 12.5 17.5t15.5 5.5t15 -5t12 -18z" />
    <glyph glyph-name="Kcommaaccent" unicode="&#x136;" horiz-adv-x="639" 
d="M289 12v-12h-251v12h56q6 0 9.5 3.5t3.5 9.5v520q0 6 -3.5 9.5t-9.5 3.5h-56v12h251v-12h-56q-6 0 -9.5 -3.5t-3.5 -9.5v-243l269 237q7 7 4.5 13t-13.5 6h-50v12h171v-12l-41 -1q-8 0 -13.5 -2t-11.5 -7l-228 -193l271 -325q9 -10 15 -12.5t16 -3.5l25 -2v-12h-271v12
l58 2q10 0 12 6t-7 17l-206 250v-262q0 -6 3.5 -9.5t9.5 -3.5h56zM372 -103q0 -38 -23.5 -65.5t-67.5 -40.5l-4 10q34 11 52.5 28.5t18.5 38.5q0 16 -14 26.5t-50 22.5q7 19 16.5 27.5t23.5 8.5q22 0 35 -15t13 -41z" />
    <glyph glyph-name="kcommaaccent" unicode="&#x137;" horiz-adv-x="477" 
d="M217 12v-12h-203v12h36q6 0 9.5 3.5t3.5 9.5v572l-44 27v6l149 50l4 -3l-4 -70v-582q0 -6 3.5 -9.5t9.5 -3.5h36zM460 13l15 -1v-12h-203v12l35 1q6 0 7 4.5t-5 11.5l-127 167v7l159 131q6 6 5 10.5t-10 4.5l-60 1v12h174v-12l-46 -1q-5 0 -9.5 -1.5t-10.5 -5.5l-119 -87
l173 -231q4 -5 9 -7.5t13 -3.5zM260 -103q0 -38 -23.5 -65.5t-67.5 -40.5l-4 10q34 11 52.5 28.5t18.5 38.5q0 16 -14 26.5t-50 22.5q7 19 16.5 27.5t23.5 8.5q22 0 35 -15t13 -41z" />
    <glyph glyph-name="kgreenlandic" unicode="&#x138;" horiz-adv-x="477" 
d="M220 12v-12h-203v12h36q6 0 9.5 3.5t3.5 9.5v264l-44 27v6l149 50l4 -3l-4 -70v-274q0 -6 3.5 -9.5t9.5 -3.5h36zM460 13l15 -1v-12h-203v12l35 1q6 0 7 4.5t-5 11.5l-127 167v7l159 131q6 6 5 10.5t-10 4.5l-60 1v12h174v-12l-46 -1q-5 0 -9.5 -1.5t-10.5 -5.5l-119 -87
l173 -231q4 -5 9 -7.5t13 -3.5z" />
    <glyph glyph-name="Lacute" unicode="&#x139;" horiz-adv-x="526" 
d="M509 183l-14 -183h-457v12h56q6 0 9.5 3.5t3.5 9.5v520q0 6 -3.5 9.5t-9.5 3.5h-56v12h251v-12h-56q-6 0 -9.5 -3.5t-3.5 -9.5v-514q0 -7 3 -10.5t9 -3.5l183 5q26 1 38.5 11t18.5 35l29 115h8zM170 619l-8 4l35 108q6 18 12 25t14 7q7 0 11.5 -4t4.5 -11
q0 -6 -2.5 -13.5t-7.5 -14.5z" />
    <glyph glyph-name="lacute" unicode="&#x13a;" horiz-adv-x="265" 
d="M217 12v-12h-203v12h36q6 0 9.5 3.5t3.5 9.5v572l-44 27v6l149 50l4 -3l-4 -70v-582q0 -6 3.5 -9.5t9.5 -3.5h36zM107 724l-8 4l35 108q6 18 12 25t14 7q7 0 11.5 -4t4.5 -11q0 -6 -2.5 -13.5t-7.5 -14.5z" />
    <glyph glyph-name="Lcommaaccent" unicode="&#x13b;" horiz-adv-x="526" 
d="M509 183l-14 -183h-457v12h56q6 0 9.5 3.5t3.5 9.5v520q0 6 -3.5 9.5t-9.5 3.5h-56v12h251v-12h-56q-6 0 -9.5 -3.5t-3.5 -9.5v-514q0 -7 3 -10.5t9 -3.5l183 5q26 1 38.5 11t18.5 35l29 115h8zM367 -103q0 -38 -23.5 -65.5t-67.5 -40.5l-4 10q34 11 52.5 28.5t18.5 38.5
q0 16 -14 26.5t-50 22.5q7 19 16.5 27.5t23.5 8.5q22 0 35 -15t13 -41z" />
    <glyph glyph-name="lcommaaccent" unicode="&#x13c;" horiz-adv-x="231" 
d="M217 12v-12h-203v12h36q6 0 9.5 3.5t3.5 9.5v572l-44 27v6l149 50l4 -3l-4 -70v-582q0 -6 3.5 -9.5t9.5 -3.5h36zM150 -103q0 -38 -23.5 -65.5t-67.5 -40.5l-4 10q34 11 52.5 28.5t18.5 38.5q0 16 -14 26.5t-50 22.5q7 19 16.5 27.5t23.5 8.5q22 0 35 -15t13 -41z" />
    <glyph glyph-name="Lcaron" unicode="&#x13d;" horiz-adv-x="526" 
d="M509 183l-14 -183h-457v12h56q6 0 9.5 3.5t3.5 9.5v520q0 6 -3.5 9.5t-9.5 3.5h-56v12h251v-12h-56q-6 0 -9.5 -3.5t-3.5 -9.5v-514q0 -7 3 -10.5t9 -3.5l183 5q26 1 38.5 11t18.5 35l29 115h8zM322 409l-8 1l16 166q2 18 7.5 27.5t14.5 9.5q8 0 12 -4t4 -12q0 -4 -1 -11
t-3 -16z" />
    <glyph glyph-name="lcaron" unicode="&#x13e;" horiz-adv-x="283" 
d="M217 12v-12h-203v12h36q6 0 9.5 3.5t3.5 9.5v572l-44 27v6l149 50l4 -3l-4 -70v-582q0 -6 3.5 -9.5t9.5 -3.5h36zM225 492l-8 1l16 166q2 18 7.5 27.5t14.5 9.5q8 0 12 -4t4 -12q0 -4 -1 -11t-3 -16z" />
    <glyph glyph-name="Ldot" unicode="&#x13f;" horiz-adv-x="526" 
d="M509 183l-14 -183h-457v12h56q6 0 9.5 3.5t3.5 9.5v520q0 6 -3.5 9.5t-9.5 3.5h-56v12h251v-12h-56q-6 0 -9.5 -3.5t-3.5 -9.5v-514q0 -7 3 -10.5t9 -3.5l183 5q26 1 38.5 11t18.5 35l29 115h8zM469 295q0 -16 -11 -27.5t-28 -11.5q-16 0 -27.5 11.5t-11.5 27.5
q0 17 11.5 28t27.5 11q17 0 28 -11t11 -28z" />
    <glyph glyph-name="ldot" unicode="&#x140;" horiz-adv-x="322" 
d="M217 12v-12h-203v12h36q6 0 9.5 3.5t3.5 9.5v572l-44 27v6l149 50l4 -3l-4 -70v-582q0 -6 3.5 -9.5t9.5 -3.5h36zM317 284q0 -16 -11 -27.5t-28 -11.5q-16 0 -27.5 11.5t-11.5 27.5q0 17 11.5 28t27.5 11q17 0 28 -11t11 -28z" />
    <glyph glyph-name="Lslash" unicode="&#x141;" horiz-adv-x="526" 
d="M107 262l-62 -25l-8 18l70 29v261q0 6 -3.5 9.5t-9.5 3.5h-56v12h251v-12h-56q-6 0 -9.5 -3.5t-3.5 -9.5v-215l108 44l8 -18l-116 -47v-278q0 -7 3 -10.5t9 -3.5l183 5q26 1 38.5 11t18.5 35l29 115h8l-14 -183h-457v12h56q6 0 9.5 3.5t3.5 9.5v237z" />
    <glyph glyph-name="lslash" unicode="&#x142;" horiz-adv-x="231" 
d="M217 12v-12h-203v12h36q6 0 9.5 3.5t3.5 9.5v278l-65 -33l-9 16l74 38v273l-44 27v6l149 50l4 -3l-4 -70v-230l65 33l8 -17l-73 -37v-331q0 -6 3.5 -9.5t9.5 -3.5h36z" />
    <glyph glyph-name="Nacute" unicode="&#x143;" horiz-adv-x="678" 
d="M196 12v-12h-163v12h56q6 0 9.5 3.5t3.5 9.5v520q0 6 -3.5 9.5t-9.5 3.5h-56v12h161l345 -391v366q0 6 -3.5 9.5t-9.5 3.5h-56v12h163v-12h-56q-6 0 -9.5 -3.5t-3.5 -9.5v-555h-10l-427 487v-452q0 -6 3.5 -9.5t9.5 -3.5h56zM341 619l-8 4l35 108q6 18 12 25t14 7
q7 0 11.5 -4t4.5 -11q0 -6 -2.5 -13.5t-7.5 -14.5z" />
    <glyph glyph-name="nacute" unicode="&#x144;" horiz-adv-x="465" 
d="M220 12v-12h-203v12h36q6 0 9.5 3.5t3.5 9.5v264l-44 27v6l149 50l4 -3l-4 -65q31 31 65 49.5t62 18.5q53 0 81 -32t28 -92v-223q0 -6 3.5 -9.5t9.5 -3.5h36v-12h-203v12h36q6 0 9.5 3.5t3.5 9.5v202q0 42 -17 64t-49 22q-16 0 -32 -4.5t-33 -14.5v-269q0 -6 3.5 -9.5
t9.5 -3.5h36zM234 409l-8 4l62 169q6 16 12.5 23.5t14.5 7.5q7 0 12 -4.5t5 -11.5q0 -4 -1.5 -8.5t-8.5 -18.5z" />
    <glyph glyph-name="Ncommaaccent" unicode="&#x145;" horiz-adv-x="678" 
d="M196 12v-12h-163v12h56q6 0 9.5 3.5t3.5 9.5v520q0 6 -3.5 9.5t-9.5 3.5h-56v12h161l345 -391v366q0 6 -3.5 9.5t-9.5 3.5h-56v12h163v-12h-56q-6 0 -9.5 -3.5t-3.5 -9.5v-555h-10l-427 487v-452q0 -6 3.5 -9.5t9.5 -3.5h56zM393 -103q0 -38 -23.5 -65.5t-67.5 -40.5
l-4 10q34 11 52.5 28.5t18.5 38.5q0 16 -14 26.5t-50 22.5q7 19 16.5 27.5t23.5 8.5q22 0 35 -15t13 -41z" />
    <glyph glyph-name="ncommaaccent" unicode="&#x146;" horiz-adv-x="465" 
d="M220 12v-12h-203v12h36q6 0 9.5 3.5t3.5 9.5v264l-44 27v6l149 50l4 -3l-4 -65q31 31 65 49.5t62 18.5q53 0 81 -32t28 -92v-223q0 -6 3.5 -9.5t9.5 -3.5h36v-12h-203v12h36q6 0 9.5 3.5t3.5 9.5v202q0 42 -17 64t-49 22q-16 0 -32 -4.5t-33 -14.5v-269q0 -6 3.5 -9.5
t9.5 -3.5h36zM266 -103q0 -38 -23.5 -65.5t-67.5 -40.5l-4 10q34 11 52.5 28.5t18.5 38.5q0 16 -14 26.5t-50 22.5q7 19 16.5 27.5t23.5 8.5q22 0 35 -15t13 -41z" />
    <glyph glyph-name="Ncaron" unicode="&#x147;" horiz-adv-x="678" 
d="M196 12v-12h-163v12h56q6 0 9.5 3.5t3.5 9.5v520q0 6 -3.5 9.5t-9.5 3.5h-56v12h161l345 -391v366q0 6 -3.5 9.5t-9.5 3.5h-56v12h163v-12h-56q-6 0 -9.5 -3.5t-3.5 -9.5v-555h-10l-427 487v-452q0 -6 3.5 -9.5t9.5 -3.5h56zM430 761l8 -5l-77 -119q-7 -10 -13.5 -14.5
t-14.5 -4.5t-14 4t-13 15l-77 119l8 5l96 -105h1z" />
    <glyph glyph-name="ncaron" unicode="&#x148;" horiz-adv-x="465" 
d="M220 12v-12h-203v12h36q6 0 9.5 3.5t3.5 9.5v264l-44 27v6l149 50l4 -3l-4 -65q31 31 65 49.5t62 18.5q53 0 81 -32t28 -92v-223q0 -6 3.5 -9.5t9.5 -3.5h36v-12h-203v12h36q6 0 9.5 3.5t3.5 9.5v202q0 42 -17 64t-49 22q-16 0 -32 -4.5t-33 -14.5v-269q0 -6 3.5 -9.5
t9.5 -3.5h36zM201 431l-84 175l8 5l103 -160h1l103 160l8 -5l-84 -175q-6 -12 -12.5 -17.5t-15.5 -5.5t-15 5t-12 18z" />
    <glyph glyph-name="napostrophe" unicode="&#x149;" horiz-adv-x="465" 
d="M220 12v-12h-203v12h36q6 0 9.5 3.5t3.5 9.5v264l-44 27v6l149 50l4 -3l-4 -65q31 31 65 49.5t62 18.5q53 0 81 -32t28 -92v-223q0 -6 3.5 -9.5t9.5 -3.5h36v-12h-203v12h36q6 0 9.5 3.5t3.5 9.5v202q0 42 -17 64t-49 22q-16 0 -32 -4.5t-33 -14.5v-269q0 -6 3.5 -9.5
t9.5 -3.5h36zM129 518q0 -38 -23.5 -65.5t-67.5 -40.5l-4 10q34 11 52.5 28.5t18.5 38.5q0 16 -14 26.5t-50 22.5q7 19 16.5 27.5t23.5 8.5q22 0 35 -15t13 -41z" />
    <glyph glyph-name="Eng" unicode="&#x14a;" horiz-adv-x="666" 
d="M196 12v-12h-163v12h56q6 0 9.5 3.5t3.5 9.5v520q0 6 -3.5 9.5t-9.5 3.5h-56v12h161l345 -391v366q0 6 -3.5 9.5t-9.5 3.5h-56v12h163v-12h-56q-6 0 -9.5 -3.5t-3.5 -9.5v-555q0 -54 -32.5 -89.5t-106.5 -72.5l-4 7q44 29 57.5 40t23.5 21q19 20 28 43t9 50v18l-412 470
v-452q0 -6 3.5 -9.5t9.5 -3.5h56z" />
    <glyph glyph-name="eng" unicode="&#x14b;" horiz-adv-x="465" 
d="M220 12v-12h-203v12h36q6 0 9.5 3.5t3.5 9.5v264l-44 27v6l149 50l4 -3l-4 -65q31 31 65 49.5t62 18.5q53 0 81 -32t28 -92v-305q0 -40 -38.5 -78t-118.5 -76l-4 7q32 22 44 49.5t12 77.5v304q0 42 -17 64t-49 22q-16 0 -32 -4.5t-33 -14.5v-269q0 -6 3.5 -9.5t9.5 -3.5
h36z" />
    <glyph glyph-name="Omacron" unicode="&#x14c;" horiz-adv-x="699" 
d="M658 294q0 -131 -90 -217.5t-217 -86.5q-135 0 -222.5 78.5t-87.5 207.5q0 130 90.5 217t216.5 87q135 0 222.5 -78.5t87.5 -207.5zM169 301q0 -134 51.5 -216.5t137.5 -82.5q84 0 128 69t44 199q0 133 -51.5 215.5t-138.5 82.5q-83 0 -127 -69t-44 -198zM475 678h-208
v35h208v-35z" />
    <glyph glyph-name="omacron" unicode="&#x14d;" horiz-adv-x="453" 
d="M429 186q0 -85 -59.5 -140.5t-144.5 -55.5q-89 0 -145 50t-56 136q0 84 60 140t144 56q89 0 145 -50t56 -136zM138 191q0 -90 24 -139.5t67 -49.5t64.5 42.5t21.5 126.5q0 90 -24 139.5t-67 49.5t-64.5 -42.5t-21.5 -126.5zM357 513h-248v35h248v-35z" />
    <glyph glyph-name="Obreve" unicode="&#x14e;" horiz-adv-x="699" 
d="M658 294q0 -131 -90 -217.5t-217 -86.5q-135 0 -222.5 78.5t-87.5 207.5q0 130 90.5 217t216.5 87q135 0 222.5 -78.5t87.5 -207.5zM169 301q0 -134 51.5 -216.5t137.5 -82.5q84 0 128 69t44 199q0 133 -51.5 215.5t-138.5 82.5q-83 0 -127 -69t-44 -198zM371 620
q-44 0 -69.5 30.5t-32.5 91.5l10 1q9 -44 30.5 -63t61.5 -19t62 19.5t30 62.5l10 -1q-6 -60 -31.5 -91t-70.5 -31z" />
    <glyph glyph-name="obreve" unicode="&#x14f;" horiz-adv-x="453" 
d="M429 186q0 -85 -59.5 -140.5t-144.5 -55.5q-89 0 -145 50t-56 136q0 84 60 140t144 56q89 0 145 -50t56 -136zM138 191q0 -90 24 -139.5t67 -49.5t64.5 42.5t21.5 126.5q0 90 -24 139.5t-67 49.5t-64.5 -42.5t-21.5 -126.5zM234 428q-50 0 -80.5 39t-37.5 111l10 1
q8 -56 34 -83t74 -27t74 27t34 83l10 -1q-7 -72 -37.5 -111t-80.5 -39z" />
    <glyph glyph-name="Ohungarumlaut" unicode="&#x150;" horiz-adv-x="699" 
d="M658 294q0 -131 -90 -217.5t-217 -86.5q-135 0 -222.5 78.5t-87.5 207.5q0 130 90.5 217t216.5 87q135 0 222.5 -78.5t87.5 -207.5zM169 301q0 -134 51.5 -216.5t137.5 -82.5q84 0 128 69t44 199q0 133 -51.5 215.5t-138.5 82.5q-83 0 -127 -69t-44 -198zM322 619l-9 4
l32 111q4 15 10.5 22t14.5 7q7 0 11 -4t4 -11q0 -5 -2 -11t-5 -13zM430 619l-9 4l32 111q4 15 10.5 22t14.5 7q7 0 11 -4t4 -11q0 -5 -2 -11t-5 -13z" />
    <glyph glyph-name="ohungarumlaut" unicode="&#x151;" horiz-adv-x="453" 
d="M429 186q0 -85 -59.5 -140.5t-144.5 -55.5q-89 0 -145 50t-56 136q0 84 60 140t144 56q89 0 145 -50t56 -136zM138 191q0 -90 24 -139.5t67 -49.5t64.5 42.5t21.5 126.5q0 90 -24 139.5t-67 49.5t-64.5 -42.5t-21.5 -126.5zM182 409l-8 3l44 171q4 16 10 23t15 7
q8 0 12.5 -4t4.5 -11q0 -4 -2 -11t-7 -18zM296 409l-8 3l44 171q4 16 10 23t15 7q8 0 12.5 -4t4.5 -11q0 -4 -2 -11t-7 -18z" />
    <glyph glyph-name="OE" unicode="&#x152;" horiz-adv-x="874" 
d="M383 -10q-153 0 -247.5 77.5t-94.5 208.5q0 135 96.5 219.5t245.5 84.5q21 0 40.5 -2.5t36.5 -7.5h271q23 0 40.5 2.5t27.5 7.5l3 -1v-172h-8l-15 86q-6 33 -16 44t-39 12l-217 4q66 -32 107 -93.5t48 -140.5h67q7 0 10.5 2.5t4.5 7.5l9 56h8v-192h-8l-9 55
q-1 5 -4.5 7.5t-10.5 2.5h-66q-7 -81 -48 -144.5t-108 -96.5l248 5q26 1 38.5 11t18.5 35l29 115h8l-14 -183h-375q-17 -5 -36.5 -7.5t-40.5 -2.5zM169 301q0 -133 55 -214.5t150 -84.5v566q-102 -2 -153.5 -69t-51.5 -198zM488 547v-228h159q-7 78 -49 138.5t-110 89.5z
M648 258h-160v-234q69 29 111 91t49 143z" />
    <glyph glyph-name="oe" unicode="&#x153;" horiz-adv-x="682" 
d="M362 53q-25 -29 -61.5 -46t-75.5 -17q-89 0 -145 50t-56 136q0 84 60 140t144 56q48 0 89 -16.5t67 -46.5q25 32 58.5 47.5t76.5 15.5q67 0 106 -30t40 -84l-1 -3h-231q-1 -5 -1 -11v-18q0 -79 36.5 -121t104.5 -42q26 0 50 11t44 31l5 -4q-20 -52 -65 -81.5t-105 -29.5
q-44 0 -80 16.5t-60 46.5zM138 191q0 -90 24 -139.5t67 -49.5t64.5 42.5t21.5 126.5q0 90 -24 139.5t-67 49.5t-64.5 -42.5t-21.5 -126.5zM571 286q0 33 -17.5 53.5t-44.5 20.5q-31 0 -50 -23.5t-25 -69.5h122q8 0 11.5 4.5t3.5 14.5z" />
    <glyph glyph-name="Racute" unicode="&#x154;" horiz-adv-x="618" 
d="M289 12v-12h-251v12h56q6 0 9.5 3.5t3.5 9.5v520q0 6 -3.5 9.5t-9.5 3.5h-56v12h265q93 0 150 -40.5t57 -106.5q0 -47 -36 -83t-98 -53l178 -261q5 -7 9.5 -9t17.5 -3l27 -2v-12h-132q-27 0 -38 5.5t-22 23.5l-138 225h-58v-229q0 -6 3.5 -9.5t9.5 -3.5h56zM266 558h-46
v-282h45q64 0 94.5 34t30.5 104q0 69 -32 106.5t-92 37.5zM271 619l-8 4l35 108q6 18 12 25t14 7q7 0 11.5 -4t4.5 -11q0 -6 -2.5 -13.5t-7.5 -14.5z" />
    <glyph glyph-name="racute" unicode="&#x155;" horiz-adv-x="328" 
d="M240 12v-12h-223v12h36q6 0 9.5 3.5t3.5 9.5v264l-44 27v6l149 50l4 -3l-4 -70v-17q36 47 62.5 68.5t46.5 21.5q14 0 23.5 -8.5t9.5 -21.5q0 -8 -4 -25t-11 -43l-5 -2q-30 11 -42.5 14t-21.5 3q-18 0 -31.5 -4t-26.5 -14v-246q0 -6 3.5 -9.5t9.5 -3.5h56zM186 409l-8 4
l62 169q6 16 12.5 23.5t14.5 7.5q7 0 12 -4.5t5 -11.5q0 -4 -1.5 -8.5t-8.5 -18.5z" />
    <glyph glyph-name="Rcommaaccent" unicode="&#x156;" horiz-adv-x="618" 
d="M289 12v-12h-251v12h56q6 0 9.5 3.5t3.5 9.5v520q0 6 -3.5 9.5t-9.5 3.5h-56v12h265q93 0 150 -40.5t57 -106.5q0 -47 -36 -83t-98 -53l178 -261q5 -7 9.5 -9t17.5 -3l27 -2v-12h-132q-27 0 -38 5.5t-22 23.5l-138 225h-58v-229q0 -6 3.5 -9.5t9.5 -3.5h56zM266 558h-46
v-282h45q64 0 94.5 34t30.5 104q0 69 -32 106.5t-92 37.5zM391 -103q0 -38 -23.5 -65.5t-67.5 -40.5l-4 10q34 11 52.5 28.5t18.5 38.5q0 16 -14 26.5t-50 22.5q7 19 16.5 27.5t23.5 8.5q22 0 35 -15t13 -41z" />
    <glyph glyph-name="rcommaaccent" unicode="&#x157;" horiz-adv-x="328" 
d="M240 12v-12h-223v12h36q6 0 9.5 3.5t3.5 9.5v264l-44 27v6l149 50l4 -3l-4 -70v-17q36 47 62.5 68.5t46.5 21.5q14 0 23.5 -8.5t9.5 -21.5q0 -8 -4 -25t-11 -43l-5 -2q-30 11 -42.5 14t-21.5 3q-18 0 -31.5 -4t-26.5 -14v-246q0 -6 3.5 -9.5t9.5 -3.5h56zM154 -103
q0 -38 -23.5 -65.5t-67.5 -40.5l-4 10q34 11 52.5 28.5t18.5 38.5q0 16 -14 26.5t-50 22.5q7 19 16.5 27.5t23.5 8.5q22 0 35 -15t13 -41z" />
    <glyph glyph-name="Rcaron" unicode="&#x158;" horiz-adv-x="618" 
d="M289 12v-12h-251v12h56q6 0 9.5 3.5t3.5 9.5v520q0 6 -3.5 9.5t-9.5 3.5h-56v12h265q93 0 150 -40.5t57 -106.5q0 -47 -36 -83t-98 -53l178 -261q5 -7 9.5 -9t17.5 -3l27 -2v-12h-132q-27 0 -38 5.5t-22 23.5l-138 225h-58v-229q0 -6 3.5 -9.5t9.5 -3.5h56zM266 558h-46
v-282h45q64 0 94.5 34t30.5 104q0 69 -32 106.5t-92 37.5zM360 761l8 -5l-77 -119q-7 -10 -13.5 -14.5t-14.5 -4.5t-14 4t-13 15l-77 119l8 5l96 -105h1z" />
    <glyph glyph-name="rcaron" unicode="&#x159;" horiz-adv-x="328" 
d="M240 12v-12h-223v12h36q6 0 9.5 3.5t3.5 9.5v264l-44 27v6l149 50l4 -3l-4 -70v-17q36 47 62.5 68.5t46.5 21.5q14 0 23.5 -8.5t9.5 -21.5q0 -8 -4 -25t-11 -43l-5 -2q-30 11 -42.5 14t-21.5 3q-18 0 -31.5 -4t-26.5 -14v-246q0 -6 3.5 -9.5t9.5 -3.5h56zM153 431
l-84 175l8 5l103 -160h1l103 160l8 -5l-84 -175q-6 -12 -12.5 -17.5t-15.5 -5.5t-15 5t-12 18z" />
    <glyph glyph-name="Sacute" unicode="&#x15a;" horiz-adv-x="473" 
d="M429 164q0 -80 -61.5 -127t-157.5 -47q-39 0 -78 9.5t-81 28.5l-10 181h8l14 -53q20 -77 60.5 -115t102.5 -38q48 0 77.5 28t29.5 75q0 42 -23.5 73.5t-101.5 72.5q-84 44 -110 80.5t-26 85.5q0 72 54 117t136 45q38 0 73 -8t63 -23l8 -146h-8l-10 42q-15 63 -46.5 93
t-83.5 30q-42 0 -69.5 -26t-27.5 -65q0 -36 22.5 -64t97.5 -67q46 -24 67 -38.5t36 -30.5q23 -23 34 -51t11 -62zM261 619l-8 4l35 108q6 18 12 25t14 7q7 0 11.5 -4t4.5 -11q0 -6 -2.5 -13.5t-7.5 -14.5z" />
    <glyph glyph-name="sacute" unicode="&#x15b;" horiz-adv-x="344" 
d="M311 107q0 -53 -44 -85t-111 -32q-29 0 -57 5.5t-53 15.5l-17 135h8q28 -77 57.5 -110.5t73.5 -33.5q27 0 45.5 15.5t18.5 38.5q0 22 -14.5 39.5t-63.5 42.5q-62 32 -82 59t-20 64q0 52 38 81.5t105 29.5q23 0 52 -7t47 -17l2 -106h-8q-16 61 -40.5 89.5t-61.5 28.5
q-24 0 -39.5 -14t-15.5 -36t15 -39.5t64 -42.5q62 -32 81.5 -58.5t19.5 -62.5zM176 409l-8 4l62 169q6 16 12.5 23.5t14.5 7.5q7 0 12 -4.5t5 -11.5q0 -4 -1.5 -8.5t-8.5 -18.5z" />
    <glyph glyph-name="Scircumflex" unicode="&#x15c;" horiz-adv-x="473" 
d="M429 164q0 -80 -61.5 -127t-157.5 -47q-39 0 -78 9.5t-81 28.5l-10 181h8l14 -53q20 -77 60.5 -115t102.5 -38q48 0 77.5 28t29.5 75q0 42 -23.5 73.5t-101.5 72.5q-84 44 -110 80.5t-26 85.5q0 72 54 117t136 45q38 0 73 -8t63 -23l8 -146h-8l-10 42q-15 63 -46.5 93
t-83.5 30q-42 0 -69.5 -26t-27.5 -65q0 -36 22.5 -64t97.5 -67q46 -24 67 -38.5t36 -30.5q23 -23 34 -51t11 -62zM280 744l77 -119l-8 -5l-96 105h-1l-96 -105l-8 5l77 119q7 11 13 15t14 4t14.5 -4.5t13.5 -14.5z" />
    <glyph glyph-name="scircumflex" unicode="&#x15d;" horiz-adv-x="344" 
d="M311 107q0 -53 -44 -85t-111 -32q-29 0 -57 5.5t-53 15.5l-17 135h8q28 -77 57.5 -110.5t73.5 -33.5q27 0 45.5 15.5t18.5 38.5q0 22 -14.5 39.5t-63.5 42.5q-62 32 -82 59t-20 64q0 52 38 81.5t105 29.5q23 0 52 -7t47 -17l2 -106h-8q-16 61 -40.5 89.5t-61.5 28.5
q-24 0 -39.5 -14t-15.5 -36t15 -39.5t64 -42.5q62 -32 81.5 -58.5t19.5 -62.5zM198 590l84 -175l-8 -5l-103 160h-1l-103 -160l-8 5l84 175q6 12 12.5 17.5t15.5 5.5t15 -5t12 -18z" />
    <glyph glyph-name="Scedilla" unicode="&#x15e;" horiz-adv-x="473" 
d="M218 -10h-8q-39 0 -78 9.5t-81 28.5l-10 181h8l14 -53q20 -77 60.5 -115t102.5 -38q48 0 77.5 28t29.5 75q0 42 -23.5 73.5t-101.5 72.5q-84 44 -110 80.5t-26 85.5q0 72 54 117t136 45q38 0 73 -8t63 -23l8 -146h-8l-10 42q-15 63 -46.5 93t-83.5 30q-42 0 -69.5 -26
t-27.5 -65q0 -36 22.5 -64t97.5 -67q46 -24 67 -38.5t36 -30.5q23 -23 34 -51t11 -62q0 -75 -54.5 -121.5t-144.5 -51.5l-28 -52q42 -11 65 -33.5t23 -50.5q0 -33 -31.5 -54.5t-74.5 -21.5q-20 0 -30 6t-10 18q0 6 3.5 11.5t13.5 16.5q17 -18 31.5 -26t33.5 -8q17 0 28 11
t11 28q0 24 -23.5 44t-65.5 31v4z" />
    <glyph glyph-name="scedilla" unicode="&#x15f;" horiz-adv-x="344" 
d="M311 107q0 -26 -11.5 -48t-33.5 -39l-74 -57q-9 -7 -11 -9t-2 -4t3 -5t14 -11q32 -23 44.5 -41.5t12.5 -37.5q0 -33 -31.5 -54.5t-74.5 -21.5q-20 0 -30 6t-10 18q0 6 3.5 11.5t13.5 16.5q17 -18 31.5 -26t33.5 -8q17 0 28 11t11 28t-9.5 31.5t-38.5 35.5
q-19 14 -24.5 21t-5.5 14q0 5 3 10t10 9l65 45q-18 -6 -34.5 -9t-37.5 -3q-29 0 -57 5.5t-53 15.5l-17 135h8q28 -77 57.5 -110.5t73.5 -33.5q27 0 45.5 15.5t18.5 38.5q0 22 -14.5 39.5t-63.5 42.5q-62 32 -82 59t-20 64q0 52 38 81.5t105 29.5q23 0 52 -7t47 -17l2 -106
h-8q-16 61 -40.5 89.5t-61.5 28.5q-24 0 -39.5 -14t-15.5 -36t15 -39.5t64 -42.5q62 -32 81.5 -58.5t19.5 -62.5z" />
    <glyph glyph-name="Scaron" unicode="&#x160;" horiz-adv-x="473" 
d="M429 164q0 -80 -61.5 -127t-157.5 -47q-39 0 -78 9.5t-81 28.5l-10 181h8l14 -53q20 -77 60.5 -115t102.5 -38q48 0 77.5 28t29.5 75q0 42 -23.5 73.5t-101.5 72.5q-84 44 -110 80.5t-26 85.5q0 72 54 117t136 45q38 0 73 -8t63 -23l8 -146h-8l-10 42q-15 63 -46.5 93
t-83.5 30q-42 0 -69.5 -26t-27.5 -65q0 -36 22.5 -64t97.5 -67q46 -24 67 -38.5t36 -30.5q23 -23 34 -51t11 -62zM350 761l8 -5l-77 -119q-7 -10 -13.5 -14.5t-14.5 -4.5t-14 4t-13 15l-77 119l8 5l96 -105h1z" />
    <glyph glyph-name="scaron" unicode="&#x161;" horiz-adv-x="344" 
d="M311 107q0 -53 -44 -85t-111 -32q-29 0 -57 5.5t-53 15.5l-17 135h8q28 -77 57.5 -110.5t73.5 -33.5q27 0 45.5 15.5t18.5 38.5q0 22 -14.5 39.5t-63.5 42.5q-62 32 -82 59t-20 64q0 52 38 81.5t105 29.5q23 0 52 -7t47 -17l2 -106h-8q-16 61 -40.5 89.5t-61.5 28.5
q-24 0 -39.5 -14t-15.5 -36t15 -39.5t64 -42.5q62 -32 81.5 -58.5t19.5 -62.5zM143 431l-84 175l8 5l103 -160h1l103 160l8 -5l-84 -175q-6 -12 -12.5 -17.5t-15.5 -5.5t-15 5t-12 18z" />
    <glyph glyph-name="uni0162" unicode="&#x162;" horiz-adv-x="550" 
d="M400 12v-12h-251v12h56q6 0 9.5 3.5t3.5 9.5v528l-121 -3q-29 -1 -39 -12t-16 -45l-15 -86h-8v172l3 1q10 -5 27.5 -7.5t40.5 -2.5h370q23 0 40.5 2.5t27.5 7.5l3 -1v-172h-8l-15 86q-6 34 -16 45t-39 12l-122 3v-528q0 -6 3.5 -9.5t9.5 -3.5h56zM343 -103
q0 -38 -23.5 -65.5t-67.5 -40.5l-4 10q34 11 52.5 28.5t18.5 38.5q0 16 -14 26.5t-50 22.5q7 19 16.5 27.5t23.5 8.5q22 0 35 -15t13 -41z" />
    <glyph glyph-name="uni0163" unicode="&#x163;" horiz-adv-x="312" 
d="M166 -10q-44 0 -71 28.5t-27 75.5v211h-56v8l148 128h8v-79h130v-57h-130v-178q0 -38 19 -57.5t57 -19.5q15 0 28 3.5t28 10.5l3 -6q-27 -32 -63.5 -50t-73.5 -18zM229 -103q0 -38 -23.5 -65.5t-67.5 -40.5l-4 10q34 11 52.5 28.5t18.5 38.5q0 16 -14 26.5t-50 22.5
q7 19 16.5 27.5t23.5 8.5q22 0 35 -15t13 -41z" />
    <glyph glyph-name="Tcaron" unicode="&#x164;" horiz-adv-x="550" 
d="M400 12v-12h-251v12h56q6 0 9.5 3.5t3.5 9.5v528l-121 -3q-29 -1 -39 -12t-16 -45l-15 -86h-8v172l3 1q10 -5 27.5 -7.5t40.5 -2.5h370q23 0 40.5 2.5t27.5 7.5l3 -1v-172h-8l-15 86q-6 34 -16 45t-39 12l-122 3v-528q0 -6 3.5 -9.5t9.5 -3.5h56zM391 761l8 -5l-77 -119
q-7 -10 -13.5 -14.5t-14.5 -4.5t-14 4t-13 15l-77 119l8 5l96 -105h1z" />
    <glyph glyph-name="tcaron" unicode="&#x165;" horiz-adv-x="312" 
d="M166 -10q-44 0 -71 28.5t-27 75.5v211h-56v8l148 128h8v-79h130v-57h-130v-178q0 -38 19 -57.5t57 -19.5q15 0 28 3.5t28 10.5l3 -6q-27 -32 -63.5 -50t-73.5 -18zM254 410l-8 1l16 166q2 18 7.5 27.5t14.5 9.5q8 0 12 -4t4 -12q0 -4 -1 -11t-3 -16z" />
    <glyph glyph-name="Tbar" unicode="&#x166;" horiz-adv-x="550" 
d="M218 278h-133v22h133v253l-121 -3q-29 -1 -39 -12t-16 -45l-15 -86h-8v172l3 1q10 -5 27.5 -7.5t40.5 -2.5h370q23 0 40.5 2.5t27.5 7.5l3 -1v-172h-8l-15 86q-6 34 -16 45t-39 12l-122 3v-253h133v-22h-133v-253q0 -6 3.5 -9.5t9.5 -3.5h56v-12h-251v12h56q6 0 9.5 3.5
t3.5 9.5v253z" />
    <glyph glyph-name="tbar" unicode="&#x167;" horiz-adv-x="312" 
d="M166 -10q-44 0 -71 28.5t-27 75.5v86h-45v20h45v105h-56v8l148 128h8v-79h130v-57h-130v-105h117v-20h-117v-53q0 -38 19 -57.5t57 -19.5q15 0 28 3.5t28 10.5l3 -6q-27 -32 -63.5 -50t-73.5 -18z" />
    <glyph glyph-name="Utilde" unicode="&#x168;" horiz-adv-x="657" 
d="M339 -10q-112 0 -172 55t-60 159v341q0 6 -3.5 9.5t-9.5 3.5h-56v12h251v-12h-56q-6 0 -9.5 -3.5t-3.5 -9.5v-338q0 -96 35.5 -142t110.5 -46q76 0 117.5 53t41.5 149v324q0 6 -3.5 9.5t-9.5 3.5h-56v12h163v-12h-56q-6 0 -9.5 -3.5t-3.5 -9.5v-324q0 -112 -54.5 -171.5
t-156.5 -59.5zM427 658q-7 0 -17.5 3t-36.5 14q-27 11 -39 14.5t-20 3.5q-12 0 -18.5 -5t-16.5 -26l-14 -30l-8 3l12 42q8 29 19 40.5t30 11.5q6 0 16.5 -3t36.5 -14q27 -11 38.5 -14.5t19.5 -3.5q10 0 17 4.5t20 28.5l15 28l8 -3l-13 -40q-12 -34 -22 -44t-27 -10z" />
    <glyph glyph-name="utilde" unicode="&#x169;" horiz-adv-x="454" 
d="M167 -10q-53 0 -81 32t-28 92v175l-44 27v6l149 50l4 -3l-4 -70v-164q0 -42 17 -64t49 -22q15 0 28.5 4.5t30.5 14.5v221l-44 27v6l149 50l4 -3l-4 -70v-226l44 -27v-6l-149 -50l-4 3l4 65q-32 -33 -63 -50.5t-58 -17.5zM277 481q-7 0 -19 3t-41 12q-30 11 -43 14t-22 3
q-11 0 -18 -5t-17 -25l-21 -41l-8 3l18 56q9 28 21 39.5t31 11.5q7 0 19 -3t41 -12q30 -11 43 -14t22 -3q12 0 20 6.5t17 25.5l20 40l8 -3l-19 -55q-10 -30 -21.5 -41.5t-30.5 -11.5z" />
    <glyph glyph-name="Umacron" unicode="&#x16a;" horiz-adv-x="657" 
d="M339 -10q-112 0 -172 55t-60 159v341q0 6 -3.5 9.5t-9.5 3.5h-56v12h251v-12h-56q-6 0 -9.5 -3.5t-3.5 -9.5v-338q0 -96 35.5 -142t110.5 -46q76 0 117.5 53t41.5 149v324q0 6 -3.5 9.5t-9.5 3.5h-56v12h163v-12h-56q-6 0 -9.5 -3.5t-3.5 -9.5v-324q0 -112 -54.5 -171.5
t-156.5 -59.5zM472 678h-208v35h208v-35z" />
    <glyph glyph-name="umacron" unicode="&#x16b;" horiz-adv-x="454" 
d="M167 -10q-53 0 -81 32t-28 92v175l-44 27v6l149 50l4 -3l-4 -70v-164q0 -42 17 -64t49 -22q15 0 28.5 4.5t30.5 14.5v221l-44 27v6l149 50l4 -3l-4 -70v-226l44 -27v-6l-149 -50l-4 3l4 65q-32 -33 -63 -50.5t-58 -17.5zM340 513h-248v35h248v-35z" />
    <glyph glyph-name="Ubreve" unicode="&#x16c;" horiz-adv-x="657" 
d="M339 -10q-112 0 -172 55t-60 159v341q0 6 -3.5 9.5t-9.5 3.5h-56v12h251v-12h-56q-6 0 -9.5 -3.5t-3.5 -9.5v-338q0 -96 35.5 -142t110.5 -46q76 0 117.5 53t41.5 149v324q0 6 -3.5 9.5t-9.5 3.5h-56v12h163v-12h-56q-6 0 -9.5 -3.5t-3.5 -9.5v-324q0 -112 -54.5 -171.5
t-156.5 -59.5zM368 620q-44 0 -69.5 30.5t-32.5 91.5l10 1q9 -44 30.5 -63t61.5 -19t62 19.5t30 62.5l10 -1q-6 -60 -31.5 -91t-70.5 -31z" />
    <glyph glyph-name="ubreve" unicode="&#x16d;" horiz-adv-x="454" 
d="M167 -10q-53 0 -81 32t-28 92v175l-44 27v6l149 50l4 -3l-4 -70v-164q0 -42 17 -64t49 -22q15 0 28.5 4.5t30.5 14.5v221l-44 27v6l149 50l4 -3l-4 -70v-226l44 -27v-6l-149 -50l-4 3l4 65q-32 -33 -63 -50.5t-58 -17.5zM217 428q-50 0 -80.5 39t-37.5 111l10 1
q8 -56 34 -83t74 -27t74 27t34 83l10 -1q-7 -72 -37.5 -111t-80.5 -39z" />
    <glyph glyph-name="Uring" unicode="&#x16e;" horiz-adv-x="657" 
d="M339 -10q-112 0 -172 55t-60 159v341q0 6 -3.5 9.5t-9.5 3.5h-56v12h251v-12h-56q-6 0 -9.5 -3.5t-3.5 -9.5v-338q0 -96 35.5 -142t110.5 -46q76 0 117.5 53t41.5 149v324q0 6 -3.5 9.5t-9.5 3.5h-56v12h163v-12h-56q-6 0 -9.5 -3.5t-3.5 -9.5v-324q0 -112 -54.5 -171.5
t-156.5 -59.5zM370 751q35 0 59.5 -19.5t24.5 -49.5q0 -33 -25 -54.5t-61 -21.5q-38 0 -61.5 19t-23.5 50q0 34 24.5 55t62.5 21zM371 622q25 0 38 14.5t13 41.5q0 24 -16 41t-40 17q-23 0 -37.5 -16t-14.5 -41q0 -24 16.5 -40.5t40.5 -16.5z" />
    <glyph glyph-name="uring" unicode="&#x16f;" horiz-adv-x="454" 
d="M167 -10q-53 0 -81 32t-28 92v175l-44 27v6l149 50l4 -3l-4 -70v-164q0 -42 17 -64t49 -22q15 0 28.5 4.5t30.5 14.5v221l-44 27v6l149 50l4 -3l-4 -70v-226l44 -27v-6l-149 -50l-4 3l4 65q-32 -33 -63 -50.5t-58 -17.5zM219 586q36 0 61.5 -20.5t25.5 -52.5
q0 -35 -25.5 -57.5t-63.5 -22.5q-39 0 -63.5 20t-24.5 53q0 36 25.5 58t64.5 22zM220 449q26 0 39.5 15.5t13.5 44.5q0 26 -16 44t-42 18q-25 0 -39.5 -17t-14.5 -44q0 -26 16.5 -43.5t42.5 -17.5z" />
    <glyph glyph-name="Uhungarumlaut" unicode="&#x170;" horiz-adv-x="657" 
d="M339 -10q-112 0 -172 55t-60 159v341q0 6 -3.5 9.5t-9.5 3.5h-56v12h251v-12h-56q-6 0 -9.5 -3.5t-3.5 -9.5v-338q0 -96 35.5 -142t110.5 -46q76 0 117.5 53t41.5 149v324q0 6 -3.5 9.5t-9.5 3.5h-56v12h163v-12h-56q-6 0 -9.5 -3.5t-3.5 -9.5v-324q0 -112 -54.5 -171.5
t-156.5 -59.5zM319 619l-9 4l32 111q4 15 10.5 22t14.5 7q7 0 11 -4t4 -11q0 -5 -2 -11t-5 -13zM427 619l-9 4l32 111q4 15 10.5 22t14.5 7q7 0 11 -4t4 -11q0 -5 -2 -11t-5 -13z" />
    <glyph glyph-name="uhungarumlaut" unicode="&#x171;" horiz-adv-x="454" 
d="M167 -10q-53 0 -81 32t-28 92v175l-44 27v6l149 50l4 -3l-4 -70v-164q0 -42 17 -64t49 -22q15 0 28.5 4.5t30.5 14.5v221l-44 27v6l149 50l4 -3l-4 -70v-226l44 -27v-6l-149 -50l-4 3l4 65q-32 -33 -63 -50.5t-58 -17.5zM165 409l-8 3l44 171q4 16 10 23t15 7
q8 0 12.5 -4t4.5 -11q0 -4 -2 -11t-7 -18zM279 409l-8 3l44 171q4 16 10 23t15 7q8 0 12.5 -4t4.5 -11q0 -4 -2 -11t-7 -18z" />
    <glyph glyph-name="Uogonek" unicode="&#x172;" horiz-adv-x="657" 
d="M366 -9q-5 -1 -10.5 -1h-16.5q-112 0 -172 55t-60 159v341q0 6 -3.5 9.5t-9.5 3.5h-56v12h251v-12h-56q-6 0 -9.5 -3.5t-3.5 -9.5v-338q0 -96 35.5 -142t110.5 -46q76 0 117.5 53t41.5 149v324q0 6 -3.5 9.5t-9.5 3.5h-56v12h163v-12h-56q-6 0 -9.5 -3.5t-3.5 -9.5v-324
q0 -97 -41.5 -155t-119.5 -72q-34 -43 -45.5 -69t-11.5 -53t16 -44t43 -17q16 0 30.5 5t26.5 15l6 -6q-13 -20 -34.5 -33t-43.5 -13q-35 0 -58 20.5t-23 52.5q0 28 16 60.5t55 78.5z" />
    <glyph glyph-name="uogonek" unicode="&#x173;" horiz-adv-x="454" 
d="M167 -10q-53 0 -81 32t-28 92v175l-44 27v6l149 50l4 -3l-4 -70v-164q0 -42 17 -64t49 -22q15 0 28.5 4.5t30.5 14.5v221l-44 27v6l149 50l4 -3l-4 -70v-226l44 -27v-6q-3 -1 -6 -2.5t-11 -4.5q-7 -3 -11 -5t-9 -4q-79 -36 -112 -71.5t-33 -80.5q0 -27 16 -44t43 -17
q16 0 30.5 5t26.5 15l6 -6q-13 -20 -34.5 -33t-43.5 -13q-35 0 -58 21t-23 56q0 25 17.5 55.5t48.5 60.5l4 86q-32 -33 -63 -50.5t-58 -17.5z" />
    <glyph glyph-name="Wcircumflex" unicode="&#x174;" horiz-adv-x="849" 
d="M311 -10h-13l-252 536q-10 22 -14.5 27t-13.5 5h-17v12h225v-12h-46q-14 0 -17 -5.5t2 -16.5l193 -407l72 144l-124 272q-4 9 -8 11t-14 2h-23v12h225v-12h-44q-8 0 -11.5 -4.5t-0.5 -11.5l86 -185l68 180q4 11 2 16t-11 5h-53v12h155v-12h-44q-9 0 -13 -3.5t-10 -17.5
l-85 -200l91 -197l165 398q5 11 1.5 15.5t-15.5 4.5h-44v12h125v-12h-19q-7 0 -11.5 -4.5t-9.5 -16.5l-235 -547h-13l-120 261zM545 744l77 -119l-8 -5l-96 105h-1l-96 -105l-8 5l77 119q7 11 13 15t14 4t14.5 -4.5t13.5 -14.5z" />
    <glyph glyph-name="wcircumflex" unicode="&#x175;" horiz-adv-x="609" 
d="M202 -15h-9l-155 352q-4 8 -7.5 10.5t-9.5 2.5h-17v12h185v-12h-27q-7 0 -9 -5t1 -13l85 -217l53 129l-41 95q-2 6 -6 8.5t-12 2.5h-14v12h200v-12h-43q-8 0 -10 -5t2 -14l83 -213l86 212q4 10 -0.5 15t-16.5 5h-38v12h123v-12h-22q-7 0 -12 -4.5t-10 -16.5l-148 -344h-9
l-101 235zM338 590l84 -175l-8 -5l-103 160h-1l-103 -160l-8 5l84 175q6 12 12.5 17.5t15.5 5.5t15 -5t12 -18z" />
    <glyph glyph-name="Ycircumflex" unicode="&#x176;" horiz-adv-x="568" 
d="M409 12v-12h-251v12h56q6 0 9.5 3.5t3.5 9.5v214l-180 311q-3 5 -6 6.5t-11 1.5h-21v12h251v-12l-65 -1q-9 0 -12 -4t1 -11l149 -272l150 271q4 7 2.5 11.5t-7.5 4.5l-67 1v12h155v-12l-32 -1q-7 0 -10.5 -2t-7.5 -8l-176 -300v-222q0 -6 3.5 -9.5t9.5 -3.5h56zM360 744
l77 -119l-8 -5l-96 105h-1l-96 -105l-8 5l77 119q7 11 13 15t14 4t14.5 -4.5t13.5 -14.5z" />
    <glyph glyph-name="ycircumflex" unicode="&#x177;" horiz-adv-x="409" 
d="M86 -280q-14 0 -23.5 9.5t-19.5 30.5q49 24 67.5 42.5t41.5 66.5l44 92l-155 366q-5 13 -10 18t-14 5h-17v12h207v-12h-38q-8 0 -11.5 -5.5t-0.5 -13.5l93 -224h2l86 223q3 9 0.5 14.5t-10.5 5.5h-38v12h119v-12h-23q-8 0 -14.5 -5.5t-10.5 -16.5l-204 -500
q-25 -63 -40 -85.5t-31 -22.5zM251 590l84 -175l-8 -5l-103 160h-1l-103 -160l-8 5l84 175q6 12 12.5 17.5t15.5 5.5t15 -5t12 -18z" />
    <glyph glyph-name="Ydieresis" unicode="&#x178;" horiz-adv-x="568" 
d="M409 12v-12h-251v12h56q6 0 9.5 3.5t3.5 9.5v214l-180 311q-3 5 -6 6.5t-11 1.5h-21v12h251v-12l-65 -1q-9 0 -12 -4t1 -11l149 -272l150 271q4 7 2.5 11.5t-7.5 4.5l-67 1v12h155v-12l-32 -1q-7 0 -10.5 -2t-7.5 -8l-176 -300v-222q0 -6 3.5 -9.5t9.5 -3.5h56zM302 701
q0 -15 -10 -25t-25 -10t-24.5 9.5t-9.5 25.5q0 15 9.5 24.5t24.5 9.5t25 -10t10 -24zM438 701q0 -15 -10 -25t-25 -10t-24.5 9.5t-9.5 25.5q0 15 9.5 24.5t24.5 9.5t25 -10t10 -24z" />
    <glyph glyph-name="Zacute" unicode="&#x179;" horiz-adv-x="516" 
d="M509 183l-14 -183h-485v14l346 539l-236 -3q-28 0 -38.5 -11t-16.5 -46l-15 -86h-8v172l3 1q10 -5 27.5 -7.5t40.5 -2.5h379v-14l-346 -539l269 5q26 1 38.5 11t18.5 35l29 115h8zM291 619l-8 4l35 108q6 18 12 25t14 7q7 0 11.5 -4t4.5 -11q0 -6 -2.5 -13.5t-7.5 -14.5z
" />
    <glyph glyph-name="zacute" unicode="&#x17a;" horiz-adv-x="367" 
d="M350 134l-16 -134h-319v14l209 336h-124q-11 0 -15 -2.5t-7 -10.5l-34 -95h-8l3 120h304v-13l-207 -337h136q10 0 14.5 2.5t7.5 10.5l48 109h8zM204 409l-8 4l62 169q6 16 12.5 23.5t14.5 7.5q7 0 12 -4.5t5 -11.5q0 -4 -1.5 -8.5t-8.5 -18.5z" />
    <glyph glyph-name="Zdotaccent" unicode="&#x17b;" horiz-adv-x="516" 
d="M509 183l-14 -183h-485v14l346 539l-236 -3q-28 0 -38.5 -11t-16.5 -46l-15 -86h-8v172l3 1q10 -5 27.5 -7.5t40.5 -2.5h379v-14l-346 -539l269 5q26 1 38.5 11t18.5 35l29 115h8zM325 697q0 -17 -11 -28t-28 -11t-27.5 11t-10.5 28q0 16 11 27t27 11t27.5 -11t11.5 -27z
" />
    <glyph glyph-name="zdotaccent" unicode="&#x17c;" horiz-adv-x="367" 
d="M350 134l-16 -134h-319v14l209 336h-124q-11 0 -15 -2.5t-7 -10.5l-34 -95h-8l3 120h304v-13l-207 -337h136q10 0 14.5 2.5t7.5 10.5l48 109h8zM237 542q0 -15 -10 -25t-25 -10t-24.5 9.5t-9.5 25.5q0 15 9.5 24.5t24.5 9.5t25 -10t10 -24z" />
    <glyph glyph-name="Zcaron" unicode="&#x17d;" horiz-adv-x="516" 
d="M509 183l-14 -183h-485v14l346 539l-236 -3q-28 0 -38.5 -11t-16.5 -46l-15 -86h-8v172l3 1q10 -5 27.5 -7.5t40.5 -2.5h379v-14l-346 -539l269 5q26 1 38.5 11t18.5 35l29 115h8zM380 761l8 -5l-77 -119q-7 -10 -13.5 -14.5t-14.5 -4.5t-14 4t-13 15l-77 119l8 5
l96 -105h1z" />
    <glyph glyph-name="zcaron" unicode="&#x17e;" horiz-adv-x="367" 
d="M350 134l-16 -134h-319v14l209 336h-124q-11 0 -15 -2.5t-7 -10.5l-34 -95h-8l3 120h304v-13l-207 -337h136q10 0 14.5 2.5t7.5 10.5l48 109h8zM171 431l-84 175l8 5l103 -160h1l103 160l8 -5l-84 -175q-6 -12 -12.5 -17.5t-15.5 -5.5t-15 5t-12 18z" />
    <glyph glyph-name="uni0191" unicode="&#x191;" horiz-adv-x="510" 
d="M220 238v-205q0 -60 -40 -103.5t-155 -101.5l-4 7q50 33 68 66.5t18 87.5v556q0 6 -3.5 9.5t-9.5 3.5h-56v12h353q23 0 40.5 2.5t27.5 7.5l3 -1v-172h-8l-15 86q-6 34 -16 45t-39 12l-164 3v-254h169q7 0 10.5 2.5t4.5 7.5l9 56h8v-202h-8l-9 65q-1 5 -4.5 7.5t-10.5 2.5
h-169z" />
    <glyph glyph-name="florin" unicode="&#x192;" horiz-adv-x="422" 
d="M87 -280q-40 0 -70.5 12t-30.5 30q0 6 7 16.5t28 37.5q57 -54 75.5 -66.5t34.5 -12.5q26 0 39.5 38.5t13.5 114.5v397h-92v12h92q1 138 52.5 209.5t149.5 71.5q40 0 70.5 -12t30.5 -30q0 -6 -7 -16.5t-28 -37.5q-57 54 -75.5 66.5t-34.5 12.5q-26 0 -39.5 -38.5
t-13.5 -114.5v-111h132v-12h-132v-284q0 -139 -52 -211t-150 -72z" />
    <glyph glyph-name="uni0218" unicode="&#x218;" horiz-adv-x="473" 
d="M429 164q0 -80 -61.5 -127t-157.5 -47q-39 0 -78 9.5t-81 28.5l-10 181h8l14 -53q20 -77 60.5 -115t102.5 -38q48 0 77.5 28t29.5 75q0 42 -23.5 73.5t-101.5 72.5q-84 44 -110 80.5t-26 85.5q0 72 54 117t136 45q38 0 73 -8t63 -23l8 -146h-8l-10 42q-15 63 -46.5 93
t-83.5 30q-42 0 -69.5 -26t-27.5 -65q0 -36 22.5 -64t97.5 -67q46 -24 67 -38.5t36 -30.5q23 -23 34 -51t11 -62zM276 -103q0 -38 -23.5 -65.5t-67.5 -40.5l-4 10q34 11 52.5 28.5t18.5 38.5q0 16 -14 26.5t-50 22.5q7 19 16.5 27.5t23.5 8.5q22 0 35 -15t13 -41z" />
    <glyph glyph-name="uni0219" unicode="&#x219;" horiz-adv-x="344" 
d="M311 107q0 -53 -44 -85t-111 -32q-29 0 -57 5.5t-53 15.5l-17 135h8q28 -77 57.5 -110.5t73.5 -33.5q27 0 45.5 15.5t18.5 38.5q0 22 -14.5 39.5t-63.5 42.5q-62 32 -82 59t-20 64q0 52 38 81.5t105 29.5q23 0 52 -7t47 -17l2 -106h-8q-16 61 -40.5 89.5t-61.5 28.5
q-24 0 -39.5 -14t-15.5 -36t15 -39.5t64 -42.5q62 -32 81.5 -58.5t19.5 -62.5zM215 -103q0 -38 -23.5 -65.5t-67.5 -40.5l-4 10q34 11 52.5 28.5t18.5 38.5q0 16 -14 26.5t-50 22.5q7 19 16.5 27.5t23.5 8.5q22 0 35 -15t13 -41z" />
    <glyph glyph-name="uni021A" unicode="&#x21a;" horiz-adv-x="550" 
d="M400 12v-12h-251v12h56q6 0 9.5 3.5t3.5 9.5v528l-121 -3q-29 -1 -39 -12t-16 -45l-15 -86h-8v172l3 1q10 -5 27.5 -7.5t40.5 -2.5h370q23 0 40.5 2.5t27.5 7.5l3 -1v-172h-8l-15 86q-6 34 -16 45t-39 12l-122 3v-528q0 -6 3.5 -9.5t9.5 -3.5h56zM343 -103
q0 -38 -23.5 -65.5t-67.5 -40.5l-4 10q34 11 52.5 28.5t18.5 38.5q0 16 -14 26.5t-50 22.5q7 19 16.5 27.5t23.5 8.5q22 0 35 -15t13 -41z" />
    <glyph glyph-name="uni021B" unicode="&#x21b;" horiz-adv-x="312" 
d="M166 -10q-44 0 -71 28.5t-27 75.5v211h-56v8l148 128h8v-79h130v-57h-130v-178q0 -38 19 -57.5t57 -19.5q15 0 28 3.5t28 10.5l3 -6q-27 -32 -63.5 -50t-73.5 -18zM229 -103q0 -38 -23.5 -65.5t-67.5 -40.5l-4 10q34 11 52.5 28.5t18.5 38.5q0 16 -14 26.5t-50 22.5
q7 19 16.5 27.5t23.5 8.5q22 0 35 -15t13 -41z" />
    <glyph glyph-name="dotlessj" unicode="&#x237;" horiz-adv-x="221" 
d="M171 299v-345q0 -40 -38.5 -78t-118.5 -76l-4 7q32 22 44 49.5t12 77.5v355l-44 27v6l149 50l4 -3z" />
    <glyph glyph-name="circumflex" unicode="&#x2c6;" 
d="M278 590l84 -175l-8 -5l-103 160h-1l-103 -160l-8 5l84 175q6 12 12.5 17.5t15.5 5.5t15 -5t12 -18z" />
    <glyph glyph-name="caron" unicode="&#x2c7;" 
d="M223 431l-84 175l8 5l103 -160h1l103 160l8 -5l-84 -175q-6 -12 -12.5 -17.5t-15.5 -5.5t-15 5t-12 18z" />
    <glyph glyph-name="breve" unicode="&#x2d8;" 
d="M250 428q-50 0 -80.5 39t-37.5 111l10 1q8 -56 34 -83t74 -27t74 27t34 83l10 -1q-7 -72 -37.5 -111t-80.5 -39z" />
    <glyph glyph-name="dotaccent" unicode="&#x2d9;" 
d="M285 542q0 -15 -10 -25t-25 -10t-24.5 9.5t-9.5 25.5q0 15 9.5 24.5t24.5 9.5t25 -10t10 -24z" />
    <glyph glyph-name="ring" unicode="&#x2da;" 
d="M252 586q36 0 61.5 -20.5t25.5 -52.5q0 -35 -25.5 -57.5t-63.5 -22.5q-39 0 -63.5 20t-24.5 53q0 36 25.5 58t64.5 22zM253 449q26 0 39.5 15.5t13.5 44.5q0 26 -16 44t-42 18q-25 0 -39.5 -17t-14.5 -44q0 -26 16.5 -43.5t42.5 -17.5z" />
    <glyph glyph-name="ogonek" unicode="&#x2db;" horiz-adv-x="500" 
d="M299 -221q-35 0 -58 20.5t-23 52.5q0 29 17 62.5t65 89.5l18 -2q-39 -50 -51 -76t-12 -54q0 -27 16 -44t43 -17q16 0 30.5 5t26.5 15l6 -6q-13 -20 -34.5 -33t-43.5 -13z" />
    <glyph glyph-name="tilde" unicode="&#x2dc;" 
d="M310 481q-7 0 -19 3t-41 12q-30 11 -43 14t-22 3q-11 0 -18 -5t-17 -25l-21 -41l-8 3l18 56q9 28 21 39.5t31 11.5q7 0 19 -3t41 -12q30 -11 43 -14t22 -3q12 0 20 6.5t17 25.5l20 40l8 -3l-19 -55q-10 -30 -21.5 -41.5t-30.5 -11.5z" />
    <glyph glyph-name="hungarumlaut" unicode="&#x2dd;" 
d="M160 409l-8 3l44 171q4 16 10 23t15 7q8 0 12.5 -4t4.5 -11q0 -4 -2 -11t-7 -18zM274 409l-8 3l44 171q4 16 10 23t15 7q8 0 12.5 -4t4.5 -11q0 -4 -2 -11t-7 -18z" />
    <glyph glyph-name="uni0394" unicode="&#x394;" horiz-adv-x="554" 
d="M276 580l246 -580h-490l233 580h11zM82 12h294q7 0 9.5 5.5t-1.5 13.5l-164 389l-147 -388q-3 -9 -1 -14.5t10 -5.5z" />
    <glyph glyph-name="uni03A9" unicode="&#x3a9;" horiz-adv-x="741" 
d="M742 162l-33 -162h-294v14q72 69 104.5 137.5t32.5 148.5q0 115 -52.5 190.5t-137.5 75.5q-78 0 -127 -67t-49 -169q0 -87 33 -163t104 -153v-14h-294l-33 162l8 2l17 -45q5 -12 9.5 -15.5t16.5 -3.5h196v2q-106 65 -145.5 116.5t-39.5 115.5q0 106 90 176t220 70
q134 0 223 -66t89 -170q0 -69 -42.5 -126.5t-138.5 -115.5v-2h192q12 0 16.5 3.5t9.5 15.5l17 45z" />
    <glyph glyph-name="pi" unicode="&#x3c0;" horiz-adv-x="481" 
d="M191 155q0 -75 -23 -120t-63 -45q-30 0 -52 24.5t-29 66.5l1 2q85 -6 118 11.5t33 66.5q0 34 -0.5 54.5t-1.5 39.5h-136q-11 0 -16.5 -3.5t-5.5 -10.5q0 -6 8.5 -12t33.5 -19q5 -2 21 -10t27 -13q-14 -18 -27.5 -27t-27.5 -9q-20 0 -33 17.5t-13 45.5q0 54 44.5 101
t102.5 47h279q10 0 14.5 4.5t15.5 33.5l5 -1l-9 -144h-143q-2 -24 -3 -48.5t-1 -48.5q0 -47 17.5 -68.5t55.5 -21.5q19 0 36 10t39 37l13 -7q-19 -63 -41 -90.5t-53 -27.5q-44 0 -64 36.5t-20 115.5q0 22 2.5 50.5t7.5 62.5h-116q2 -23 3 -49t1 -51z" />
    <glyph glyph-name="Wgrave" unicode="&#x1e80;" horiz-adv-x="849" 
d="M311 -10h-13l-252 536q-10 22 -14.5 27t-13.5 5h-17v12h225v-12h-46q-14 0 -17 -5.5t2 -16.5l193 -407l72 144l-124 272q-4 9 -8 11t-14 2h-23v12h225v-12h-44q-8 0 -11.5 -4.5t-0.5 -11.5l86 -185l68 180q4 11 2 16t-11 5h-53v12h155v-12h-44q-9 0 -13 -3.5t-10 -17.5
l-85 -200l91 -197l165 398q5 11 1.5 15.5t-15.5 4.5h-44v12h125v-12h-19q-7 0 -11.5 -4.5t-9.5 -16.5l-235 -547h-13l-120 261zM483 737l37 -114l-8 -4l-61 105q-6 11 -7 15.5t-1 8.5q0 7 4.5 11t11.5 4q8 0 13.5 -5t10.5 -21z" />
    <glyph glyph-name="wgrave" unicode="&#x1e81;" horiz-adv-x="609" 
d="M202 -15h-9l-155 352q-4 8 -7.5 10.5t-9.5 2.5h-17v12h185v-12h-27q-7 0 -9 -5t1 -13l85 -217l53 129l-41 95q-2 6 -6 8.5t-12 2.5h-14v12h200v-12h-43q-8 0 -10 -5t2 -14l83 -213l86 212q4 10 -0.5 15t-16.5 5h-38v12h123v-12h-22q-7 0 -12 -4.5t-10 -16.5l-148 -344h-9
l-101 235zM254 582l62 -169l-8 -4l-88 161q-7 14 -8.5 18.5t-1.5 8.5q0 7 5 11.5t12 4.5q8 0 14.5 -7.5t12.5 -23.5z" />
    <glyph glyph-name="Wacute" unicode="&#x1e82;" horiz-adv-x="849" 
d="M311 -10h-13l-252 536q-10 22 -14.5 27t-13.5 5h-17v12h225v-12h-46q-14 0 -17 -5.5t2 -16.5l193 -407l72 144l-124 272q-4 9 -8 11t-14 2h-23v12h225v-12h-44q-8 0 -11.5 -4.5t-0.5 -11.5l86 -185l68 180q4 11 2 16t-11 5h-53v12h155v-12h-44q-9 0 -13 -3.5t-10 -17.5
l-85 -200l91 -197l165 398q5 11 1.5 15.5t-15.5 4.5h-44v12h125v-12h-19q-7 0 -11.5 -4.5t-9.5 -16.5l-235 -547h-13l-120 261zM526 619l-8 4l35 108q6 18 12 25t14 7q7 0 11.5 -4t4.5 -11q0 -6 -2.5 -13.5t-7.5 -14.5z" />
    <glyph glyph-name="wacute" unicode="&#x1e83;" horiz-adv-x="609" 
d="M202 -15h-9l-155 352q-4 8 -7.5 10.5t-9.5 2.5h-17v12h185v-12h-27q-7 0 -9 -5t1 -13l85 -217l53 129l-41 95q-2 6 -6 8.5t-12 2.5h-14v12h200v-12h-43q-8 0 -10 -5t2 -14l83 -213l86 212q4 10 -0.5 15t-16.5 5h-38v12h123v-12h-22q-7 0 -12 -4.5t-10 -16.5l-148 -344h-9
l-101 235zM316 409l-8 4l62 169q6 16 12.5 23.5t14.5 7.5q7 0 12 -4.5t5 -11.5q0 -4 -1.5 -8.5t-8.5 -18.5z" />
    <glyph glyph-name="Wdieresis" unicode="&#x1e84;" horiz-adv-x="849" 
d="M311 -10h-13l-252 536q-10 22 -14.5 27t-13.5 5h-17v12h225v-12h-46q-14 0 -17 -5.5t2 -16.5l193 -407l72 144l-124 272q-4 9 -8 11t-14 2h-23v12h225v-12h-44q-8 0 -11.5 -4.5t-0.5 -11.5l86 -185l68 180q4 11 2 16t-11 5h-53v12h155v-12h-44q-9 0 -13 -3.5t-10 -17.5
l-85 -200l91 -197l165 398q5 11 1.5 15.5t-15.5 4.5h-44v12h125v-12h-19q-7 0 -11.5 -4.5t-9.5 -16.5l-235 -547h-13l-120 261zM487 701q0 -15 -10 -25t-25 -10t-24.5 9.5t-9.5 25.5q0 15 9.5 24.5t24.5 9.5t25 -10t10 -24zM623 701q0 -15 -10 -25t-25 -10t-24.5 9.5
t-9.5 25.5q0 15 9.5 24.5t24.5 9.5t25 -10t10 -24z" />
    <glyph glyph-name="wdieresis" unicode="&#x1e85;" horiz-adv-x="609" 
d="M202 -15h-9l-155 352q-4 8 -7.5 10.5t-9.5 2.5h-17v12h185v-12h-27q-7 0 -9 -5t1 -13l85 -217l53 129l-41 95q-2 6 -6 8.5t-12 2.5h-14v12h200v-12h-43q-8 0 -10 -5t2 -14l83 -213l86 212q4 10 -0.5 15t-16.5 5h-38v12h123v-12h-22q-7 0 -12 -4.5t-10 -16.5l-148 -344h-9
l-101 235zM273 542q0 -15 -10 -25t-25 -10t-24.5 9.5t-9.5 25.5q0 15 9.5 24.5t24.5 9.5t25 -10t10 -24zM423 542q0 -15 -10 -25t-25 -10t-24.5 9.5t-9.5 25.5q0 15 9.5 24.5t24.5 9.5t25 -10t10 -24z" />
    <glyph glyph-name="uni1E9E" unicode="&#x1e9e;" horiz-adv-x="659" 
d="M220 360v-360h-182v12h56q6 0 9.5 3.5t3.5 9.5v318q0 114 66 175.5t191 61.5q36 0 73.5 -7.5t65.5 -20.5q22 -10 36.5 -15.5t27.5 -8.5l2 -5l-218 -195h43q114 0 177 -42.5t63 -119.5q0 -82 -58 -129t-154 -47q-36 0 -72 9t-79 29l-10 181h8l14 -53q21 -78 56 -115.5
t88 -37.5t80 36.5t27 109.5q0 77 -40 119t-113 42h-67v5l171 162q-18 39 -55 65t-76 26q-75 0 -104.5 -44t-29.5 -164z" />
    <glyph glyph-name="Ygrave" unicode="&#x1ef2;" horiz-adv-x="568" 
d="M409 12v-12h-251v12h56q6 0 9.5 3.5t3.5 9.5v214l-180 311q-3 5 -6 6.5t-11 1.5h-21v12h251v-12l-65 -1q-9 0 -12 -4t1 -11l149 -272l150 271q4 7 2.5 11.5t-7.5 4.5l-67 1v12h155v-12l-32 -1q-7 0 -10.5 -2t-7.5 -8l-176 -300v-222q0 -6 3.5 -9.5t9.5 -3.5h56zM298 737
l37 -114l-8 -4l-61 105q-6 11 -7 15.5t-1 8.5q0 7 4.5 11t11.5 4q8 0 13.5 -5t10.5 -21z" />
    <glyph glyph-name="ygrave" unicode="&#x1ef3;" horiz-adv-x="409" 
d="M86 -280q-14 0 -23.5 9.5t-19.5 30.5q49 24 67.5 42.5t41.5 66.5l44 92l-155 366q-5 13 -10 18t-14 5h-17v12h207v-12h-38q-8 0 -11.5 -5.5t-0.5 -13.5l93 -224h2l86 223q3 9 0.5 14.5t-10.5 5.5h-38v12h119v-12h-23q-8 0 -14.5 -5.5t-10.5 -16.5l-204 -500
q-25 -63 -40 -85.5t-31 -22.5zM167 582l62 -169l-8 -4l-88 161q-7 14 -8.5 18.5t-1.5 8.5q0 7 5 11.5t12 4.5q8 0 14.5 -7.5t12.5 -23.5z" />
    <glyph glyph-name="endash" unicode="&#x2013;" horiz-adv-x="400" 
d="M380 235h-360v25h360v-25z" />
    <glyph glyph-name="emdash" unicode="&#x2014;" horiz-adv-x="800" 
d="M780 235h-760v25h760v-25z" />
    <glyph glyph-name="quoteleft" unicode="&#x2018;" horiz-adv-x="205" 
d="M43 470q0 48 29 82.5t99 67.5l4 -10q-39 -20 -57.5 -39.5t-18.5 -41.5q0 -20 16 -31.5t66 -25.5q-7 -43 -24.5 -65t-45.5 -22q-31 0 -49.5 23t-18.5 62z" />
    <glyph glyph-name="quoteright" unicode="&#x2019;" horiz-adv-x="205" 
d="M162 535q0 -48 -29 -82.5t-99 -67.5l-4 10q39 20 57.5 39.5t18.5 41.5q0 20 -16 31.5t-66 25.5q7 43 24.5 65t45.5 22q31 0 49.5 -23t18.5 -62z" />
    <glyph glyph-name="quotesinglbase" unicode="&#x201a;" horiz-adv-x="205" 
d="M162 49q0 -48 -29 -82.5t-99 -67.5l-4 10q39 20 57.5 39.5t18.5 41.5q0 20 -16 31.5t-66 25.5q7 43 24.5 65t45.5 22q31 0 49.5 -23t18.5 -62z" />
    <glyph glyph-name="quotedblleft" unicode="&#x201c;" horiz-adv-x="375" 
d="M43 470q0 48 29 82.5t99 67.5l4 -10q-39 -20 -57.5 -39.5t-18.5 -41.5q0 -20 16 -31.5t66 -25.5q-7 -43 -24.5 -65t-45.5 -22q-31 0 -49.5 23t-18.5 62zM213 470q0 48 29 82.5t99 67.5l4 -10q-39 -20 -57.5 -39.5t-18.5 -41.5q0 -20 16 -31.5t66 -25.5q-7 -43 -24.5 -65
t-45.5 -22q-31 0 -49.5 23t-18.5 62z" />
    <glyph glyph-name="quotedblright" unicode="&#x201d;" horiz-adv-x="375" 
d="M162 535q0 -48 -29 -82.5t-99 -67.5l-4 10q39 20 57.5 39.5t18.5 41.5q0 20 -16 31.5t-66 25.5q7 43 24.5 65t45.5 22q31 0 49.5 -23t18.5 -62zM332 535q0 -48 -29 -82.5t-99 -67.5l-4 10q39 20 57.5 39.5t18.5 41.5q0 20 -16 31.5t-66 25.5q7 43 24.5 65t45.5 22
q31 0 49.5 -23t18.5 -62z" />
    <glyph glyph-name="quotedblbase" unicode="&#x201e;" horiz-adv-x="376" 
d="M162 49q0 -48 -29 -82.5t-99 -67.5l-4 10q39 20 57.5 39.5t18.5 41.5q0 20 -16 31.5t-66 25.5q7 43 24.5 65t45.5 22q31 0 49.5 -23t18.5 -62zM333 49q0 -48 -29 -82.5t-99 -67.5l-4 10q39 20 57.5 39.5t18.5 41.5q0 20 -16 31.5t-66 25.5q7 43 24.5 65t45.5 22
q31 0 49.5 -23t18.5 -62z" />
    <glyph glyph-name="dagger" unicode="&#x2020;" horiz-adv-x="400" 
d="M205 446h-9q-2 23 -11.5 51t-31.5 71l1 5l42 58h9l42 -58l1 -5q-22 -43 -31.5 -71t-11.5 -51zM222 417v9q22 1 49 9.5t68 29.5l5 -1l54 -39v-8l-54 -38l-5 -1q-39 21 -66.5 30t-50.5 9zM179 426v-9q-23 0 -50.5 -9t-66.5 -30l-5 1l-54 38v8l54 39l5 1q41 -21 68 -29.5
t49 -9.5zM194 397h13q0 -86 14 -175.5t43 -191.5l-3 -8l-55 -50h-10l-56 50l-3 8q29 100 43 190.5t14 176.5z" />
    <glyph glyph-name="daggerdbl" unicode="&#x2021;" horiz-adv-x="400" 
d="M205 478h-9q-6 22 -16.5 44.5t-26.5 45.5v5l43 53h9l43 -53v-5q-16 -23 -26.5 -45.5t-16.5 -44.5zM398 449l-54 -37l-5 -1q-37 20 -65 29t-52 9v9q22 1 49 9.5t68 29.5l5 -1l54 -39v-8zM179 458v-9q-23 0 -50.5 -9t-66.5 -30l-5 1l-54 38v8l54 39l5 1q41 -21 68 -29.5
t49 -9.5zM205 169h-9q-3 25 -12 52t-32 72v12q24 50 32.5 75t11.5 49h9q3 -24 11.5 -49t32.5 -75v-12q-24 -50 -32.5 -75t-11.5 -49zM179 149v-9q-23 -1 -51 -9.5t-66 -28.5h-5l-54 39v8l54 38l5 1q39 -21 66.5 -30t50.5 -9zM398 141l-54 -39h-5q-38 20 -66 28.5t-51 9.5v9
q24 0 52 9t65 29h5l54 -38v-8zM248 25l-43 -53h-9l-43 53v4q15 22 26 45t17 46h9q6 -23 17 -46t26 -45v-4z" />
    <glyph glyph-name="bullet" unicode="&#x2022;" horiz-adv-x="297" 
d="M277 247q0 -56 -36 -92.5t-93 -36.5t-92.5 36.5t-35.5 92.5t35.5 92.5t92.5 36.5t93 -36.5t36 -92.5z" />
    <glyph glyph-name="ellipsis" unicode="&#x2026;" horiz-adv-x="621" 
d="M102 124q29 0 48.5 -19.5t19.5 -48.5q0 -28 -19.5 -47t-48.5 -19q-28 0 -47 19t-19 47q0 29 19 48.5t47 19.5zM310 124q29 0 48.5 -19.5t19.5 -48.5q0 -28 -19.5 -47t-48.5 -19q-28 0 -47 19t-19 47q0 29 19 48.5t47 19.5zM517 124q29 0 48.5 -19.5t19.5 -48.5
q0 -28 -19.5 -47t-48.5 -19q-28 0 -47 19t-19 47q0 29 19 48.5t47 19.5z" />
    <glyph glyph-name="perthousand" unicode="&#x2030;" horiz-adv-x="895" 
d="M263 429q0 -65 -35.5 -107.5t-90.5 -42.5q-52 0 -87 44t-35 107q0 64 34 104.5t89 40.5q53 0 89 -42.5t36 -103.5zM91 429q0 -69 11.5 -103t34.5 -34q25 0 37.5 34t12.5 103q0 67 -12 100.5t-36 33.5q-25 0 -36.5 -32.5t-11.5 -101.5zM481 555l-323 -555l-28 15l326 555z
M600 144q0 -65 -35.5 -107.5t-90.5 -42.5q-52 0 -87 44t-35 107q0 64 34 104.5t89 40.5q53 0 89 -42.5t36 -103.5zM428 144q0 -69 11.5 -103t34.5 -34q25 0 37.5 34t12.5 103q0 67 -12 100.5t-36 33.5q-25 0 -36.5 -32.5t-11.5 -101.5zM880 144q0 -65 -35.5 -107.5
t-90.5 -42.5q-52 0 -87 44t-35 107q0 64 34 104.5t89 40.5q53 0 89 -42.5t36 -103.5zM708 144q0 -69 11.5 -103t34.5 -34q25 0 37.5 34t12.5 103q0 67 -12 100.5t-36 33.5q-25 0 -36.5 -32.5t-11.5 -101.5z" />
    <glyph glyph-name="guilsinglleft" unicode="&#x2039;" horiz-adv-x="200" 
d="M66 178l77 -179l-18 -10l-94 182v14l94 182l18 -10z" />
    <glyph glyph-name="guilsinglright" unicode="&#x203a;" horiz-adv-x="200" 
d="M75 -11l-18 10l77 179l-77 179l18 10l94 -182v-14z" />
    <glyph glyph-name="fraction" unicode="&#x2044;" horiz-adv-x="91" 
d="M221 555l-323 -555l-28 15l326 555z" />
    <glyph glyph-name="zerosuperior" unicode="&#x2070;" horiz-adv-x="278" 
d="M263 517q0 -65 -35.5 -107.5t-90.5 -42.5q-52 0 -87 44t-35 107q0 64 34 104.5t89 40.5q53 0 89 -42.5t36 -103.5zM91 517q0 -69 11.5 -103t34.5 -34q25 0 37.5 34t12.5 103q0 67 -12 100.5t-36 33.5q-25 0 -36.5 -32.5t-11.5 -101.5z" />
    <glyph glyph-name="foursuperior" unicode="&#x2074;" horiz-adv-x="264" 
d="M233 382v-9h-139v9l15 1q12 1 16 5.5t4 18.5v34h-110v30l153 192h25v-188h49v-34h-49v-34q0 -13 4.5 -18t16.5 -6zM129 589l-93 -114h93v114z" />
    <glyph glyph-name="fivesuperior" unicode="&#x2075;" horiz-adv-x="213" 
d="M200 468q0 -47 -35.5 -73.5t-100.5 -26.5q-25 0 -40 9t-15 24q0 7 6 17.5t14 17.5h4q16 -25 35 -39t37 -14q21 0 32 11t11 32q0 32 -28.5 50.5t-82.5 21.5l-2 2l29 158h137l-9 -64h-129l-6 -32q67 -5 105 -30.5t38 -63.5z" />
    <glyph glyph-name="sixsuperior" unicode="&#x2076;" horiz-adv-x="241" 
d="M15 476q0 67 50.5 115.5t138.5 68.5l2 -7q-56 -25 -85 -70.5t-29 -109.5q0 -56 8 -76.5t27 -20.5q17 0 26.5 19t9.5 51q0 27 -11.5 45.5t-29.5 18.5q-4 0 -7.5 -1t-8.5 -3l-4 5q12 13 30.5 21t31.5 8q31 0 49.5 -20.5t18.5 -52.5q0 -44 -30 -71.5t-77 -27.5
q-53 0 -81.5 27.5t-28.5 80.5z" />
    <glyph glyph-name="sevensuperior" unicode="&#x2077;" horiz-adv-x="229" 
d="M218 651l-119 -278h-39v7l113 213h-126q-6 0 -9 -3t-6 -15l-6 -19l-4 1l4 101h192v-7z" />
    <glyph glyph-name="eightsuperior" unicode="&#x2078;" horiz-adv-x="234" 
d="M157 542q39 -21 53 -40t14 -45q0 -42 -31 -65.5t-83 -23.5q-47 0 -73 20t-26 56q0 22 15 40t41 27q-20 13 -29.5 30t-9.5 40q0 38 26.5 60t73.5 22q39 0 60.5 -17t21.5 -47q0 -18 -15 -34t-38 -23zM122 655q-18 0 -28 -11.5t-10 -31.5q0 -18 11.5 -31.5t50.5 -32.5
q8 9 12 21t4 26q0 28 -10.5 44t-29.5 16zM79 504q-6 -9 -9 -21t-3 -27q0 -36 14 -58t38 -22q21 0 34 13.5t13 34.5q0 16 -7.5 28.5t-23.5 22.5q-9 7 -29 16t-27 13z" />
    <glyph glyph-name="ninesuperior" unicode="&#x2079;" horiz-adv-x="244" 
d="M230 555q0 -67 -50.5 -115.5t-138.5 -68.5l-2 7q56 25 85 70.5t29 109.5q0 56 -8 76.5t-27 20.5q-17 0 -26.5 -19t-9.5 -51q0 -27 11.5 -45.5t29.5 -18.5q5 0 8.5 1t7.5 3l4 -5q-12 -13 -30.5 -21t-31.5 -8q-31 0 -49.5 20.5t-18.5 52.5q0 44 30 71.5t77 27.5
q53 0 81.5 -27.5t28.5 -80.5z" />
    <glyph glyph-name="zeroinferior" unicode="&#x2080;" horiz-adv-x="278" 
d="M263 56q0 -65 -35.5 -107.5t-90.5 -42.5q-52 0 -87 44t-35 107q0 64 34 104.5t89 40.5q53 0 89 -42.5t36 -103.5zM91 56q0 -69 11.5 -103t34.5 -34q25 0 37.5 34t12.5 103q0 67 -12 100.5t-36 33.5q-25 0 -36.5 -32.5t-11.5 -101.5z" />
    <glyph glyph-name="oneinferior" unicode="&#x2081;" horiz-adv-x="171" 
d="M165 -79v-9h-145v9l26 1q7 0 9.5 4t2.5 13v171q0 21 -6.5 30t-20.5 9q-6 0 -10.5 -0.5t-10.5 -2.5l-3 8l117 53l6 -3q-2 -11 -2.5 -21.5t-0.5 -30.5v-213q0 -10 2.5 -13.5t9.5 -3.5z" />
    <glyph glyph-name="twoinferior" unicode="&#x2082;" horiz-adv-x="233" 
d="M224 11l-21 -99h-190v8q63 58 95 103.5t32 76.5q0 23 -13 37.5t-35 14.5q-25 0 -42.5 -14t-29.5 -44l-5 2q9 48 35.5 77t64.5 29q44 0 68.5 -20.5t24.5 -56.5q0 -32 -26 -62.5t-97 -84.5v-2h109q9 0 13.5 4t6.5 13l5 18h5z" />
    <glyph glyph-name="threeinferior" unicode="&#x2083;" horiz-adv-x="226" 
d="M215 -1q0 -41 -41.5 -66.5t-107.5 -25.5q-25 0 -40.5 9t-15.5 24q0 7 6 17.5t14 17.5h4q15 -25 35 -38.5t40 -13.5q22 0 37 15t15 37q0 29 -20.5 48.5t-54.5 19.5q-8 0 -18 -2t-22 -6l-3 9q49 19 66.5 34.5t17.5 38.5q0 15 -12 25t-33 10q-24 0 -39.5 -11.5t-23.5 -35.5
l-6 2q6 45 32.5 70t68.5 25q35 0 56.5 -15.5t21.5 -39.5q0 -23 -12 -35.5t-49 -26.5v-1q39 -4 61.5 -27t22.5 -58z" />
    <glyph glyph-name="fourinferior" unicode="&#x2084;" horiz-adv-x="264" 
d="M233 -79v-9h-139v9l15 1q12 1 16 5.5t4 18.5v34h-110v30l153 192h25v-188h49v-34h-49v-34q0 -13 4.5 -18t16.5 -6zM129 128l-93 -114h93v114z" />
    <glyph glyph-name="fiveinferior" unicode="&#x2085;" horiz-adv-x="213" 
d="M200 7q0 -47 -35.5 -73.5t-100.5 -26.5q-25 0 -40 9t-15 24q0 7 6 17.5t14 17.5h4q16 -25 35 -39t37 -14q21 0 32 11t11 32q0 32 -28.5 50.5t-82.5 21.5l-2 2l29 158h137l-9 -64h-129l-6 -32q67 -5 105 -30.5t38 -63.5z" />
    <glyph glyph-name="sixinferior" unicode="&#x2086;" horiz-adv-x="241" 
d="M15 15q0 67 50.5 115.5t138.5 68.5l2 -7q-56 -25 -85 -70.5t-29 -109.5q0 -56 8 -76.5t27 -20.5q17 0 26.5 19t9.5 51q0 27 -11.5 45.5t-29.5 18.5q-4 0 -7.5 -1t-8.5 -3l-4 5q12 13 30.5 21t31.5 8q31 0 49.5 -20.5t18.5 -52.5q0 -44 -30 -71.5t-77 -27.5
q-53 0 -81.5 27.5t-28.5 80.5z" />
    <glyph glyph-name="seveninferior" unicode="&#x2087;" horiz-adv-x="229" 
d="M218 190l-119 -278h-39v7l113 213h-126q-6 0 -9 -3t-6 -15l-6 -19l-4 1l4 101h192v-7z" />
    <glyph glyph-name="eightinferior" unicode="&#x2088;" horiz-adv-x="234" 
d="M157 81q39 -21 53 -40t14 -45q0 -42 -31 -65.5t-83 -23.5q-47 0 -73 20t-26 56q0 22 15 40t41 27q-20 13 -29.5 30t-9.5 40q0 38 26.5 60t73.5 22q39 0 60.5 -17t21.5 -47q0 -18 -15 -34t-38 -23zM122 194q-18 0 -28 -11.5t-10 -31.5q0 -18 11.5 -31.5t50.5 -32.5
q8 9 12 21t4 26q0 28 -10.5 44t-29.5 16zM79 43q-6 -9 -9 -21t-3 -27q0 -36 14 -58t38 -22q21 0 34 13.5t13 34.5q0 16 -7.5 28.5t-23.5 22.5q-9 7 -29 16t-27 13z" />
    <glyph glyph-name="nineinferior" unicode="&#x2089;" horiz-adv-x="244" 
d="M230 94q0 -67 -50.5 -115.5t-138.5 -68.5l-2 7q56 25 85 70.5t29 109.5q0 56 -8 76.5t-27 20.5q-17 0 -26.5 -19t-9.5 -51q0 -27 11.5 -45.5t29.5 -18.5q5 0 8.5 1t7.5 3l4 -5q-12 -13 -30.5 -21t-31.5 -8q-31 0 -49.5 20.5t-18.5 52.5q0 44 30 71.5t77 27.5
q53 0 81.5 -27.5t28.5 -80.5z" />
    <glyph glyph-name="colonmonetary" unicode="&#x20a1;" horiz-adv-x="585" 
d="M388 662l-248 -722l-18 6l33 96q-54 35 -84 97t-30 139q0 131 87.5 216.5t211.5 85.5l30 88zM260 -2l-27 -79l-18 6l248 722l18 -6l-28 -81q20 -7 38 -16.5t33 -19.5v-140h-8l-7 34q-7 38 -23.5 67.5t-40.5 49.5l-175 -508q19 -13 39 -19t44 -6q59 0 98.5 31t63.5 96
l14 38h8l-5 -123q-33 -24 -87.5 -39t-109.5 -15q-18 0 -37.5 2t-37.5 6zM169 293q0 -40 6 -76.5t17 -66.5l144 418q-75 -3 -121 -77t-46 -198z" />
    <glyph glyph-name="uni20A9" unicode="&#x20a9;" horiz-adv-x="875" 
d="M823 344h-777v20h76l-76 162q-10 22 -14.5 27t-13.5 5h-17v12h225v-12h-46q-14 0 -17 -5.5t2 -16.5l82 -172h141l-82 181q-4 9 -8 11t-14 2h-23v12h225v-12h-44q-8 0 -11.5 -4.5t-0.5 -11.5l83 -178h6l65 173q4 11 2 16t-11 5h-53v12h155v-12h-44q-9 0 -13 -3.5
t-10 -17.5l-74 -173h173l72 174q5 11 1.5 15.5t-15.5 4.5h-44v12h125v-12h-19q-7 0 -11.5 -4.5t-9.5 -16.5l-74 -173h89v-20zM167 267h-121v20h777v-20h-130l-120 -277h-13l-120 261l-129 -261h-13zM292 267l66 -138l69 138h-135zM557 267l59 -127l53 127h-112z" />
    <glyph glyph-name="uni20AA" unicode="&#x20aa;" horiz-adv-x="680" 
d="M222 0v326h53v-294h140q68 0 100.5 37t32.5 115v286h110v-286q0 -89 -57 -136.5t-166 -47.5h-213zM458 286v-142h-53v142q0 78 -37.5 115t-115.5 37h-120v-438h-110v470h250q91 0 138.5 -47.5t47.5 -136.5z" />
    <glyph glyph-name="dong" unicode="&#x20ab;" horiz-adv-x="472" 
d="M171 -10q-67 0 -106.5 46t-39.5 124q0 96 61.5 154t159.5 58q15 0 30 -1.5t28 -4.5v126h-108v20h108v85l-44 27v6l149 50l4 -3l-4 -70v-95h49v-20h-49v-416l49 -30v-6l-154 -50v68q-34 -34 -67.5 -51t-65.5 -17zM232 360q-45 0 -71 -41.5t-26 -113.5q0 -74 27.5 -115
t75.5 -41q19 0 35.5 5t30.5 14v193q0 48 -18.5 73.5t-53.5 25.5zM458 -116h-433v21h433v-21z" />
    <glyph glyph-name="Euro" unicode="&#x20ac;" horiz-adv-x="633" 
d="M424 338v-20h-394v20h70q21 110 101 176t193 66q48 0 98 -15.5t85 -40.5v-140h-8l-7 34q-15 74 -58 112t-110 38q-70 0 -115 -61t-55 -169h200zM388 -10q-121 0 -200.5 68t-91.5 182h-66v20h394v-20h-199q11 -113 58 -175.5t123 -62.5q59 0 98.5 31t63.5 96l14 38h8
l-5 -123q-33 -24 -87.5 -39t-109.5 -15z" />
    <glyph glyph-name="uni20AD" unicode="&#x20ad;" horiz-adv-x="639" 
d="M289 12v-12h-251v12h56q6 0 9.5 3.5t3.5 9.5v285h-72v29h72v206q0 6 -3.5 9.5t-9.5 3.5h-56v12h251v-12h-56q-6 0 -9.5 -3.5t-3.5 -9.5v-243l269 237q7 7 4.5 13t-13.5 6h-50v12h171v-12l-41 -1q-8 0 -13.5 -2t-11.5 -7l-228 -193l14 -16h261v-29h-237l233 -280
q9 -10 15 -12.5t16 -3.5l25 -2v-12h-271v12l58 2q10 0 12 6t-7 17l-206 250v-262q0 -6 3.5 -9.5t9.5 -3.5h56z" />
    <glyph glyph-name="uni20AE" unicode="&#x20ae;" horiz-adv-x="550" 
d="M481 399l-404 -141l-7 19l148 52v224l-121 -3q-29 -1 -39 -12t-16 -45l-15 -86h-8v172l3 1q10 -5 27.5 -7.5t40.5 -2.5h370q23 0 40.5 2.5t27.5 7.5l3 -1v-172h-8l-15 86q-6 34 -16 45t-39 12l-122 3v-185l143 50zM218 208l-141 -49l-7 19l404 141l7 -19l-150 -52v-223
q0 -6 3.5 -9.5t9.5 -3.5h56v-12h-251v12h56q6 0 9.5 3.5t3.5 9.5v183z" />
    <glyph glyph-name="uni20B1" unicode="&#x20b1;" horiz-adv-x="608" 
d="M571 429h-536v20h72v96q0 6 -3.5 9.5t-9.5 3.5h-56v12h256q83 0 138.5 -31.5t70.5 -89.5h68v-20zM262 558h-42v-109h163q-9 53 -40 81t-81 28zM309 12v-12h-271v12h56q6 0 9.5 3.5t3.5 9.5v323h-72v20h536v-20h-72q-22 -59 -81.5 -90.5t-149.5 -31.5h-14v8l17 2
q47 5 77 37t34 75h-162v-323q0 -6 3.5 -9.5t9.5 -3.5h76z" />
    <glyph glyph-name="uni20B4" unicode="&#x20b4;" horiz-adv-x="473" 
d="M440 320h-433v20h174q48 25 62 34t25 18q22 18 33 39t11 46q0 39 -27.5 65t-69.5 26q-52 0 -83.5 -30t-46.5 -93l-10 -42h-8l8 146q28 15 63 23t73 8q82 0 136 -45t54 -117q0 -22 -5 -41.5t-16 -36.5h60v-20zM58 232h-51v20h433v-20h-212q-49 -28 -68.5 -57.5
t-19.5 -68.5q0 -47 29.5 -75t77.5 -28q62 0 102.5 38t60.5 115l14 53h8l-10 -181q-42 -19 -81 -28.5t-78 -9.5q-96 0 -157.5 47t-61.5 127q0 19 3.5 35.5t10.5 32.5z" />
    <glyph glyph-name="uni20B5" unicode="&#x20b5;" horiz-adv-x="585" 
d="M348 -10v-90h-20v90q-128 2 -207.5 81t-79.5 207t81 212.5t206 89.5v90h20v-90q48 -2 95.5 -17t80.5 -39v-140h-8l-8 40q-13 66 -58 105t-105 39q-84 0 -130 -72.5t-46 -202.5q0 -138 49 -214.5t136 -76.5q63 0 103.5 33t62.5 103l9 29h8l-5 -123q-30 -22 -80.5 -37
t-103.5 -17z" />
    <glyph glyph-name="uni20B8" unicode="&#x20b8;" horiz-adv-x="550" 
d="M531 570v-20h-512v20h512zM400 12v-12h-251v12h56q6 0 9.5 3.5t3.5 9.5v441l-121 -3q-29 -1 -39 -12t-16 -45l-15 -86h-8v172l3 1q10 -5 27.5 -7.5t40.5 -2.5h370q23 0 40.5 2.5t27.5 7.5l3 -1v-172h-8l-15 86q-6 34 -16 45t-39 12l-122 3v-441q0 -6 3.5 -9.5t9.5 -3.5
h56z" />
    <glyph glyph-name="uni20B9" unicode="&#x20b9;" horiz-adv-x="480" 
d="M448 12v-12h-132q-27 0 -38 5.5t-22 23.5l-138 225h-102v22h89q59 0 89.5 29t34.5 89h-213v20h214q0 65 -31.5 100.5t-90.5 35.5h-92v20h447v-20h-241q60 -9 94 -42t34 -85v-9h110v-20h-114q-10 -37 -44.5 -65t-85.5 -42l178 -261q5 -7 9.5 -9t17.5 -3z" />
    <glyph glyph-name="uni20BA" unicode="&#x20ba;" horiz-adv-x="522" 
d="M374 479l7 -19l-339 -129l-7 19l79 30v190h103v-151zM499 194q0 -93 -67.5 -143.5t-195.5 -50.5h-122v256l-72 -27l-7 19l339 129l7 -19l-164 -62v-235h105q71 0 111.5 21.5t40.5 58.5q0 15 -14.5 35t-55.5 61q26 22 37.5 28.5t20.5 6.5q17 0 27 -20.5t10 -57.5z" />
    <glyph glyph-name="uni20BC" unicode="&#x20bc;" horiz-adv-x="590" 
d="M118 0h-92v127q0 162 57 250t171 101v102h83v-102q113 -14 170 -101.5t57 -249.5v-127h-92v155q0 140 -33 216t-102 92v-336l-83 -31v368q-69 -16 -102.5 -92.5t-33.5 -216.5v-155z" />
    <glyph glyph-name="uni20BD" unicode="&#x20bd;" horiz-adv-x="530" 
d="M508 406q0 -86 -66 -133t-189 -47h-218v20h72v299q0 6 -3.5 9.5t-9.5 3.5h-56v12h256q99 0 156.5 -43.5t57.5 -120.5zM262 558h-42v-312h34q68 0 101 37.5t33 113.5q0 78 -32.5 119.5t-93.5 41.5zM312 21v-21h-277v21l37 7q22 5 28.5 12.5t6.5 29.5v77h-72v20h376v-20
h-191v-77q0 -20 5 -26.5t30 -11.5z" />
    <glyph glyph-name="uni2113" unicode="&#x2113;" horiz-adv-x="406" 
d="M209 -10q-67 0 -103.5 36.5t-36.5 106.5v33q-8 -4 -19 -8.5t-33 -14.5l-4 10q4 2 9 4t14 6l21 9t12 6v119q0 136 51.5 209.5t140.5 73.5q48 0 82 -34.5t34 -89.5q0 -72 -47.5 -129.5t-149.5 -108.5q-1 -1 -2.5 -1.5t-3.5 -1.5v-64q0 -51 21.5 -74.5t69.5 -23.5
q26 0 56 10t62 29l5 -7q-36 -45 -82.5 -70t-96.5 -25zM229 565q-28 0 -41.5 -38.5t-13.5 -116.5v-183q51 28 74.5 78.5t23.5 141.5q0 61 -10.5 89.5t-32.5 28.5z" />
    <glyph glyph-name="uni2116" unicode="&#x2116;" horiz-adv-x="1004" 
d="M196 12v-12h-163v12h56q6 0 9.5 3.5t3.5 9.5v520q0 6 -3.5 9.5t-9.5 3.5h-56v12h161l345 -391v270q0 115 36 173t107 58q40 0 70.5 -12t30.5 -30q0 -5 -5 -13t-31 -40q-9 9 -24.5 23.5t-22.5 20.5q-16 15 -28.5 20.5t-26.5 5.5q-39 0 -60 -43t-21 -126v-496h-10l-427 487
v-452q0 -6 3.5 -9.5t9.5 -3.5h56zM795 544q56 0 91 -30t35 -82q0 -54 -37 -88.5t-92 -34.5t-90.5 30.5t-35.5 82.5q0 53 38 87.5t91 34.5zM793 532q-21 0 -30 -22.5t-9 -74.5q0 -58 10 -86.5t30 -28.5q21 0 30 22t9 76q0 58 -10 86t-30 28zM922 261v-20h-256v20h256z" />
    <glyph glyph-name="trademark" unicode="&#x2122;" horiz-adv-x="849" 
d="M276 270v-9h-185v9h24q11 0 15 4.5t4 18.5v268h-63q-18 0 -24.5 -6.5t-11.5 -23.5l-9 -50h-5v95l6 2q5 -4 15 -6t23 -2h236q13 0 23 2t15 6l8 -2v-95h-5l-9 50q-5 17 -11.5 23.5t-23.5 6.5h-66v-268q0 -14 4 -18.5t14 -4.5h26zM493 270v-9h-109v9h25q10 0 14.5 5t4.5 18
v245q0 12 -4 16.5t-15 5.5l-25 1v9h147l82 -179l73 179h142v-9l-25 -1q-11 -1 -15 -5t-4 -17v-245q0 -14 4 -18.5t15 -4.5h25v-9h-185v9h25q11 0 15 4.5t4 18.5v236l-111 -271h-12l-120 273v-238q0 -14 4 -18.5t15 -4.5h30z" />
    <glyph glyph-name="Omega" unicode="&#x2126;" horiz-adv-x="741" 
d="M742 162l-33 -162h-294v14q72 69 104.5 137.5t32.5 148.5q0 115 -52.5 190.5t-137.5 75.5q-78 0 -127 -67t-49 -169q0 -87 33 -163t104 -153v-14h-294l-33 162l8 2l17 -45q5 -12 9.5 -15.5t16.5 -3.5h196v2q-106 65 -145.5 116.5t-39.5 115.5q0 106 90 176t220 70
q134 0 223 -66t89 -170q0 -69 -42.5 -126.5t-138.5 -115.5v-2h192q12 0 16.5 3.5t9.5 15.5l17 45z" />
    <glyph glyph-name="estimated" unicode="&#x212e;" horiz-adv-x="696" 
d="M654 264v-7h-496q-2 0 -3 -1t-1 -2v-150q0 -5 1.5 -9.5t5.5 -8.5q37 -38 86 -59t102 -21q57 0 108 23.5t89 66.5h44q-43 -50 -107 -78.5t-135 -28.5q-127 0 -216.5 80.5t-89.5 194.5q0 115 89.5 196t216.5 81t216.5 -81t89.5 -196zM542 276v151q0 6 -2 10.5t-6 8.5
q-37 38 -84.5 58t-100.5 20t-102 -21t-85 -60q-4 -3 -6 -8t-2 -11v-148q0 -1 1.5 -2.5t2.5 -1.5h381q1 0 2 1t1 3z" />
    <glyph glyph-name="onethird" unicode="&#x2153;" horiz-adv-x="488" 
d="M165 294v-9h-145v9l26 1q7 0 9.5 4t2.5 13v171q0 21 -6.5 30t-20.5 9q-6 0 -10.5 -0.5t-10.5 -2.5l-3 8l117 53l6 -3q-2 -11 -2.5 -21.5t-0.5 -30.5v-213q0 -10 2.5 -13.5t9.5 -3.5zM392 555l-323 -555l-28 15l326 555zM477 87q0 -41 -41.5 -66.5t-107.5 -25.5
q-25 0 -40.5 9t-15.5 24q0 7 6 17.5t14 17.5h4q15 -25 35 -38.5t40 -13.5q22 0 37 15t15 37q0 29 -20.5 48.5t-54.5 19.5q-8 0 -18 -2t-22 -6l-3 9q49 19 66.5 34.5t17.5 38.5q0 15 -12 25t-33 10q-24 0 -39.5 -11.5t-23.5 -35.5l-6 2q6 45 32.5 70t68.5 25q35 0 56.5 -15.5
t21.5 -39.5q0 -23 -12 -35.5t-49 -26.5v-1q39 -4 61.5 -27t22.5 -58z" />
    <glyph glyph-name="twothirds" unicode="&#x2154;" horiz-adv-x="550" 
d="M224 384l-21 -99h-190v8q63 58 95 103.5t32 76.5q0 23 -13 37.5t-35 14.5q-25 0 -42.5 -14t-29.5 -44l-5 2q9 48 35.5 77t64.5 29q44 0 68.5 -20.5t24.5 -56.5q0 -32 -26 -62.5t-97 -84.5v-2h109q9 0 13.5 4t6.5 13l5 18h5zM454 555l-323 -555l-28 15l326 555zM539 87
q0 -41 -41.5 -66.5t-107.5 -25.5q-25 0 -40.5 9t-15.5 24q0 7 6 17.5t14 17.5h4q15 -25 35 -38.5t40 -13.5q22 0 37 15t15 37q0 29 -20.5 48.5t-54.5 19.5q-8 0 -18 -2t-22 -6l-3 9q49 19 66.5 34.5t17.5 38.5q0 15 -12 25t-33 10q-24 0 -39.5 -11.5t-23.5 -35.5l-6 2
q6 45 32.5 70t68.5 25q35 0 56.5 -15.5t21.5 -39.5q0 -23 -12 -35.5t-49 -26.5v-1q39 -4 61.5 -27t22.5 -58z" />
    <glyph glyph-name="oneeighth" unicode="&#x215b;" horiz-adv-x="496" 
d="M165 294v-9h-145v9l26 1q7 0 9.5 4t2.5 13v171q0 21 -6.5 30t-20.5 9q-6 0 -10.5 -0.5t-10.5 -2.5l-3 8l117 53l6 -3q-2 -11 -2.5 -21.5t-0.5 -30.5v-213q0 -10 2.5 -13.5t9.5 -3.5zM392 555l-323 -555l-28 15l326 555zM419 169q39 -21 53 -40t14 -45q0 -42 -31 -65.5
t-83 -23.5q-47 0 -73 20t-26 56q0 22 15 40t41 27q-20 13 -29.5 30t-9.5 40q0 38 26.5 60t73.5 22q39 0 60.5 -17t21.5 -47q0 -18 -15 -34t-38 -23zM384 282q-18 0 -28 -11.5t-10 -31.5q0 -18 11.5 -31.5t50.5 -32.5q8 9 12 21t4 26q0 28 -10.5 44t-29.5 16zM341 131
q-6 -9 -9 -21t-3 -27q0 -36 14 -58t38 -22q21 0 34 13.5t13 34.5q0 16 -7.5 28.5t-23.5 22.5q-9 7 -29 16t-27 13z" />
    <glyph glyph-name="threeeighths" unicode="&#x215c;" horiz-adv-x="551" 
d="M215 372q0 -41 -41.5 -66.5t-107.5 -25.5q-25 0 -40.5 9t-15.5 24q0 7 6 17.5t14 17.5h4q15 -25 35 -38.5t40 -13.5q22 0 37 15t15 37q0 29 -20.5 48.5t-54.5 19.5q-8 0 -18 -2t-22 -6l-3 9q49 19 66.5 34.5t17.5 38.5q0 15 -12 25t-33 10q-24 0 -39.5 -11.5t-23.5 -35.5
l-6 2q6 45 32.5 70t68.5 25q35 0 56.5 -15.5t21.5 -39.5q0 -23 -12 -35.5t-49 -26.5v-1q39 -4 61.5 -27t22.5 -58zM447 555l-323 -555l-28 15l326 555zM474 169q39 -21 53 -40t14 -45q0 -42 -31 -65.5t-83 -23.5q-47 0 -73 20t-26 56q0 22 15 40t41 27q-20 13 -29.5 30
t-9.5 40q0 38 26.5 60t73.5 22q39 0 60.5 -17t21.5 -47q0 -18 -15 -34t-38 -23zM439 282q-18 0 -28 -11.5t-10 -31.5q0 -18 11.5 -31.5t50.5 -32.5q8 9 12 21t4 26q0 28 -10.5 44t-29.5 16zM396 131q-6 -9 -9 -21t-3 -27q0 -36 14 -58t38 -22q21 0 34 13.5t13 34.5
q0 16 -7.5 28.5t-23.5 22.5q-9 7 -29 16t-27 13z" />
    <glyph glyph-name="fiveeighths" unicode="&#x215d;" horiz-adv-x="538" 
d="M200 380q0 -47 -35.5 -73.5t-100.5 -26.5q-25 0 -40 9t-15 24q0 7 6 17.5t14 17.5h4q16 -25 35 -39t37 -14q21 0 32 11t11 32q0 32 -28.5 50.5t-82.5 21.5l-2 2l29 158h137l-9 -64h-129l-6 -32q67 -5 105 -30.5t38 -63.5zM434 555l-323 -555l-28 15l326 555zM461 169
q39 -21 53 -40t14 -45q0 -42 -31 -65.5t-83 -23.5q-47 0 -73 20t-26 56q0 22 15 40t41 27q-20 13 -29.5 30t-9.5 40q0 38 26.5 60t73.5 22q39 0 60.5 -17t21.5 -47q0 -18 -15 -34t-38 -23zM426 282q-18 0 -28 -11.5t-10 -31.5q0 -18 11.5 -31.5t50.5 -32.5q8 9 12 21t4 26
q0 28 -10.5 44t-29.5 16zM383 131q-6 -9 -9 -21t-3 -27q0 -36 14 -58t38 -22q21 0 34 13.5t13 34.5q0 16 -7.5 28.5t-23.5 22.5q-9 7 -29 16t-27 13z" />
    <glyph glyph-name="seveneighths" unicode="&#x215e;" horiz-adv-x="554" 
d="M218 563l-119 -278h-39v7l113 213h-126q-6 0 -9 -3t-6 -15l-6 -19l-4 1l4 101h192v-7zM450 555l-323 -555l-28 15l326 555zM477 169q39 -21 53 -40t14 -45q0 -42 -31 -65.5t-83 -23.5q-47 0 -73 20t-26 56q0 22 15 40t41 27q-20 13 -29.5 30t-9.5 40q0 38 26.5 60
t73.5 22q39 0 60.5 -17t21.5 -47q0 -18 -15 -34t-38 -23zM442 282q-18 0 -28 -11.5t-10 -31.5q0 -18 11.5 -31.5t50.5 -32.5q8 9 12 21t4 26q0 28 -10.5 44t-29.5 16zM399 131q-6 -9 -9 -21t-3 -27q0 -36 14 -58t38 -22q21 0 34 13.5t13 34.5q0 16 -7.5 28.5t-23.5 22.5
q-9 7 -29 16t-27 13z" />
    <glyph glyph-name="arrowleft" unicode="&#x2190;" horiz-adv-x="688" 
d="M20 291v9q61 17 123.5 55.5t99.5 82.5l8 -4q-5 -15 -7 -32.5t-2 -39.5q0 -26 12 -40.5t34 -14.5q70 0 152.5 13t169.5 38l6 -2l52 -57v-6l-52 -58l-6 -2q-87 25 -169.5 38t-152.5 13q-22 0 -34 -14.5t-12 -40.5q0 -22 2 -39.5t7 -32.5l-7 -4q-37 44 -99.5 82.5
t-124.5 55.5z" />
    <glyph glyph-name="arrowup" unicode="&#x2191;" horiz-adv-x="329" 
d="M160 621h9q17 -61 55.5 -123.5t82.5 -99.5l-4 -8q-15 5 -32.5 7t-39.5 2q-26 0 -40.5 -12t-14.5 -34q0 -70 13 -152.5t38 -169.5l-2 -6l-57 -52h-6l-58 52l-2 6q25 87 38 169.5t13 152.5q0 22 -14.5 34t-40.5 12q-22 0 -39.5 -2t-32.5 -7l-4 7q44 37 82.5 99.5
t55.5 124.5z" />
    <glyph glyph-name="arrowright" unicode="&#x2192;" horiz-adv-x="688" 
d="M668 291v9q-61 17 -123.5 55.5t-99.5 82.5l-8 -4q5 -15 7 -32.5t2 -39.5q0 -26 -12 -40.5t-34 -14.5q-70 0 -152.5 13t-169.5 38l-6 -2l-52 -57v-6l52 -58l6 -2q87 25 169.5 38t152.5 13q22 0 34 -14.5t12 -40.5q0 -22 -2 -39.5t-7 -32.5l7 -4q37 44 99.5 82.5
t124.5 55.5z" />
    <glyph glyph-name="arrowdown" unicode="&#x2193;" horiz-adv-x="329" 
d="M169 -27h-9q-17 61 -55.5 123.5t-82.5 99.5l4 8q15 -5 32.5 -7t39.5 -2q26 0 40.5 12t14.5 34q0 70 -13 152.5t-38 169.5l2 6l57 52h6l58 -52l2 -6q-25 -87 -38 -169.5t-13 -152.5q0 -22 14.5 -34t40.5 -12q22 0 39.5 2t32.5 7l4 -7q-44 -37 -82.5 -99.5t-55.5 -124.5z
" />
    <glyph glyph-name="uni2194" unicode="&#x2194;" horiz-adv-x="811" 
d="M592 153l-7 4q5 15 7 32.5t2 39.5q0 26 -12 40.5t-34 14.5q-12 0 -28.5 -4.5t-50.5 -18.5q-23 -9 -34 -13t-20 -6h-16q-9 2 -20 6t-34 13q-34 14 -50.5 18.5t-28.5 4.5q-22 0 -34 -14.5t-12 -40.5q0 -22 2 -39.5t7 -32.5l-7 -4q-34 42 -90 79.5t-112 57.5v11
q55 20 110.5 57.5t90.5 79.5l8 -4q-5 -15 -7 -32.5t-2 -39.5q0 -26 12 -40.5t34 -14.5q12 0 28.5 4.5t50.5 18.5q23 9 34 13t20 6h16q9 -2 20 -6t34 -13q34 -14 50.5 -18.5t28.5 -4.5q22 0 34 14.5t12 40.5q0 22 -2 39.5t-7 32.5l8 4q35 -42 90.5 -79.5t110.5 -57.5v-11
q-56 -20 -112 -57.5t-90 -79.5z" />
    <glyph glyph-name="uni2195" unicode="&#x2195;" horiz-adv-x="329" 
d="M297 471l-4 -7q-15 5 -32.5 7t-39.5 2q-26 0 -40.5 -12t-14.5 -34q0 -12 4.5 -28.5t18.5 -50.5q9 -23 13 -34t6 -20v-16q-2 -9 -6 -20t-13 -34q-14 -34 -18.5 -50.5t-4.5 -28.5q0 -22 14.5 -34t40.5 -12q22 0 39.5 2t32.5 7l4 -7q-42 -34 -79.5 -90t-57.5 -112h-11
q-20 55 -57.5 110.5t-79.5 90.5l4 8q15 -5 32.5 -7t39.5 -2q26 0 40.5 12t14.5 34q0 12 -4.5 28.5t-18.5 50.5q-9 23 -13 34t-6 20v16q2 9 6 20t13 34q14 34 18.5 50.5t4.5 28.5q0 22 -14.5 34t-40.5 12q-22 0 -39.5 -2t-32.5 -7l-4 8q42 35 79.5 90.5t57.5 110.5h11
q20 -56 57.5 -112t79.5 -90z" />
    <glyph glyph-name="uni2196" unicode="&#x2196;" horiz-adv-x="512" 
d="M24 519l6 6q55 -31 126.5 -48t129.5 -12l2 -9q-14 -7 -27.5 -18t-29.5 -26q-18 -19 -20 -37.5t14 -34.5q49 -49 116.5 -98t146.5 -93l3 -6l-3 -77l-4 -4l-78 -4l-6 2q-44 80 -93 147.5t-99 116.5q-15 16 -34 14t-37 -20q-16 -16 -26.5 -29.5t-18.5 -27.5l-7 2
q5 57 -12 128.5t-49 127.5z" />
    <glyph glyph-name="uni2197" unicode="&#x2197;" horiz-adv-x="512" 
d="M491 519l-6 6q-55 -31 -126.5 -48t-129.5 -12l-2 -9q14 -7 27.5 -18t29.5 -26q18 -19 20 -37.5t-14 -34.5q-49 -49 -116.5 -98t-146.5 -93l-3 -6l3 -77l4 -4l78 -4l6 2q44 80 93 147.5t99 116.5q15 16 34 14t37 -20q16 -16 26.5 -29.5t18.5 -27.5l7 2q-5 57 12 128.5
t49 127.5z" />
    <glyph glyph-name="uni2198" unicode="&#x2198;" horiz-adv-x="512" 
d="M491 63l-6 -6q-55 31 -126.5 48t-129.5 12l-2 9q14 7 27.5 18t29.5 26q18 19 20 37.5t-14 34.5q-49 49 -116.5 98t-146.5 93l-3 6l3 77l4 4l78 4l6 -2q44 -80 93 -147.5t99 -116.5q15 -16 34 -14t37 20q16 16 26.5 29.5t18.5 27.5l7 -2q-5 -57 12 -128.5t49 -127.5z" />
    <glyph glyph-name="uni2199" unicode="&#x2199;" horiz-adv-x="512" 
d="M24 63l6 -6q55 31 126.5 48t129.5 12l2 9q-14 7 -27.5 18t-29.5 26q-18 19 -20 37.5t14 34.5q49 49 116.5 98t146.5 93l3 6l-3 77l-4 4l-78 4l-6 -2q-44 -80 -93 -147.5t-99 -116.5q-15 -16 -34 -14t-37 20q-16 16 -26.5 29.5t-18.5 27.5l-7 -2q5 -57 -12 -128.5
t-49 -127.5z" />
    <glyph glyph-name="partialdiff" unicode="&#x2202;" horiz-adv-x="471" 
d="M439 212q0 134 -92.5 232.5t-253.5 135.5l-2 -8q110 -45 168 -137t58 -219q0 -108 -24 -161t-73 -53q-39 0 -62 41t-23 109q0 64 26.5 104t70.5 40q14 0 30 -5t29 -13l4 5q-25 28 -58 43.5t-68 15.5q-66 0 -106.5 -43.5t-40.5 -111.5q0 -86 58.5 -141.5t147.5 -55.5
q98 0 154.5 58.5t56.5 163.5z" />
    <glyph glyph-name="Delta" unicode="&#x2206;" horiz-adv-x="554" 
d="M276 580l246 -580h-490l233 580h11zM82 12h294q7 0 9.5 5.5t-1.5 13.5l-164 389l-147 -388q-3 -9 -1 -14.5t10 -5.5z" />
    <glyph glyph-name="product" unicode="&#x220f;" horiz-adv-x="712" 
d="M674 12v-12h-251v12h56q6 0 9.5 3.5t3.5 9.5v513h-272v-513q0 -6 3.5 -9.5t9.5 -3.5h56v-12h-251v12h56q6 0 9.5 3.5t3.5 9.5v520q0 6 -3.5 9.5t-9.5 3.5h-56v12h636v-12h-56q-6 0 -9.5 -3.5t-3.5 -9.5v-520q0 -6 3.5 -9.5t9.5 -3.5h56z" />
    <glyph glyph-name="summation" unicode="&#x2211;" horiz-adv-x="558" 
d="M519 183l-14 -183h-472v13l198 240l-184 303v14h367q23 0 40.5 2.5t27.5 7.5l3 -1v-172h-8l-15 86q-6 34 -16 45t-39 12l-229 4l140 -231l-189 -227l317 3q24 0 36 9t18 32l11 43h8z" />
    <glyph glyph-name="minus" unicode="&#x2212;" horiz-adv-x="500" 
d="M433 253v-27h-366v27h366z" />
    <glyph glyph-name="uni2215" unicode="&#x2215;" horiz-adv-x="351" 
d="M351 555l-323 -555l-28 15l326 555z" />
    <glyph glyph-name="radical" unicode="&#x221a;" horiz-adv-x="600" 
d="M578 715l-260 -715h-31l-129 326h-98v27h138l114 -290l238 652h28z" />
    <glyph glyph-name="infinity" unicode="&#x221e;" horiz-adv-x="705" 
d="M349 220q-42 -83 -81.5 -115.5t-91.5 -32.5q-70 0 -112 46t-42 125q0 78 42.5 124.5t111.5 46.5q57 0 98.5 -34t80.5 -115q41 82 81 115.5t92 33.5q69 0 112 -46t43 -124t-43 -125t-112 -47q-58 0 -99 33.5t-80 114.5zM177 388q-59 0 -94 -39t-35 -106t35 -106t94 -39
q46 0 82.5 30.5t78.5 114.5q-39 81 -75 113t-86 32zM656 244q0 67 -35 105.5t-94 38.5q-47 0 -83.5 -31.5t-77.5 -115.5q39 -81 75.5 -112t85.5 -31q59 0 94 39t35 107z" />
    <glyph glyph-name="integral" unicode="&#x222b;" horiz-adv-x="243" 
d="M-28 -280q-40 0 -70.5 12t-30.5 30q0 6 7 16.5t28 37.5q57 -54 75.5 -66.5t34.5 -12.5q26 0 39.5 38.5t13.5 114.5v507q0 139 52 211t150 72q40 0 70.5 -12t30.5 -30q0 -6 -7 -16.5t-28 -37.5q-57 54 -75.5 66.5t-34.5 12.5q-26 0 -39.5 -38.5t-13.5 -114.5v-507
q0 -139 -52 -211t-150 -72z" />
    <glyph glyph-name="approxequal" unicode="&#x2248;" horiz-adv-x="500" 
d="M334 292q-18 0 -36.5 5t-52.5 21q-32 14 -48.5 18.5t-31.5 4.5q-24 0 -43 -10.5t-43 -38.5l-21 17q25 32 50.5 46t57.5 14q18 0 37 -5t54 -21q32 -14 48 -18.5t30 -4.5q25 0 44 10.5t42 38.5l21 -17q-25 -32 -50.5 -46t-57.5 -14zM334 129q-18 0 -36.5 5t-52.5 21
q-32 14 -48.5 18.5t-31.5 4.5q-24 0 -43 -10.5t-43 -38.5l-21 17q25 32 50.5 46t57.5 14q18 0 37 -5t54 -21q32 -14 48 -18.5t30 -4.5q25 0 44 10.5t42 38.5l21 -17q-25 -32 -50.5 -46t-57.5 -14z" />
    <glyph glyph-name="notequal" unicode="&#x2260;" horiz-adv-x="500" 
d="M205 140l-76 -138l-22 12l70 126h-110v28h125l80 144h-205v28h221l75 136l22 -12l-69 -124h117v-28h-132l-80 -144h212v-28h-228z" />
    <glyph glyph-name="lessequal" unicode="&#x2264;" horiz-adv-x="500" 
d="M433 196v-28l-366 156v28l366 157v-28l-334 -142zM433 27v-27h-366v27h366z" />
    <glyph glyph-name="greaterequal" unicode="&#x2265;" horiz-adv-x="500" 
d="M433 352v-28l-366 -156v28l334 143l-334 142v28zM433 27v-27h-366v27h366z" />
    <glyph glyph-name="lozenge" unicode="&#x25ca;" horiz-adv-x="499" 
d="M465 340l-204 -340h-24l-203 340l203 340h24zM249 647l-183 -307l183 -307l183 307z" />
    <glyph glyph-name="commaaccent" unicode="&#xf6c3;" horiz-adv-x="500" 
d="M341 -103q0 -38 -23.5 -65.5t-67.5 -40.5l-4 10q34 11 52.5 28.5t18.5 38.5q0 16 -14 26.5t-50 22.5q7 19 16.5 27.5t23.5 8.5q22 0 35 -15t13 -41z" />
    <glyph glyph-name="s_t" unicode="&#xfb06;" horiz-adv-x="639" 
d="M311 107q0 -53 -44 -85t-111 -32q-29 0 -57 5.5t-53 15.5l-17 135h8q28 -77 57.5 -110.5t73.5 -33.5q27 0 45.5 15.5t18.5 38.5q0 22 -14.5 39.5t-63.5 42.5q-62 32 -82 59t-20 64q0 48 32 76.5t90 33.5q-25 24 -38.5 56t-13.5 69q0 78 52.5 126t131.5 48q83 0 136 -52
t53 -135v-121h130v-57h-130v-178q0 -38 19 -57.5t57 -19.5q15 0 28 3.5t28 10.5l3 -6q-27 -32 -63.5 -50t-73.5 -18q-44 0 -71 28.5t-27 75.5v211h-56v8q68 28 103.5 70t35.5 95q0 82 -47 130t-127 48q-72 0 -119.5 -44t-47.5 -116q0 -39 15 -71t43 -53q23 0 52 -7t47 -17
l2 -106h-8q-16 61 -40.5 89.5t-61.5 28.5q-24 0 -39.5 -14t-15.5 -36t15 -39.5t64 -42.5q62 -32 81.5 -58.5t19.5 -62.5z" />
    <glyph glyph-name="uni0192" horiz-adv-x="282" 
d="M164 305v-351q0 -40 -38.5 -78t-118.5 -76l-4 7q32 22 44 49.5t12 77.5v371h-54v8l54 38v46q0 139 52 211t150 72q40 0 70.5 -12t30.5 -30q0 -6 -7 -16.5t-28 -37.5q-57 54 -75.5 66.5t-34.5 12.5q-26 0 -39.5 -38.5t-13.5 -114.5v-148h115v-57h-115z" />
    <glyph glyph-name="kgreenlandic.case" horiz-adv-x="765" 
d="M649 435q0 38 23.5 65.5t67.5 40.5l4 -10q-34 -11 -52.5 -28.5t-18.5 -38.5q0 -16 14 -26.5t50 -22.5q-7 -19 -16.5 -27.5t-23.5 -8.5q-22 0 -35 15t-13 41zM289 12v-12h-251v12h56q6 0 9.5 3.5t3.5 9.5v520q0 6 -3.5 9.5t-9.5 3.5h-56v12h251v-12h-56q-6 0 -9.5 -3.5
t-3.5 -9.5v-243l269 237q7 7 4.5 13t-13.5 6h-50v12h171v-12l-41 -1q-8 0 -13.5 -2t-11.5 -7l-228 -193l271 -325q9 -10 15 -12.5t16 -3.5l25 -2v-12h-271v12l58 2q10 0 12 6t-7 17l-206 250v-262q0 -6 3.5 -9.5t9.5 -3.5h56z" />
    <glyph glyph-name="napostrophe.case" horiz-adv-x="811" 
d="M329 12v-12h-163v12h56q6 0 9.5 3.5t3.5 9.5v520q0 6 -3.5 9.5t-9.5 3.5h-56v12h161l345 -391v366q0 6 -3.5 9.5t-9.5 3.5h-56v12h163v-12h-56q-6 0 -9.5 -3.5t-3.5 -9.5v-555h-10l-427 487v-452q0 -6 3.5 -9.5t9.5 -3.5h56zM117 523q0 -38 -23.5 -65.5t-67.5 -40.5
l-4 10q34 11 52.5 28.5t18.5 38.5q0 16 -14 26.5t-50 22.5q7 19 16.5 27.5t23.5 8.5q22 0 35 -15t13 -41z" />
    <glyph glyph-name="i.dot" horiz-adv-x="229" 
d="M181 530q0 -23 -15.5 -38.5t-37.5 -15.5q-24 0 -39.5 15.5t-15.5 38.5t16 39t39 16q22 0 37.5 -16t15.5 -39zM220 12v-12h-203v12h36q6 0 9.5 3.5t3.5 9.5v264l-44 27v6l149 50l4 -3l-4 -70v-274q0 -6 3.5 -9.5t9.5 -3.5h36z" />
    <glyph glyph-name="caron.alt" 
d="M252 409l-8 1l16 166q2 18 7.5 27.5t14.5 9.5q8 0 12 -4t4 -12q0 -4 -1 -11t-3 -16z" />
    <glyph glyph-name="revcommaaccent" horiz-adv-x="500" 
d="M202 481q0 38 23.5 65.5t67.5 40.5l4 -10q-34 -11 -52.5 -28.5t-18.5 -38.5q0 -16 14 -26.5t50 -22.5q-7 -19 -16.5 -27.5t-23.5 -8.5q-22 0 -35 15t-13 41z" />
    <glyph glyph-name="acute.cap" 
d="M212 409l-8 4l35 108q6 18 12 25t14 7q7 0 11.5 -4t4.5 -11q0 -6 -2.5 -13.5t-7.5 -14.5z" />
    <glyph glyph-name="grave.cap" 
d="M260 527l37 -114l-8 -4l-61 105q-6 11 -7 15.5t-1 8.5q0 7 4.5 11t11.5 4q8 0 13.5 -5t10.5 -21z" />
    <glyph glyph-name="circumflex.cap" 
d="M278 534l77 -119l-8 -5l-96 105h-1l-96 -105l-8 5l77 119q7 11 13 15t14 4t14.5 -4.5t13.5 -14.5z" />
    <glyph glyph-name="caron.cap" 
d="M348 551l8 -5l-77 -119q-7 -10 -13.5 -14.5t-14.5 -4.5t-14 4t-13 15l-77 119l8 5l96 -105h1z" />
    <glyph glyph-name="tilde.cap" 
d="M307 448q-7 0 -17.5 3t-36.5 14q-27 11 -39 14.5t-20 3.5q-12 0 -18.5 -5t-16.5 -26l-14 -30l-8 3l12 42q8 29 19 40.5t30 11.5q6 0 16.5 -3t36.5 -14q27 -11 38.5 -14.5t19.5 -3.5q10 0 17 4.5t20 28.5l15 28l8 -3l-13 -40q-12 -34 -22 -44t-27 -10z" />
    <glyph glyph-name="dieresis.cap" 
d="M217 491q0 -15 -10 -25t-25 -10t-24.5 9.5t-9.5 25.5q0 15 9.5 24.5t24.5 9.5t25 -10t10 -24zM353 491q0 -15 -10 -25t-25 -10t-24.5 9.5t-9.5 25.5q0 15 9.5 24.5t24.5 9.5t25 -10t10 -24z" />
    <glyph glyph-name="ring.cap" 
d="M252 541q35 0 59.5 -19.5t24.5 -49.5q0 -33 -25 -54.5t-61 -21.5q-38 0 -61.5 19t-23.5 50q0 34 24.5 55t62.5 21zM253 412q25 0 38 14.5t13 41.5q0 24 -16 41t-40 17q-23 0 -37.5 -16t-14.5 -41q0 -24 16.5 -40.5t40.5 -16.5z" />
    <glyph glyph-name="hungarumlaut.cap" 
d="M170 409l-9 4l32 111q4 15 10.5 22t14.5 7q7 0 11 -4t4 -11q0 -5 -2 -11t-5 -13zM278 409l-9 4l32 111q4 15 10.5 22t14.5 7q7 0 11 -4t4 -11q0 -5 -2 -11t-5 -13z" />
    <glyph glyph-name="breve.cap" 
d="M250 410q-44 0 -69.5 30.5t-32.5 91.5l10 1q9 -44 30.5 -63t61.5 -19t62 19.5t30 62.5l10 -1q-6 -60 -31.5 -91t-70.5 -31z" />
    <glyph glyph-name="macron.cap" 
d="M354 468h-208v35h208v-35z" />
    <glyph glyph-name="dotaccent.cap" 
d="M289 487q0 -17 -11 -28t-28 -11t-27.5 11t-10.5 28q0 16 11 27t27 11t27.5 -11t11.5 -27z" />
    <glyph glyph-name="zero.tlf" horiz-adv-x="480" 
d="M239 580q100 0 165 -83t65 -210q0 -129 -65 -213t-165 -84q-99 0 -163.5 84t-64.5 213q0 127 64.5 210t163.5 83zM239 2q53 0 81 73t28 212q0 137 -28 209t-81 72q-52 0 -79.5 -71.5t-27.5 -209.5q0 -140 27.5 -212.5t79.5 -72.5z" />
    <glyph glyph-name="one.tlf" horiz-adv-x="480" 
d="M411 17v-17h-320v17l81 11q15 2 20 9t5 24v358q0 28 -10 42t-31 14q-15 0 -32.5 -4t-44.5 -14l-9 20l229 110l11 -7q-3 -18 -4 -35.5t-1 -52.5v-431q0 -17 5 -24t19 -9z" />
    <glyph glyph-name="two.tlf" horiz-adv-x="480" 
d="M438 162l-33 -162h-364v14q52 50 92.5 92.5t70.5 78.5q51 62 74 109.5t23 99.5q0 48 -28 78t-76 30q-50 0 -85.5 -30.5t-60.5 -96.5l-7 2q15 95 65.5 149t126.5 54q80 0 127 -42t47 -106q0 -67 -45.5 -128t-215.5 -201v-3h238q12 0 16.5 3.5t9.5 15.5l17 45z" />
    <glyph glyph-name="three.tlf" horiz-adv-x="480" 
d="M422 177q0 -81 -77 -134t-196 -53q-52 0 -82.5 16.5t-30.5 45.5q0 13 10 31.5t27 35.5q43 -61 76 -85.5t67 -24.5q56 0 86.5 35t30.5 98q0 58 -43 96t-109 38q-14 0 -34 -4t-35 -9l-5 14q92 32 131 65t39 81q0 35 -25.5 56t-69.5 21q-47 0 -79.5 -24t-49.5 -71l-7 2
q14 82 63 127.5t124 45.5q67 0 108 -31.5t41 -80.5q0 -47 -30 -76.5t-100 -51.5v-2q78 -6 124 -50t46 -111z" />
    <glyph glyph-name="four.tlf" horiz-adv-x="480" 
d="M253 25v120h-233v49l304 386h37v-378h98v-57h-98v-120q0 -6 3.5 -9.5t9.5 -3.5h53v-12h-241v12h54q6 0 9.5 3.5t3.5 9.5zM253 452l-205 -250h205v250z" />
    <glyph glyph-name="five.tlf" horiz-adv-x="480" 
d="M403 187q0 -89 -70.5 -143t-186.5 -54q-52 0 -82.5 16.5t-30.5 45.5q0 13 10.5 31.5t27.5 35.5q38 -61 69 -85.5t66 -24.5q51 0 80.5 31.5t29.5 85.5q0 65 -56.5 102.5t-170.5 46.5l-3 4l49 291h263l-15 -100h-245l-15 -94q131 -8 205.5 -59t74.5 -130z" />
    <glyph glyph-name="six.tlf" horiz-adv-x="480" 
d="M34 212q0 134 92.5 232.5t253.5 135.5l2 -8q-110 -45 -168 -137t-58 -219q0 -108 24 -161t73 -53q39 0 62 41t23 109q0 64 -26.5 104t-70.5 40q-14 0 -30 -5t-29 -13l-4 5q25 28 58 43.5t68 15.5q66 0 106.5 -43.5t40.5 -111.5q0 -86 -58.5 -141.5t-147.5 -55.5
q-98 0 -154.5 58.5t-56.5 163.5z" />
    <glyph glyph-name="seven.tlf" horiz-adv-x="480" 
d="M431 557l-228 -557h-64l239 468h-271q-16 0 -23 -5.5t-11 -21.5l-11 -40l-6 1l13 168h362v-13z" />
    <glyph glyph-name="eight.tlf" horiz-adv-x="480" 
d="M302 331q83 -44 112 -82t29 -89q0 -80 -57.5 -125t-152.5 -45q-90 0 -142.5 40t-52.5 109q0 46 28.5 78.5t97.5 63.5q-51 29 -73 62.5t-22 77.5q0 73 52.5 116t142.5 43q69 0 111.5 -31.5t42.5 -83.5q0 -40 -31 -75.5t-85 -58.5zM247 568q-39 0 -62.5 -25.5t-23.5 -68.5
q0 -37 25 -66.5t108 -72.5q20 19 30.5 48.5t10.5 65.5q0 55 -24 87t-64 32zM171 277q-19 -20 -28.5 -52t-9.5 -73q0 -67 29.5 -108.5t79.5 -41.5q46 0 75 31.5t29 81.5q0 31 -15 55.5t-48 46.5q-20 13 -59 32.5t-53 27.5z" />
    <glyph glyph-name="nine.tlf" horiz-adv-x="480" 
d="M445 358q0 -134 -92.5 -232.5t-253.5 -135.5l-2 8q110 45 168 137t58 219q0 108 -24 161t-73 53q-39 0 -62 -41t-23 -109q0 -64 26.5 -104t70.5 -40q14 0 30 5t29 13l4 -5q-25 -28 -58 -43.5t-68 -15.5q-66 0 -106.5 43.5t-40.5 111.5q0 86 58.5 141.5t147.5 55.5
q98 0 154.5 -58.5t56.5 -163.5z" />
    <glyph glyph-name="zero.posf" horiz-adv-x="558" 
d="M275 480q111 0 180 -66t69 -178q0 -106 -69.5 -176.5t-170.5 -70.5q-111 0 -180 66t-69 178q0 106 69.5 176.5t170.5 70.5zM287 2q52 0 84 63t32 161q0 103 -37 172.5t-94 69.5q-52 0 -84 -63t-32 -162q0 -103 37 -172t94 -69z" />
    <glyph glyph-name="one.posf" horiz-adv-x="319" 
d="M214 445v-420q0 -6 3.5 -9.5t9.5 -3.5h53v-12h-241v12h54q6 0 9.5 3.5t3.5 9.5v420q0 6 -3.5 9.5t-9.5 3.5h-54v12h241v-12h-53q-6 0 -9.5 -3.5t-3.5 -9.5z" />
    <glyph glyph-name="two.posf" horiz-adv-x="408" 
d="M192 480q74 0 120.5 -39.5t46.5 -103.5q0 -55 -44 -102t-190 -133v-2h263l-15 -100h-366v14q139 116 185.5 173.5t46.5 112.5q0 46 -26 72t-73 26q-46 0 -77.5 -25t-50.5 -76l-7 1q13 90 60.5 136t126.5 46z" />
    <glyph glyph-name="three.posf" horiz-adv-x="442" 
d="M404 77q0 -81 -77 -134t-196 -53q-52 0 -82.5 16.5t-30.5 45.5q0 13 10 31.5t27 35.5q43 -61 76 -85.5t67 -24.5q56 0 86.5 35t30.5 98q0 58 -43 96t-109 38q-14 0 -34 -4t-35 -9l-5 14q92 32 131 65t39 81q0 35 -25.5 56t-69.5 21q-47 0 -79.5 -24t-49.5 -71l-7 2
q14 82 63 127.5t124 45.5q67 0 108 -31.5t41 -80.5q0 -47 -30 -76.5t-100 -51.5v-2q78 -6 124 -50t46 -111z" />
    <glyph glyph-name="four.posf" horiz-adv-x="506" 
d="M368 45v-145h-108v145h-233v49l304 386h37v-378h98v-57h-98zM260 352l-205 -250h205v250z" />
    <glyph glyph-name="five.posf" horiz-adv-x="428" 
d="M385 87q0 -89 -70.5 -143t-186.5 -54q-52 0 -82.5 16.5t-30.5 45.5q0 13 10.5 31.5t27.5 35.5q38 -61 69 -85.5t66 -24.5q51 0 80.5 31.5t29.5 85.5q0 65 -56.5 102.5t-170.5 46.5l-3 4l49 291h263l-15 -100h-245l-15 -94q131 -8 205.5 -59t74.5 -130z" />
    <glyph glyph-name="six.posf" horiz-adv-x="471" 
d="M32 212q0 134 92.5 232.5t253.5 135.5l2 -8q-110 -45 -168 -137t-58 -219q0 -108 24 -161t73 -53q39 0 62 41t23 109q0 64 -26.5 104t-70.5 40q-14 0 -30 -5t-29 -13l-4 5q25 28 58 43.5t68 15.5q66 0 106.5 -43.5t40.5 -111.5q0 -86 -58.5 -141.5t-147.5 -55.5
q-98 0 -154.5 58.5t-56.5 163.5z" />
    <glyph glyph-name="seven.posf" horiz-adv-x="384" 
d="M372 457l-234 -568h-60l242 479h-318l14 102h356v-13z" />
    <glyph glyph-name="eight.posf" horiz-adv-x="457" 
d="M290 331q83 -44 112 -82t29 -89q0 -80 -57.5 -125t-152.5 -45q-90 0 -142.5 40t-52.5 109q0 46 28.5 78.5t97.5 63.5q-51 29 -73 62.5t-22 77.5q0 73 52.5 116t142.5 43q69 0 111.5 -31.5t42.5 -83.5q0 -40 -31 -75.5t-85 -58.5zM235 568q-39 0 -62.5 -25.5t-23.5 -68.5
q0 -37 25 -66.5t108 -72.5q20 19 30.5 48.5t10.5 65.5q0 55 -24 87t-64 32zM159 277q-19 -20 -28.5 -52t-9.5 -73q0 -67 29.5 -108.5t79.5 -41.5q46 0 75 31.5t29 81.5q0 31 -15 55.5t-48 46.5q-20 13 -59 32.5t-53 27.5z" />
    <glyph glyph-name="nine.posf" horiz-adv-x="475" 
d="M443 258q0 -134 -92.5 -232.5t-253.5 -135.5l-2 8q110 45 168 137t58 219q0 108 -24 161t-73 53q-39 0 -62 -41t-23 -109q0 -64 26.5 -104t70.5 -40q14 0 30 5t29 13l4 -5q-25 -28 -58 -43.5t-68 -15.5q-66 0 -106.5 43.5t-40.5 111.5q0 86 58.5 141.5t147.5 55.5
q98 0 154.5 -58.5t56.5 -163.5z" />
    <glyph glyph-name="zero.numerator" horiz-adv-x="278" 
d="M263 429q0 -65 -35.5 -107.5t-90.5 -42.5q-52 0 -87 44t-35 107q0 64 34 104.5t89 40.5q53 0 89 -42.5t36 -103.5zM91 429q0 -69 11.5 -103t34.5 -34q25 0 37.5 34t12.5 103q0 67 -12 100.5t-36 33.5q-25 0 -36.5 -32.5t-11.5 -101.5z" />
    <glyph glyph-name="one.numerator" horiz-adv-x="171" 
d="M165 294v-9h-145v9l26 1q7 0 9.5 4t2.5 13v171q0 21 -6.5 30t-20.5 9q-6 0 -10.5 -0.5t-10.5 -2.5l-3 8l117 53l6 -3q-2 -11 -2.5 -21.5t-0.5 -30.5v-213q0 -10 2.5 -13.5t9.5 -3.5z" />
    <glyph glyph-name="two.numerator" horiz-adv-x="233" 
d="M224 384l-21 -99h-190v8q63 58 95 103.5t32 76.5q0 23 -13 37.5t-35 14.5q-25 0 -42.5 -14t-29.5 -44l-5 2q9 48 35.5 77t64.5 29q44 0 68.5 -20.5t24.5 -56.5q0 -32 -26 -62.5t-97 -84.5v-2h109q9 0 13.5 4t6.5 13l5 18h5z" />
    <glyph glyph-name="three.numerator" horiz-adv-x="226" 
d="M215 372q0 -41 -41.5 -66.5t-107.5 -25.5q-25 0 -40.5 9t-15.5 24q0 7 6 17.5t14 17.5h4q15 -25 35 -38.5t40 -13.5q22 0 37 15t15 37q0 29 -20.5 48.5t-54.5 19.5q-8 0 -18 -2t-22 -6l-3 9q49 19 66.5 34.5t17.5 38.5q0 15 -12 25t-33 10q-24 0 -39.5 -11.5t-23.5 -35.5
l-6 2q6 45 32.5 70t68.5 25q35 0 56.5 -15.5t21.5 -39.5q0 -23 -12 -35.5t-49 -26.5v-1q39 -4 61.5 -27t22.5 -58z" />
    <glyph glyph-name="four.numerator" horiz-adv-x="264" 
d="M233 294v-9h-139v9l15 1q12 1 16 5.5t4 18.5v34h-110v30l153 192h25v-188h49v-34h-49v-34q0 -13 4.5 -18t16.5 -6zM129 501l-93 -114h93v114z" />
    <glyph glyph-name="five.numerator" horiz-adv-x="213" 
d="M200 380q0 -47 -35.5 -73.5t-100.5 -26.5q-25 0 -40 9t-15 24q0 7 6 17.5t14 17.5h4q16 -25 35 -39t37 -14q21 0 32 11t11 32q0 32 -28.5 50.5t-82.5 21.5l-2 2l29 158h137l-9 -64h-129l-6 -32q67 -5 105 -30.5t38 -63.5z" />
    <glyph glyph-name="six.numerator" horiz-adv-x="241" 
d="M15 388q0 67 50.5 115.5t138.5 68.5l2 -7q-56 -25 -85 -70.5t-29 -109.5q0 -56 8 -76.5t27 -20.5q17 0 26.5 19t9.5 51q0 27 -11.5 45.5t-29.5 18.5q-4 0 -7.5 -1t-8.5 -3l-4 5q12 13 30.5 21t31.5 8q31 0 49.5 -20.5t18.5 -52.5q0 -44 -30 -71.5t-77 -27.5
q-53 0 -81.5 27.5t-28.5 80.5z" />
    <glyph glyph-name="seven.numerator" horiz-adv-x="229" 
d="M218 563l-119 -278h-39v7l113 213h-126q-6 0 -9 -3t-6 -15l-6 -19l-4 1l4 101h192v-7z" />
    <glyph glyph-name="eight.numerator" horiz-adv-x="234" 
d="M157 454q39 -21 53 -40t14 -45q0 -42 -31 -65.5t-83 -23.5q-47 0 -73 20t-26 56q0 22 15 40t41 27q-20 13 -29.5 30t-9.5 40q0 38 26.5 60t73.5 22q39 0 60.5 -17t21.5 -47q0 -18 -15 -34t-38 -23zM122 567q-18 0 -28 -11.5t-10 -31.5q0 -18 11.5 -31.5t50.5 -32.5
q8 9 12 21t4 26q0 28 -10.5 44t-29.5 16zM79 416q-6 -9 -9 -21t-3 -27q0 -36 14 -58t38 -22q21 0 34 13.5t13 34.5q0 16 -7.5 28.5t-23.5 22.5q-9 7 -29 16t-27 13z" />
    <glyph glyph-name="nine.numerator" horiz-adv-x="244" 
d="M230 467q0 -67 -50.5 -115.5t-138.5 -68.5l-2 7q56 25 85 70.5t29 109.5q0 56 -8 76.5t-27 20.5q-17 0 -26.5 -19t-9.5 -51q0 -27 11.5 -45.5t29.5 -18.5q5 0 8.5 1t7.5 3l4 -5q-12 -13 -30.5 -21t-31.5 -8q-31 0 -49.5 20.5t-18.5 52.5q0 44 30 71.5t77 27.5
q53 0 81.5 -27.5t28.5 -80.5z" />
    <glyph glyph-name="zero.denominator" horiz-adv-x="278" 
d="M263 144q0 -65 -35.5 -107.5t-90.5 -42.5q-52 0 -87 44t-35 107q0 64 34 104.5t89 40.5q53 0 89 -42.5t36 -103.5zM91 144q0 -69 11.5 -103t34.5 -34q25 0 37.5 34t12.5 103q0 67 -12 100.5t-36 33.5q-25 0 -36.5 -32.5t-11.5 -101.5z" />
    <glyph glyph-name="one.denominator" horiz-adv-x="171" 
d="M165 9v-9h-145v9l26 1q7 0 9.5 4t2.5 13v171q0 21 -6.5 30t-20.5 9q-6 0 -10.5 -0.5t-10.5 -2.5l-3 8l117 53l6 -3q-2 -11 -2.5 -21.5t-0.5 -30.5v-213q0 -10 2.5 -13.5t9.5 -3.5z" />
    <glyph glyph-name="two.denominator" horiz-adv-x="233" 
d="M224 99l-21 -99h-190v8q63 58 95 103.5t32 76.5q0 23 -13 37.5t-35 14.5q-25 0 -42.5 -14t-29.5 -44l-5 2q9 48 35.5 77t64.5 29q44 0 68.5 -20.5t24.5 -56.5q0 -32 -26 -62.5t-97 -84.5v-2h109q9 0 13.5 4t6.5 13l5 18h5z" />
    <glyph glyph-name="three.denominator" horiz-adv-x="226" 
d="M215 87q0 -41 -41.5 -66.5t-107.5 -25.5q-25 0 -40.5 9t-15.5 24q0 7 6 17.5t14 17.5h4q15 -25 35 -38.5t40 -13.5q22 0 37 15t15 37q0 29 -20.5 48.5t-54.5 19.5q-8 0 -18 -2t-22 -6l-3 9q49 19 66.5 34.5t17.5 38.5q0 15 -12 25t-33 10q-24 0 -39.5 -11.5t-23.5 -35.5
l-6 2q6 45 32.5 70t68.5 25q35 0 56.5 -15.5t21.5 -39.5q0 -23 -12 -35.5t-49 -26.5v-1q39 -4 61.5 -27t22.5 -58z" />
    <glyph glyph-name="four.denominator" horiz-adv-x="264" 
d="M233 9v-9h-139v9l15 1q12 1 16 5.5t4 18.5v34h-110v30l153 192h25v-188h49v-34h-49v-34q0 -13 4.5 -18t16.5 -6zM129 216l-93 -114h93v114z" />
    <glyph glyph-name="five.denominator" horiz-adv-x="213" 
d="M200 95q0 -47 -35.5 -73.5t-100.5 -26.5q-25 0 -40 9t-15 24q0 7 6 17.5t14 17.5h4q16 -25 35 -39t37 -14q21 0 32 11t11 32q0 32 -28.5 50.5t-82.5 21.5l-2 2l29 158h137l-9 -64h-129l-6 -32q67 -5 105 -30.5t38 -63.5z" />
    <glyph glyph-name="six.denominator" horiz-adv-x="241" 
d="M15 103q0 67 50.5 115.5t138.5 68.5l2 -7q-56 -25 -85 -70.5t-29 -109.5q0 -56 8 -76.5t27 -20.5q17 0 26.5 19t9.5 51q0 27 -11.5 45.5t-29.5 18.5q-4 0 -7.5 -1t-8.5 -3l-4 5q12 13 30.5 21t31.5 8q31 0 49.5 -20.5t18.5 -52.5q0 -44 -30 -71.5t-77 -27.5
q-53 0 -81.5 27.5t-28.5 80.5z" />
    <glyph glyph-name="seven.denominator" horiz-adv-x="229" 
d="M218 278l-119 -278h-39v7l113 213h-126q-6 0 -9 -3t-6 -15l-6 -19l-4 1l4 101h192v-7z" />
    <glyph glyph-name="eight.denominator" horiz-adv-x="234" 
d="M157 169q39 -21 53 -40t14 -45q0 -42 -31 -65.5t-83 -23.5q-47 0 -73 20t-26 56q0 22 15 40t41 27q-20 13 -29.5 30t-9.5 40q0 38 26.5 60t73.5 22q39 0 60.5 -17t21.5 -47q0 -18 -15 -34t-38 -23zM122 282q-18 0 -28 -11.5t-10 -31.5q0 -18 11.5 -31.5t50.5 -32.5
q8 9 12 21t4 26q0 28 -10.5 44t-29.5 16zM79 131q-6 -9 -9 -21t-3 -27q0 -36 14 -58t38 -22q21 0 34 13.5t13 34.5q0 16 -7.5 28.5t-23.5 22.5q-9 7 -29 16t-27 13z" />
    <glyph glyph-name="nine.denominator" horiz-adv-x="244" 
d="M230 182q0 -67 -50.5 -115.5t-138.5 -68.5l-2 7q56 25 85 70.5t29 109.5q0 56 -8 76.5t-27 20.5q-17 0 -26.5 -19t-9.5 -51q0 -27 11.5 -45.5t29.5 -18.5q5 0 8.5 1t7.5 3l4 -5q-12 -13 -30.5 -21t-31.5 -8q-31 0 -49.5 20.5t-18.5 52.5q0 44 30 71.5t77 27.5
q53 0 81.5 -27.5t28.5 -80.5z" />
    <glyph glyph-name="onefifth" horiz-adv-x="475" 
d="M165 294v-9h-145v9l26 1q7 0 9.5 4t2.5 13v171q0 21 -6.5 30t-20.5 9q-6 0 -10.5 -0.5t-10.5 -2.5l-3 8l117 53l6 -3q-2 -11 -2.5 -21.5t-0.5 -30.5v-213q0 -10 2.5 -13.5t9.5 -3.5zM392 555l-323 -555l-28 15l326 555zM462 95q0 -47 -35.5 -73.5t-100.5 -26.5
q-25 0 -40 9t-15 24q0 7 6 17.5t14 17.5h4q16 -25 35 -39t37 -14q21 0 32 11t11 32q0 32 -28.5 50.5t-82.5 21.5l-2 2l29 158h137l-9 -64h-129l-6 -32q67 -5 105 -30.5t38 -63.5z" />
    <glyph glyph-name="onesixth" horiz-adv-x="473" 
d="M165 294v-9h-145v9l26 1q7 0 9.5 4t2.5 13v171q0 21 -6.5 30t-20.5 9q-6 0 -10.5 -0.5t-10.5 -2.5l-3 8l117 53l6 -3q-2 -11 -2.5 -21.5t-0.5 -30.5v-213q0 -10 2.5 -13.5t9.5 -3.5zM392 555l-323 -555l-28 15l326 555zM247 103q0 67 50.5 115.5t138.5 68.5l2 -7
q-56 -25 -85 -70.5t-29 -109.5q0 -56 8 -76.5t27 -20.5q17 0 26.5 19t9.5 51q0 27 -11.5 45.5t-29.5 18.5q-4 0 -7.5 -1t-8.5 -3l-4 5q12 13 30.5 21t31.5 8q31 0 49.5 -20.5t18.5 -52.5q0 -44 -30 -71.5t-77 -27.5q-53 0 -81.5 27.5t-28.5 80.5z" />
    <glyph glyph-name="oneseventh" horiz-adv-x="491" 
d="M165 294v-9h-145v9l26 1q7 0 9.5 4t2.5 13v171q0 21 -6.5 30t-20.5 9q-6 0 -10.5 -0.5t-10.5 -2.5l-3 8l117 53l6 -3q-2 -11 -2.5 -21.5t-0.5 -30.5v-213q0 -10 2.5 -13.5t9.5 -3.5zM392 555l-323 -555l-28 15l326 555zM480 278l-119 -278h-39v7l113 213h-126q-6 0 -9 -3
t-6 -15l-6 -19l-4 1l4 101h192v-7z" />
    <glyph glyph-name="oneninth" horiz-adv-x="506" 
d="M165 294v-9h-145v9l26 1q7 0 9.5 4t2.5 13v171q0 21 -6.5 30t-20.5 9q-6 0 -10.5 -0.5t-10.5 -2.5l-3 8l117 53l6 -3q-2 -11 -2.5 -21.5t-0.5 -30.5v-213q0 -10 2.5 -13.5t9.5 -3.5zM392 555l-323 -555l-28 15l326 555zM492 182q0 -67 -50.5 -115.5t-138.5 -68.5l-2 7
q56 25 85 70.5t29 109.5q0 56 -8 76.5t-27 20.5q-17 0 -26.5 -19t-9.5 -51q0 -27 11.5 -45.5t29.5 -18.5q5 0 8.5 1t7.5 3l4 -5q-12 -13 -30.5 -21t-31.5 -8q-31 0 -49.5 20.5t-18.5 52.5q0 44 30 71.5t77 27.5q53 0 81.5 -27.5t28.5 -80.5z" />
    <glyph glyph-name="twofifths" horiz-adv-x="537" 
d="M224 384l-21 -99h-190v8q63 58 95 103.5t32 76.5q0 23 -13 37.5t-35 14.5q-25 0 -42.5 -14t-29.5 -44l-5 2q9 48 35.5 77t64.5 29q44 0 68.5 -20.5t24.5 -56.5q0 -32 -26 -62.5t-97 -84.5v-2h109q9 0 13.5 4t6.5 13l5 18h5zM454 555l-323 -555l-28 15l326 555zM524 95
q0 -47 -35.5 -73.5t-100.5 -26.5q-25 0 -40 9t-15 24q0 7 6 17.5t14 17.5h4q16 -25 35 -39t37 -14q21 0 32 11t11 32q0 32 -28.5 50.5t-82.5 21.5l-2 2l29 158h137l-9 -64h-129l-6 -32q67 -5 105 -30.5t38 -63.5z" />
    <glyph glyph-name="twosevenths" horiz-adv-x="553" 
d="M224 384l-21 -99h-190v8q63 58 95 103.5t32 76.5q0 23 -13 37.5t-35 14.5q-25 0 -42.5 -14t-29.5 -44l-5 2q9 48 35.5 77t64.5 29q44 0 68.5 -20.5t24.5 -56.5q0 -32 -26 -62.5t-97 -84.5v-2h109q9 0 13.5 4t6.5 13l5 18h5zM454 555l-323 -555l-28 15l326 555zM542 278
l-119 -278h-39v7l113 213h-126q-6 0 -9 -3t-6 -15l-6 -19l-4 1l4 101h192v-7z" />
    <glyph glyph-name="twoninths" horiz-adv-x="568" 
d="M224 384l-21 -99h-190v8q63 58 95 103.5t32 76.5q0 23 -13 37.5t-35 14.5q-25 0 -42.5 -14t-29.5 -44l-5 2q9 48 35.5 77t64.5 29q44 0 68.5 -20.5t24.5 -56.5q0 -32 -26 -62.5t-97 -84.5v-2h109q9 0 13.5 4t6.5 13l5 18h5zM454 555l-323 -555l-28 15l326 555zM554 182
q0 -67 -50.5 -115.5t-138.5 -68.5l-2 7q56 25 85 70.5t29 109.5q0 56 -8 76.5t-27 20.5q-17 0 -26.5 -19t-9.5 -51q0 -27 11.5 -45.5t29.5 -18.5q5 0 8.5 1t7.5 3l4 -5q-12 -13 -30.5 -21t-31.5 -8q-31 0 -49.5 20.5t-18.5 52.5q0 44 30 71.5t77 27.5q53 0 81.5 -27.5
t28.5 -80.5z" />
    <glyph glyph-name="threefifths" horiz-adv-x="530" 
d="M215 372q0 -41 -41.5 -66.5t-107.5 -25.5q-25 0 -40.5 9t-15.5 24q0 7 6 17.5t14 17.5h4q15 -25 35 -38.5t40 -13.5q22 0 37 15t15 37q0 29 -20.5 48.5t-54.5 19.5q-8 0 -18 -2t-22 -6l-3 9q49 19 66.5 34.5t17.5 38.5q0 15 -12 25t-33 10q-24 0 -39.5 -11.5t-23.5 -35.5
l-6 2q6 45 32.5 70t68.5 25q35 0 56.5 -15.5t21.5 -39.5q0 -23 -12 -35.5t-49 -26.5v-1q39 -4 61.5 -27t22.5 -58zM447 555l-323 -555l-28 15l326 555zM517 95q0 -47 -35.5 -73.5t-100.5 -26.5q-25 0 -40 9t-15 24q0 7 6 17.5t14 17.5h4q16 -25 35 -39t37 -14q21 0 32 11
t11 32q0 32 -28.5 50.5t-82.5 21.5l-2 2l29 158h137l-9 -64h-129l-6 -32q67 -5 105 -30.5t38 -63.5z" />
    <glyph glyph-name="threesevenths" horiz-adv-x="546" 
d="M215 372q0 -41 -41.5 -66.5t-107.5 -25.5q-25 0 -40.5 9t-15.5 24q0 7 6 17.5t14 17.5h4q15 -25 35 -38.5t40 -13.5q22 0 37 15t15 37q0 29 -20.5 48.5t-54.5 19.5q-8 0 -18 -2t-22 -6l-3 9q49 19 66.5 34.5t17.5 38.5q0 15 -12 25t-33 10q-24 0 -39.5 -11.5t-23.5 -35.5
l-6 2q6 45 32.5 70t68.5 25q35 0 56.5 -15.5t21.5 -39.5q0 -23 -12 -35.5t-49 -26.5v-1q39 -4 61.5 -27t22.5 -58zM447 555l-323 -555l-28 15l326 555zM535 278l-119 -278h-39v7l113 213h-126q-6 0 -9 -3t-6 -15l-6 -19l-4 1l4 101h192v-7z" />
    <glyph glyph-name="fourfifths" horiz-adv-x="568" 
d="M233 294v-9h-139v9l15 1q12 1 16 5.5t4 18.5v34h-110v30l153 192h25v-188h49v-34h-49v-34q0 -13 4.5 -18t16.5 -6zM129 501l-93 -114h93v114zM485 555l-323 -555l-28 15l326 555zM555 95q0 -47 -35.5 -73.5t-100.5 -26.5q-25 0 -40 9t-15 24q0 7 6 17.5t14 17.5h4
q16 -25 35 -39t37 -14q21 0 32 11t11 32q0 32 -28.5 50.5t-82.5 21.5l-2 2l29 158h137l-9 -64h-129l-6 -32q67 -5 105 -30.5t38 -63.5z" />
    <glyph glyph-name="foursevenths" horiz-adv-x="584" 
d="M233 294v-9h-139v9l15 1q12 1 16 5.5t4 18.5v34h-110v30l153 192h25v-188h49v-34h-49v-34q0 -13 4.5 -18t16.5 -6zM129 501l-93 -114h93v114zM485 555l-323 -555l-28 15l326 555zM573 278l-119 -278h-39v7l113 213h-126q-6 0 -9 -3t-6 -15l-6 -19l-4 1l4 101h192v-7z" />
    <glyph glyph-name="fourninths" horiz-adv-x="599" 
d="M233 294v-9h-139v9l15 1q12 1 16 5.5t4 18.5v34h-110v30l153 192h25v-188h49v-34h-49v-34q0 -13 4.5 -18t16.5 -6zM129 501l-93 -114h93v114zM485 555l-323 -555l-28 15l326 555zM585 182q0 -67 -50.5 -115.5t-138.5 -68.5l-2 7q56 25 85 70.5t29 109.5q0 56 -8 76.5
t-27 20.5q-17 0 -26.5 -19t-9.5 -51q0 -27 11.5 -45.5t29.5 -18.5q5 0 8.5 1t7.5 3l4 -5q-12 -13 -30.5 -21t-31.5 -8q-31 0 -49.5 20.5t-18.5 52.5q0 44 30 71.5t77 27.5q53 0 81.5 -27.5t28.5 -80.5z" />
    <glyph glyph-name="fivesixths" horiz-adv-x="505" 
d="M200 380q0 -47 -35.5 -73.5t-100.5 -26.5q-25 0 -40 9t-15 24q0 7 6 17.5t14 17.5h4q16 -25 35 -39t37 -14q21 0 32 11t11 32q0 32 -28.5 50.5t-82.5 21.5l-2 2l29 158h137l-9 -64h-129l-6 -32q67 -5 105 -30.5t38 -63.5zM434 555l-323 -555l-28 15l326 555zM279 103
q0 67 50.5 115.5t138.5 68.5l2 -7q-56 -25 -85 -70.5t-29 -109.5q0 -56 8 -76.5t27 -20.5q17 0 26.5 19t9.5 51q0 27 -11.5 45.5t-29.5 18.5q-4 0 -7.5 -1t-8.5 -3l-4 5q12 13 30.5 21t31.5 8q31 0 49.5 -20.5t18.5 -52.5q0 -44 -30 -71.5t-77 -27.5q-53 0 -81.5 27.5
t-28.5 80.5z" />
    <glyph glyph-name="fivesevenths" horiz-adv-x="533" 
d="M200 380q0 -47 -35.5 -73.5t-100.5 -26.5q-25 0 -40 9t-15 24q0 7 6 17.5t14 17.5h4q16 -25 35 -39t37 -14q21 0 32 11t11 32q0 32 -28.5 50.5t-82.5 21.5l-2 2l29 158h137l-9 -64h-129l-6 -32q67 -5 105 -30.5t38 -63.5zM434 555l-323 -555l-28 15l326 555zM522 278
l-119 -278h-39v7l113 213h-126q-6 0 -9 -3t-6 -15l-6 -19l-4 1l4 101h192v-7z" />
    <glyph glyph-name="fiveninths" horiz-adv-x="548" 
d="M200 380q0 -47 -35.5 -73.5t-100.5 -26.5q-25 0 -40 9t-15 24q0 7 6 17.5t14 17.5h4q16 -25 35 -39t37 -14q21 0 32 11t11 32q0 32 -28.5 50.5t-82.5 21.5l-2 2l29 158h137l-9 -64h-129l-6 -32q67 -5 105 -30.5t38 -63.5zM434 555l-323 -555l-28 15l326 555zM534 182
q0 -67 -50.5 -115.5t-138.5 -68.5l-2 7q56 25 85 70.5t29 109.5q0 56 -8 76.5t-27 20.5q-17 0 -26.5 -19t-9.5 -51q0 -27 11.5 -45.5t29.5 -18.5q5 0 8.5 1t7.5 3l4 -5q-12 -13 -30.5 -21t-31.5 -8q-31 0 -49.5 20.5t-18.5 52.5q0 44 30 71.5t77 27.5q53 0 81.5 -27.5
t28.5 -80.5z" />
    <glyph glyph-name="sixsevenths" horiz-adv-x="561" 
d="M15 388q0 67 50.5 115.5t138.5 68.5l2 -7q-56 -25 -85 -70.5t-29 -109.5q0 -56 8 -76.5t27 -20.5q17 0 26.5 19t9.5 51q0 27 -11.5 45.5t-29.5 18.5q-4 0 -7.5 -1t-8.5 -3l-4 5q12 13 30.5 21t31.5 8q31 0 49.5 -20.5t18.5 -52.5q0 -44 -30 -71.5t-77 -27.5
q-53 0 -81.5 27.5t-28.5 80.5zM462 555l-323 -555l-28 15l326 555zM550 278l-119 -278h-39v7l113 213h-126q-6 0 -9 -3t-6 -15l-6 -19l-4 1l4 101h192v-7z" />
    <glyph glyph-name="sevenninths" horiz-adv-x="564" 
d="M218 563l-119 -278h-39v7l113 213h-126q-6 0 -9 -3t-6 -15l-6 -19l-4 1l4 101h192v-7zM450 555l-323 -555l-28 15l326 555zM550 182q0 -67 -50.5 -115.5t-138.5 -68.5l-2 7q56 25 85 70.5t29 109.5q0 56 -8 76.5t-27 20.5q-17 0 -26.5 -19t-9.5 -51q0 -27 11.5 -45.5
t29.5 -18.5q5 0 8.5 1t7.5 3l4 -5q-12 -13 -30.5 -21t-31.5 -8q-31 0 -49.5 20.5t-18.5 52.5q0 44 30 71.5t77 27.5q53 0 81.5 -27.5t28.5 -80.5z" />
    <glyph glyph-name="eightninths" horiz-adv-x="569" 
d="M157 454q39 -21 53 -40t14 -45q0 -42 -31 -65.5t-83 -23.5q-47 0 -73 20t-26 56q0 22 15 40t41 27q-20 13 -29.5 30t-9.5 40q0 38 26.5 60t73.5 22q39 0 60.5 -17t21.5 -47q0 -18 -15 -34t-38 -23zM122 567q-18 0 -28 -11.5t-10 -31.5q0 -18 11.5 -31.5t50.5 -32.5
q8 9 12 21t4 26q0 28 -10.5 44t-29.5 16zM79 416q-6 -9 -9 -21t-3 -27q0 -36 14 -58t38 -22q21 0 34 13.5t13 34.5q0 16 -7.5 28.5t-23.5 22.5q-9 7 -29 16t-27 13zM455 555l-323 -555l-28 15l326 555zM555 182q0 -67 -50.5 -115.5t-138.5 -68.5l-2 7q56 25 85 70.5
t29 109.5q0 56 -8 76.5t-27 20.5q-17 0 -26.5 -19t-9.5 -51q0 -27 11.5 -45.5t29.5 -18.5q5 0 8.5 1t7.5 3l4 -5q-12 -13 -30.5 -21t-31.5 -8q-31 0 -49.5 20.5t-18.5 52.5q0 44 30 71.5t77 27.5q53 0 81.5 -27.5t28.5 -80.5z" />
    <glyph glyph-name="at.case" horiz-adv-x="643" 
d="M463 165q27 0 60 22.5t58 58.5q21 31 32.5 66.5t11.5 72.5q0 93 -59 144.5t-166 51.5q-65 0 -127.5 -25.5t-112.5 -71.5q-50 -47 -77.5 -107.5t-27.5 -126.5q0 -118 68.5 -181t194.5 -63q54 0 105.5 16t89.5 44l3 -5q-36 -28 -90.5 -44.5t-110.5 -16.5
q-126 0 -200.5 64.5t-74.5 177.5q0 71 28.5 135t81.5 113q52 48 118 74t136 26q107 0 170.5 -54.5t63.5 -147.5q0 -48 -17.5 -92.5t-50.5 -81.5q-34 -38 -78 -60t-87 -22q-33 0 -50 20.5t-10 51.5q-22 -35 -48 -53.5t-54 -18.5q-36 0 -59 23.5t-23 62.5q0 45 22 91t61 81
q39 36 86 52t94 9l8 21l100 12l-92 -273q-8 -24 -3 -35t26 -11zM386 443q-39 0 -82 -76.5t-43 -145.5q0 -27 6.5 -40.5t20.5 -13.5q20 0 39.5 30.5t42.5 95.5l33 94q10 27 5.5 41.5t-22.5 14.5z" />
    <glyph glyph-name="questiondown.case" horiz-adv-x="385" 
d="M230 358l5 34h8l21 -127q3 -19 -1 -26t-28 -16q-79 -29 -110 -59t-31 -71q0 -36 21.5 -58.5t54.5 -22.5q24 0 46 16t71 78q23 -22 34 -41t11 -35q0 -20 -24.5 -30t-70.5 -10q-95 0 -157.5 50t-62.5 124q0 62 39 101t134 69q26 8 32.5 12t7.5 12zM232 446
q-29 0 -48.5 19.5t-19.5 48.5q0 28 19.5 47t48.5 19q28 0 47 -19t19 -47q0 -29 -19 -48.5t-47 -19.5z" />
    <glyph glyph-name="exclamdown.case" horiz-adv-x="285" 
d="M83 120l56 272h8l55 -272q2 -11 4 -27t2 -25q0 -36 -17 -57t-48 -21t-48.5 21t-17.5 57q0 9 2 25t4 27zM143 446q-29 0 -48.5 19.5t-19.5 48.5q0 28 19.5 47t48.5 19q28 0 47 -19t19 -47q0 -29 -19 -48.5t-47 -19.5z" />
    <glyph glyph-name="parenleft.case" horiz-adv-x="200" 
d="M92 298q0 -104 29 -202t79 -158l-15 -15q-56 63 -89 165t-33 210t33 209.5t89 165.5l15 -15q-50 -60 -79 -158t-29 -202z" />
    <glyph glyph-name="parenright.case" horiz-adv-x="200" 
d="M15 -77l-15 15q50 60 79 158t29 202t-29 202t-79 158l15 15q56 -64 89 -165.5t33 -209.5t-33 -210t-89 -165z" />
    <glyph glyph-name="braceleft.case" horiz-adv-x="195" 
d="M186 -64l-6 -18l-32 11q-43 15 -60.5 38t-17.5 60q0 14 3.5 32t14.5 58q10 39 13.5 57t3.5 31q0 40 -19 58t-60 20v20q41 2 60 20t19 58q0 13 -3.5 31t-13.5 57q-11 40 -14.5 58t-3.5 32q0 37 17.5 60t60.5 38l32 11l6 -18l-24 -9q-35 -13 -49 -31t-14 -47q0 -16 3.5 -37
t13.5 -64q9 -36 12 -52t3 -28q0 -32 -17 -54.5t-49 -33.5v-2q32 -11 49 -33.5t17 -54.5q0 -12 -3 -28t-12 -52q-10 -43 -13.5 -64t-3.5 -37q0 -29 14 -47t49 -31z" />
    <glyph glyph-name="braceright.case" horiz-adv-x="195" 
d="M47 -71l-32 -11l-6 18l24 9q35 13 49 31t14 47q0 16 -3.5 37t-13.5 64q-9 36 -12 52t-3 28q0 32 17 54.5t49 33.5v2q-32 11 -49 33.5t-17 54.5q0 12 3 28t12 52q10 43 13.5 64t3.5 37q0 29 -14 47t-49 31l-24 9l6 18l32 -11q43 -15 60.5 -38t17.5 -60q0 -14 -3.5 -32
t-14.5 -58q-10 -39 -13.5 -57t-3.5 -31q0 -40 19 -58t60 -20v-20q-41 -2 -60 -20t-19 -58q0 -13 3.5 -31t13.5 -57q11 -40 14.5 -58t3.5 -32q0 -37 -17.5 -60t-60.5 -38z" />
    <glyph glyph-name="bracketleft.case" horiz-adv-x="185" 
d="M180 -64l-1 -16l-102 6v738l102 6l1 -16l-54 -6q-13 -1 -18 -7t-5 -23v-646q0 -17 5 -23t18 -7z" />
    <glyph glyph-name="bracketright.case" horiz-adv-x="185" 
d="M108 -74l-102 -6l-1 16l54 6q13 1 18 7t5 23v646q0 17 -5 23t-18 7l-54 6l1 16l102 -6v-738z" />
    <glyph glyph-name="hyphen.case" horiz-adv-x="200" 
d="M180 278h-160v40h160v-40z" />
    <glyph glyph-name="endash.case" horiz-adv-x="400" 
d="M380 285h-360v25h360v-25z" />
    </font>
</defs>
</svg>
